<svg width="30" height="31" viewBox="0 0 30 31" fill="none" xmlns="http://www.w3.org/2000/svg">
<path d="M16.5 16.6L19.4 23.6L20.3 21.3L22.5 23.5L23.4 22.7L21.1001 20.4L23.5 19.6L16.5 16.6Z" fill="white"/>
<path d="M15.4998 23.2V20C15.9998 20 16.3998 20 16.8998 20L16.4998 19C16.1998 19 15.7998 19 15.4998 19V15.6H19.3998C19.3998 16 19.3998 16.4 19.2998 16.8L20.1998 17.2C20.2998 16.7 20.2998 16.2 20.2998 15.7H22.9998C22.8998 16.6 22.7998 17.4 22.3998 18.2L23.2998 18.6C23.6998 17.5 23.8998 16.4 23.8998 15.2C23.8998 13.2 23.2998 11.3 21.9998 9.69995C20.2998 7.49995 17.6998 6.19995 14.7998 6.19995H14.6998C11.8998 6.19995 9.39983 7.49995 7.69983 9.69995C6.49983 11.3 5.7998 13.2 5.7998 15.2C5.7998 17.2 6.39983 19.1 7.69983 20.7C9.39983 22.9 11.9998 24.2 14.6998 24.2H14.7998H14.8998C15.9998 24.2 17.0999 24 18.0999 23.6L17.2998 21.7C16.9998 22.5 16.2998 23 15.4998 23.2ZM21.5999 10.5C22.4999 11.7 22.9999 13.2 23.0999 14.7H20.3998C20.3998 13.4 20.1998 12.1 19.7998 10.9C20.3998 10.8 21.0999 10.7 21.5999 10.5ZM20.9998 9.69995C20.4998 9.79995 19.9998 9.9 19.3998 10C19.1998 9.6 19.0998 9.20002 18.8998 8.90002C18.5998 8.40002 18.2998 7.99995 17.9998 7.69995C19.0998 8.09995 20.0998 8.79995 20.9998 9.69995ZM15.4998 7.09998C16.3998 7.29998 17.2998 8.10005 17.9998 9.30005C18.0998 9.50005 18.2998 9.79998 18.3998 10.1C17.4998 10.2 16.4998 10.3 15.4998 10.3V7.09998ZM15.4998 11.3C16.5998 11.3 17.7998 11.2 18.7998 11.1C19.1998 12.2 19.3998 13.4 19.3998 14.7H15.4998V11.3ZM11.9998 7.69995C11.6998 8.09995 11.3999 8.50002 11.0999 8.90002C10.8999 9.30002 10.6999 9.6 10.5999 10C9.99985 9.9 9.49976 9.79995 8.99976 9.69995C9.89976 8.79995 10.8998 8.09995 11.9998 7.69995ZM8.39978 10.5C8.89978 10.7 9.5998 10.8 10.2998 10.9C9.8998 12.1 9.69983 13.3 9.69983 14.7H6.99976C6.99976 13.2 7.49978 11.8 8.39978 10.5ZM8.39978 19.8C7.49978 18.6 6.99978 17.1 6.89978 15.6H9.59985C9.59985 16.9 9.79983 18.2 10.1998 19.4C9.59983 19.5 8.99978 19.7 8.39978 19.8ZM9.09985 20.6C9.59985 20.5 10.0998 20.4 10.6998 20.3C10.8998 20.7 10.9998 21.1 11.1998 21.4C11.4998 21.9 11.7999 22.3 12.0999 22.6C10.8999 22.2 9.89985 21.5 9.09985 20.6ZM14.4998 23.2C13.5998 23 12.6998 22.2 11.9998 21C11.8998 20.8 11.6999 20.5 11.5999 20.2C12.4999 20.1 13.4998 20 14.4998 20V23.2ZM14.4998 19.1C13.3998 19.1 12.1998 19.2 11.1998 19.3C10.7998 18.2 10.5999 17 10.5999 15.7H14.4998V19.1ZM14.4998 14.7H10.5999C10.5999 13.4 10.8998 12.2 11.1998 11.1C12.1998 11.2 13.2998 11.3 14.4998 11.3V14.7ZM14.4998 10.3C13.4998 10.3 12.4999 10.2 11.5999 10.1C11.6999 9.79998 11.7998 9.60005 11.9998 9.30005C12.6998 8.00005 13.5998 7.29998 14.4998 7.09998V10.3Z" fill="white"/>
<path d="M15 0.199951C6.7 0.199951 0 6.89995 0 15.2C0 23.5 6.7 30.2 15 30.2C23.3 30.2 30 23.5 30 15.2C30 6.89995 23.3 0.199951 15 0.199951ZM15 28.9C7.4 28.9 1.30005 22.7 1.30005 15.1C1.30005 7.49998 7.5 1.40002 15 1.40002C22.6 1.40002 28.7001 7.59998 28.7001 15.1C28.7001 22.6 22.6 28.9 15 28.9Z" fill="white"/>
</svg>
