<svg width="36" height="4" viewBox="0 0 36 4" fill="none" xmlns="http://www.w3.org/2000/svg">
<path d="M12.359 0.823148C12.9615 0.806716 14.0324 0.784806 14.7417 0.773851C15.4511 0.762896 16.7876 0.751941 17.7133 0.749202C18.639 0.746463 20.1672 0.757418 21.1094 0.771112C22.0515 0.784806 23.2702 0.809455 23.8207 0.825887C24.3712 0.84232 25.3134 0.872446 25.9159 0.894356L25.9789 0.896933C26.5869 0.921796 27.5506 0.961207 28.1617 0.992951C28.7943 1.02308 29.8241 1.07785 30.4485 1.11346C31.073 1.1518 32.0343 1.21205 32.5848 1.25039C33.1353 1.28874 34.1267 1.36268 34.7895 1.41746C35.4522 1.4695 35.9973 1.51605 36 1.51879C36.0027 1.52153 34.6826 1.53249 33.0695 1.54344C31.4536 1.5544 29.5858 1.57631 28.9148 1.59274C28.2438 1.60643 27.2579 1.63108 26.7238 1.64752C26.1898 1.66395 25.2449 1.69407 24.6287 1.71598C24.0124 1.74063 22.958 1.78171 22.287 1.81184C21.616 1.84197 20.6054 1.89126 20.0412 1.92139C19.4771 1.95426 18.4281 2.01451 17.7133 2.05833C16.9985 2.10489 15.8948 2.17883 15.2621 2.22265C14.6294 2.26921 13.649 2.34316 13.0848 2.38972C12.5206 2.43354 11.5703 2.51296 10.9759 2.56774C10.3816 2.61978 9.44497 2.70468 8.89448 2.75671C8.34399 2.80875 7.30874 2.91556 6.59392 2.98951C5.87911 3.06619 4.70692 3.19491 3.9921 3.27982C3.27728 3.36198 2.1051 3.50439 1.39028 3.59204C0.675462 3.68241 0.0674574 3.76184 0.0428085 3.77005C-0.00375039 3.78375 -0.00648915 3.71802 0.00720465 1.52427L0.56865 1.47771C0.87813 1.45306 1.52996 1.40103 2.02019 1.36268C2.51043 1.32434 3.46352 1.25587 4.14273 1.20931C4.81921 1.16549 5.81885 1.10524 6.36113 1.07511C6.9034 1.04225 7.74146 1.00117 8.22349 0.976519C8.70551 0.954609 9.58739 0.916266 10.1817 0.894356C10.776 0.872446 11.7565 0.84232 12.359 0.823148Z" fill="#38AADF"/>
</svg>
