<?xml version="1.0" encoding="UTF-8"?>
<svg id="Layer_1" xmlns="http://www.w3.org/2000/svg" version="1.1" viewBox="0 0 50 50">
  <!-- Generator: Adobe Illustrator 29.0.1, SVG Export Plug-In . SVG Version: 2.1.0 Build 192)  -->
  <defs>
    <style>
      .st0 {
        fill: #fff;
      }
    </style>
  </defs>
  <g>
    <path class="st0" d="M28.6,11.2c-.5-.5-1.2-.8-1.9-.8s-1.3.3-1.9.8c-.5.5-.8,1.2-.8,1.8s.3,1.3.8,1.9c.5.5,1.2.8,1.9.8s1.4-.3,1.9-.8c.5-.5.8-1.2.8-1.9s-.3-1.4-.8-1.9h0Z"/>
    <path class="st0" d="M27.4,19.5c0-.2-.2-.3-.2-.4,0-.1-.2-.2-.3-.3-.1,0-.2,0-.4,0-1,0-2.5.9-5,3l-.9.8,1.2-.2h.2c.3,0,.5,0,.7.3s.3.4.3.7c0,.3,0,.9-.2,2,0,.7-.3,1.7-.6,3.2l-1.1,5.1c-.1.7-.3,1.5-.4,2.3,0,.7,0,1.3,0,1.8,0,.3,0,.7.2,1,0,.2.2.4.2.5v.2h.2c.2.2.5.3.9.3s.2,0,.5,0c.2,0,.3,0,.5-.2.9-.3,2-1.1,3.4-2.3l.7-.6h-1.1c-.6,0-.9-.2-1.1-.5,0-.1,0-.2,0-.4,0-.5,0-1.3.2-2.5.2-1.2.5-2.7.9-4.4l.5-2.3c.3-1.4.6-2.7.8-3.9.1-1,.2-1.8.2-2.2,0-.2,0-.4-.1-.6h0Z"/>
  </g>
  <path class="st0" d="M25,2c12.7,0,23,10.3,23,23s-10.3,23-23,23S2,37.7,2,25,12.3,2,25,2M25,0C11.2,0,0,11.2,0,25s11.2,25,25,25,25-11.2,25-25S38.8,0,25,0h0Z"/>
</svg>