<svg id="Layer_1" data-name="Layer 1" xmlns="http://www.w3.org/2000/svg" viewBox="0 0 46.4 40.7"><defs><style>.cls-1{fill:#dfeefa;}</style></defs><path class="cls-1" d="M24.4,11.4A2.3,2.3,0,0,1,26,12a2.4,2.4,0,0,1,.7,1.6,2.2,2.2,0,0,1-.7,1.6,2.2,2.2,0,0,1-3.2,0,2.1,2.1,0,0,1-.6-1.6,2.1,2.1,0,0,1,2.2-2.2Zm1,1.3a1.4,1.4,0,0,0-2,0,1.5,1.5,0,0,0-.4.9,1.5,1.5,0,0,0,.4,1,1.4,1.4,0,0,0,2,0,1.5,1.5,0,0,0,.4-1,1.5,1.5,0,0,0-.4-.9Z"/><path class="cls-1" d="M18.8,20l.9-.7c1.3-1.2,3.3-3,4.5-3l.5.2c.2,0,.3.1.5.3l.3.4c0,.2.1.4.1.6a5,5,0,0,1-.2,1.5,14.8,14.8,0,0,1-.4,2.4h0l-.4,1.4c-.2,1.1-.4,1.9-.5,2.6s-.2,1.1-.2,1.3H24l.6-.2a4.4,4.4,0,0,0,1.3-.5H26a.4.4,0,0,1,.6.1c.1.2.1.5-.1.6h0l-1.3,1.1h0A9.3,9.3,0,0,1,22.4,30l-.4.2h-.4a1.4,1.4,0,0,1-1.1-.5h0a.6.6,0,0,1-.3-.6,6.4,6.4,0,0,1-.2-.7,5.3,5.3,0,0,1,.1-1.2,7.8,7.8,0,0,1,.2-1.4l.7-3.1h0c.1-.8.3-1.4.3-1.9a3.4,3.4,0,0,0,.1-.9l-.9.3-1.2.6c-.2.1-.5.1-.6-.1a.4.4,0,0,1,.1-.6Zm5.4-2.8c-.6,0-1.8.9-2.8,1.8h.1a1.1,1.1,0,0,1,.6.2.8.8,0,0,1,.2.5,5.7,5.7,0,0,1-.1,1.2c-.1.6-.2,1.2-.4,2h0L21.2,26a6.9,6.9,0,0,0-.2,1.3,3.8,3.8,0,0,0-.1,1h0c0,.2.1.4.1.6a.3.3,0,0,1,.1.2h.1c.1.2.2.2.4.2h.5a7.3,7.3,0,0,0,2-1.4H24a1,1,0,0,1-.9-.4v-.3h0a4.2,4.2,0,0,1,.1-1.5,23.2,23.2,0,0,1,.6-2.7l.3-1.4h0c.2-1,.4-1.7.5-2.4a6.6,6.6,0,0,0,.1-1.3.4.4,0,0,0-.1-.3.1.1,0,0,0-.1-.1h-.1c0-.1-.1-.1-.2-.1Z"/><path class="cls-1" d="M23.2,5.4A15.1,15.1,0,0,1,33.8,9.8a14.9,14.9,0,0,1,4.4,10.6,15,15,0,0,1-15,15A14.9,14.9,0,0,1,12.6,31,15.1,15.1,0,0,1,8.2,20.4a15,15,0,0,1,15-15Zm9.9,5a14,14,0,0,0-9.9-4.1,14.4,14.4,0,0,0-10,4.1,14.4,14.4,0,0,0-4.1,10,14,14,0,0,0,4.1,9.9,14.4,14.4,0,0,0,10,4.1,14,14,0,0,0,9.9-4.1,13.6,13.6,0,0,0,4.1-9.9,14,14,0,0,0-4.1-10Z"/></svg>