<?xml version="1.0" encoding="UTF-8"?>
<svg id="Layer_1" xmlns="http://www.w3.org/2000/svg" version="1.1" viewBox="0 0 50 50">
  <!-- Generator: Adobe Illustrator 29.0.1, SVG Export Plug-In . SVG Version: 2.1.0 Build 192)  -->
  <defs>
    <style>
      .st0 {
        fill: #fff;
      }
    </style>
  </defs>
  <path class="st0" d="M36.8,15.1c-1.1-1.1-2.7-1.8-4.3-1.8h-15.3c-1.6,0-3.1.6-4.3,1.8s-1.8,2.7-1.8,4.3v9.6c0,1.6.6,3.1,1.8,4.2.9.9,2.1,1.5,3.4,1.7v3.5c0,1,.2,1.7.6,2,.2.2.5.3.8.3s.8-.2,1.3-.6l6.4-5.1h7.1c1.6,0,3.1-.6,4.3-1.8s1.8-2.6,1.8-4.2v-9.6c0-1.6-.6-3.1-1.8-4.3h0ZM32.6,33.3h-7.4c-.2,0-.4,0-.5.2l-6.6,5.3c0-.1,0-.3,0-.5v-4.2c0-.4-.4-.8-.8-.8-1.2,0-2.3-.5-3.1-1.3-.8-.8-1.3-1.9-1.3-3.1v-9.6c0-1.2.5-2.3,1.3-3.1.8-.8,1.9-1.3,3.1-1.3h15.3c1.2,0,2.3.5,3.1,1.3.8.8,1.3,1.9,1.3,3.1v9.6c0,1.2-.5,2.3-1.3,3.1-.8.8-1.9,1.3-3.1,1.3Z"/>
  <g>
    <path class="st0" d="M19.4,23.5c-.3,0-.6.1-.8.4-.2.2-.4.5-.4.9s.1.6.4.9c.2.2.5.4.9.4s.7-.1.9-.4c.2-.2.4-.5.4-.9s-.1-.6-.4-.9c-.2-.2-.5-.4-.9-.4h0Z"/>
    <path class="st0" d="M25.1,23.5c-.3,0-.6.1-.9.4-.2.2-.4.5-.4.9s.1.6.4.9c.2.2.5.4.9.4s.6-.1.9-.4c.2-.2.3-.5.3-.9s-.1-.6-.4-.9c-.2-.2-.5-.3-.9-.3h0Z"/>
    <path class="st0" d="M31.6,23.9c-.2-.2-.5-.3-.9-.3s-.6.1-.9.4c-.2.2-.3.5-.3.9s.1.6.4.9c.2.2.5.4.9.4s.6-.1.9-.4c.2-.3.4-.6.4-.9s-.1-.6-.4-.9Z"/>
  </g>
  <path class="st0" d="M25,2c12.7,0,23,10.3,23,23s-10.3,23-23,23S2,37.7,2,25,12.3,2,25,2M25,0C11.2,0,0,11.2,0,25s11.2,25,25,25,25-11.2,25-25S38.8,0,25,0h0Z"/>
</svg>