<?xml version="1.0" encoding="UTF-8"?>
<svg id="Layer_1" xmlns="http://www.w3.org/2000/svg" version="1.1" viewBox="0 0 50 50">
  <!-- Generator: Adobe Illustrator 29.0.1, SVG Export Plug-In . SVG Version: 2.1.0 Build 192)  -->
  <defs>
    <style>
      .st0 {
        fill: #fff;
      }
    </style>
  </defs>
  <path class="st0" d="M25,0C11.2,0,0,11.2,0,25s11.2,25,25,25,25-11.2,25-25S38.8,0,25,0ZM25,48c-12.7,0-23-10.3-23-23S12.3,2,25,2s23,10.3,23,23-10.3,23-23,23Z"/>
  <g>
    <path class="st0" d="M19,27.1l1.8-3.2,1.2,7.8c0,.3.3.6.7.6h0c.3,0,.6-.2.7-.5l1.8-5.5.7,1c.1.2.4.3.6.3h6.2c.4,0,.7-.3.7-.7s-.3-.7-.7-.7h-5.9l-1.4-1.8c-.2-.2-.4-.3-.7-.3-.3,0-.5.2-.6.5l-1.3,3.9-1.1-6.9c0-.3-.3-.6-.6-.6s-.6,0-.8.4l-2.6,4.8H6.9c-.4,0-.7.3-.7.7s.3.7.7.7h11.5c.3,0,.5-.1.7-.4h0Z"/>
    <path class="st0" d="M39.4,21.1c0-1.7-.7-3.3-1.7-4.6-1-1.2-2.3-2.1-3.9-2.5-.8-.2-1.6-.3-2.4-.2-1.4,0-2.7.5-3.9,1.3-.8.5-1.5,1.2-2.2,2-.6-.8-1.3-1.4-2.1-2-.9-.6-1.8-1-2.9-1.2-.6-.1-1.2-.2-1.9-.1-1.7,0-3.3.7-4.6,1.7-1.3,1.1-2.1,2.4-2.5,4.1-.2.7-.2,1.5-.2,2.4h0c0,.4,0,.7,0,1,0,.5.1.9.2,1.3,0,.5.2,1,.4,1.4h1.6c-.2-.5-.4-1.1-.5-1.7,0-.4-.1-.7-.2-1.2,0-.3,0-.5,0-.8h0c0-.9,0-1.5.1-2.1.3-1.4,1-2.4,2-3.3,1-.9,2.3-1.3,3.7-1.4.5,0,1,0,1.5.1.8.2,1.6.5,2.3,1,.8.6,1.5,1.3,2.1,2.2,0,0,0,.1.1.2l.7,1.1.6-.9v-.2c.2,0,.2-.2.3-.3.6-.8,1.3-1.5,2.1-2.1,1-.6,2-1,3.1-1,.7,0,1.3,0,1.9.2,1.3.3,2.3,1,3.1,2,.9,1,1.3,2.3,1.4,3.7,0,.6,0,1.2,0,1.7,0,.5-.1.9-.2,1.3-.1.8-.4,1.6-.8,2.3-.4.8-1,1.6-1.7,2.4-.8.9-1.7,1.7-2.6,2.5-.4.4-.8.7-1.2,1l-1.1,1c-.4.3-.8.7-1.2,1-.6.5-1.2,1-1.8,1.6-.5.5-1.1,1-1.6,1.5l-.4.4c-.2-.2-.4-.4-.6-.6-.3-.3-1-.9-1.9-1.7-2-1.8-4.8-4.3-5.5-5-.3-.3-.8-.2-1,0s-.2.8,0,1c.7.6,3.4,3.1,5.5,4.9.9.8,1.6,1.4,1.9,1.7.2.2.5.4.7.7,0,0,.2.2.3.3.2.3.5.3.6.3h0c.5,0,.7-.4.9-.5,0,0,0,0,0,0l.4-.4c.5-.5,1-1,1.6-1.4.6-.5,1.2-1.1,1.8-1.6l1.2-1,1.1-1c.4-.4.8-.7,1.2-1,.9-.8,1.8-1.6,2.7-2.6.8-.9,1.5-1.8,2-2.8.4-.9.8-1.8.9-2.7,0-.5.2-1,.2-1.5,0-.7,0-1.3,0-2h0Z"/>
  </g>
</svg>