<svg id="Layer_1" data-name="Layer 1" xmlns="http://www.w3.org/2000/svg" viewBox="0 0 46.4 40.7"><defs><style>.cls-1{fill:#dfeefa;}.cls-2{fill:#fff;}</style></defs><path class="cls-1" d="M23.2,5.4a15,15,0,1,0,15,15A15,15,0,0,0,23.2,5.4Zm0,28.8A13.8,13.8,0,1,1,37,20.4,13.8,13.8,0,0,1,23.2,34.2Z"/><path class="cls-2" d="M19.6,21.6l1-1.9.7,4.6c.1.2.2.4.5.4h0c.2,0,.3-.1.4-.3l1.1-3.3.4.6.4.2h3.7a.5.5,0,0,0,.5-.5.5.5,0,0,0-.5-.4H24.3l-.8-1.1-.4-.2-.4.3-.8,2.4-.6-4.2a.4.4,0,0,0-.4-.3c-.1-.1-.3,0-.4.2L18.9,21H12.3a.5.5,0,0,0-.5.4.5.5,0,0,0,.5.5h6.9C19.4,21.9,19.5,21.8,19.6,21.6Z"/><path class="cls-2" d="M31.8,18a3.9,3.9,0,0,0-1-2.7,5.1,5.1,0,0,0-2.3-1.5,3.8,3.8,0,0,0-1.5-.1,4.8,4.8,0,0,0-2.3.7l-1.3,1.3a6.8,6.8,0,0,0-1.2-1.2,5.8,5.8,0,0,0-1.8-.8H19.3a4.5,4.5,0,0,0-2.7,1,4.1,4.1,0,0,0-1.5,2.5,3.2,3.2,0,0,0-.1,1.4h0v.5c0,.3.1.5.1.8s.1.6.2.8h1a1.7,1.7,0,0,1-.3-1,1.5,1.5,0,0,1-.1-.7v-.5h0a4.7,4.7,0,0,1,0-1.2,3.1,3.1,0,0,1,1.3-2,4,4,0,0,1,2.2-.9h.9a4.2,4.2,0,0,1,1.4.6,3.7,3.7,0,0,1,1.2,1.3H23l.4.7.4-.6h0l.2-.2a3.4,3.4,0,0,1,1.2-1.2,4.4,4.4,0,0,1,1.9-.7l1.1.2a3.5,3.5,0,0,1,1.9,1.2,4,4,0,0,1,.9,2.2,3.4,3.4,0,0,1-.1,1,1.9,1.9,0,0,1-.1.8,3.4,3.4,0,0,1-.5,1.4,6.5,6.5,0,0,1-1,1.5l-1.6,1.5-.7.6-.6.6-.8.6-1,.9-1,.9-.2.2-.4-.3-1.1-1.1-3.3-2.9a.4.4,0,0,0-.6,0,.5.5,0,0,0,0,.6l3.3,3,1.1,1,.5.4c0,.1.1.1.1.2l.4.2h0c.3,0,.4-.2.5-.4H24l.2-.2,1-.9,1-1,.7-.6.7-.5.7-.7,1.6-1.5a8.8,8.8,0,0,0,1.2-1.7,5.2,5.2,0,0,0,.6-1.6c0-.3.1-.6.1-.9A4.8,4.8,0,0,0,31.8,18Z"/></svg>