<svg width="20" height="28" viewBox="0 0 20 28" fill="none" xmlns="http://www.w3.org/2000/svg">
<g clip-path="url(#clip0_8_66)">
<path d="M1.5 3.5C2.32843 3.5 3 2.82843 3 2C3 1.17157 2.32843 0.5 1.5 0.5C0.671573 0.5 0 1.17157 0 2C0 2.82843 0.671573 3.5 1.5 3.5Z" fill="#92CCED"/>
<path d="M9.5 3.5C10.3284 3.5 11 2.82843 11 2C11 1.17157 10.3284 0.5 9.5 0.5C8.67157 0.5 8 1.17157 8 2C8 2.82843 8.67157 3.5 9.5 3.5Z" fill="#92CCED"/>
<path d="M17.5 3.5C18.3284 3.5 19 2.82843 19 2C19 1.17157 18.3284 0.5 17.5 0.5C16.6716 0.5 16 1.17157 16 2C16 2.82843 16.6716 3.5 17.5 3.5Z" fill="#92CCED"/>
<path d="M1.5 11.5C2.32843 11.5 3 10.8284 3 10C3 9.17157 2.32843 8.5 1.5 8.5C0.671573 8.5 0 9.17157 0 10C0 10.8284 0.671573 11.5 1.5 11.5Z" fill="#92CCED"/>
<path d="M9.5 11.5C10.3284 11.5 11 10.8284 11 10C11 9.17157 10.3284 8.5 9.5 8.5C8.67157 8.5 8 9.17157 8 10C8 10.8284 8.67157 11.5 9.5 11.5Z" fill="#92CCED"/>
<path d="M17.5 11.5C18.3284 11.5 19 10.8284 19 10C19 9.17157 18.3284 8.5 17.5 8.5C16.6716 8.5 16 9.17157 16 10C16 10.8284 16.6716 11.5 17.5 11.5Z" fill="#92CCED"/>
<path d="M1.5 19.5C2.32843 19.5 3 18.8284 3 18C3 17.1716 2.32843 16.5 1.5 16.5C0.671573 16.5 0 17.1716 0 18C0 18.8284 0.671573 19.5 1.5 19.5Z" fill="#92CCED"/>
<path d="M9.5 19.5C10.3284 19.5 11 18.8284 11 18C11 17.1716 10.3284 16.5 9.5 16.5C8.67157 16.5 8 17.1716 8 18C8 18.8284 8.67157 19.5 9.5 19.5Z" fill="#92CCED"/>
<path d="M17.5 19.5C18.3284 19.5 19 18.8284 19 18C19 17.1716 18.3284 16.5 17.5 16.5C16.6716 16.5 16 17.1716 16 18C16 18.8284 16.6716 19.5 17.5 19.5Z" fill="#92CCED"/>
<path d="M1.5 27.5C2.32843 27.5 3 26.8284 3 26C3 25.1716 2.32843 24.5 1.5 24.5C0.671573 24.5 0 25.1716 0 26C0 26.8284 0.671573 27.5 1.5 27.5Z" fill="#92CCED"/>
<path d="M9.5 27.5C10.3284 27.5 11 26.8284 11 26C11 25.1716 10.3284 24.5 9.5 24.5C8.67157 24.5 8 25.1716 8 26C8 26.8284 8.67157 27.5 9.5 27.5Z" fill="#92CCED"/>
<path d="M17.5 27.5C18.3284 27.5 19 26.8284 19 26C19 25.1716 18.3284 24.5 17.5 24.5C16.6716 24.5 16 25.1716 16 26C16 26.8284 16.6716 27.5 17.5 27.5Z" fill="#92CCED"/>
</g>
<defs>
<clipPath id="clip0_8_66">
<rect width="20" height="27" fill="white" transform="translate(0 0.5)"/>
</clipPath>
</defs>
</svg>
