<svg width="134" height="32" viewBox="0 0 134 32" fill="none" xmlns="http://www.w3.org/2000/svg">
<path opacity="0.54" d="M124.37 16.0796C124.041 15.4492 123.271 13.9782 122.391 14.0833C121.622 14.1883 121.402 15.134 121.182 15.8695C121.072 17.0253 120.852 18.3913 120.742 18.8115C120.632 18.6014 120.412 17.971 120.082 16.2898V16.0796H108.537C108.317 15.5543 107.877 14.6086 107.217 14.5036C106.558 14.3985 106.118 15.2391 106.008 15.4492C105.788 15.8695 105.678 16.2898 105.568 16.9202C105.238 19.0217 104.798 19.9673 104.688 20.0724C104.688 20.0724 104.468 19.9673 104.029 18.4963C103.919 17.971 103.809 17.3405 103.699 16.605C103.369 12.5072 102.709 12.4021 102.489 12.297C102.049 12.1919 101.72 12.7173 101.5 13.1376C101.28 13.663 101.06 14.2934 100.95 14.9238L99.8503 22.4891C99.7403 23.5398 99.3005 24.5906 99.1905 24.6956C99.1905 24.6956 98.8606 24.4855 98.3109 22.4891L97.4312 8.40932C97.4312 7.88396 97.3213 7.46367 97.2113 7.04338C96.9914 6.09772 96.6616 5.7825 96.2217 5.67743C95.7819 5.67743 95.452 6.20279 95.2321 6.62308C95.0122 7.14845 94.7923 7.88396 94.7923 8.51439L94.0226 15.9746H90.8339L90.0642 25.3261C90.0642 25.9565 89.9542 26.4819 89.7343 27.0072C89.6244 27.2174 89.6244 27.4275 89.6244 27.5326C89.5144 27.3225 89.4045 26.7971 89.4045 25.9565L88.5248 15.8695H84.2365H83.7967C83.6867 15.0289 83.4669 14.2934 83.027 13.5579C83.3569 11.9818 83.3569 10.5108 83.2469 9.24991C83.027 6.41294 81.4877 3.89119 79.1786 2.31509C77.4193 1.15929 75.55 0.738999 73.5708 1.15929C69.6124 1.99987 66.6436 6.09772 65.764 7.35859C64.8843 5.99265 61.9155 1.99987 57.9571 1.15929C56.0878 0.738999 54.1087 1.15929 52.3494 2.31509C50.0403 3.89119 48.5009 6.41294 48.281 9.24991C48.0611 11.1412 48.281 13.5579 49.2706 15.8695H45.2022L44.3226 25.9565C44.2126 26.7971 44.1027 27.3225 44.1027 27.5326C44.1027 27.4275 43.9927 27.2174 43.9927 27.0072C43.8828 26.4819 43.7728 25.9565 43.6628 25.3261L42.8932 15.9746H39.7044L38.9347 8.51439C38.8248 7.77888 38.7149 7.14845 38.495 6.62308C38.275 6.20279 38.0551 5.57236 37.5053 5.67743C37.0655 5.67743 36.8456 6.09772 36.5157 7.04338C36.4057 7.46367 36.2958 7.88396 36.2958 8.40932L35.3062 22.4891C34.8664 24.4855 34.5365 24.6956 34.5365 24.6956C34.3166 24.5906 33.9867 23.5398 33.7668 22.4891L32.6672 14.9238C32.5573 14.2934 32.3374 13.663 32.1175 13.1376C31.8976 12.7173 31.5677 12.1919 31.1279 12.297C30.798 12.297 30.2482 12.5072 29.9184 16.605C29.9184 17.3405 29.8084 17.971 29.5885 18.4963C29.2586 19.8623 29.0387 20.0724 29.0387 20.0724C28.8188 19.9673 28.489 19.0217 28.0492 16.9202C27.9392 16.3949 27.8292 15.8695 27.6093 15.4492C27.4994 15.2391 27.0596 14.3985 26.3998 14.5036C25.7401 14.6086 25.1903 15.5543 25.0803 16.0796H13.535V16.2898C13.2051 17.971 12.9852 18.6014 12.8752 18.8115C12.6553 18.3913 12.4354 17.0253 12.4354 15.7644C12.3255 15.0289 11.9956 14.0833 11.3359 13.9782C10.4562 13.8731 9.68655 15.3441 9.35668 15.9746H1V16.605H9.79646L9.90646 16.3949C10.3463 15.4492 11.006 14.5036 11.3359 14.5036C11.3359 14.5036 11.6657 14.6086 11.8856 15.7644C12.1056 19.3369 12.7653 19.442 12.9852 19.442C13.3151 19.442 13.7549 19.2318 14.3047 16.4999H25.74L25.85 16.2898C26.07 15.6594 26.3998 14.9238 26.7297 14.9238C26.8396 14.9238 27.0595 15.0289 27.2795 15.5543C27.4994 15.8695 27.6093 16.2898 27.7192 16.8152C28.379 20.3876 29.0387 20.3876 29.2586 20.3876C29.8084 20.3876 30.1383 19.8623 30.4681 18.3913C30.5781 17.7608 30.6881 17.1304 30.7981 16.3949C31.018 13.663 31.3478 12.7173 31.4578 12.7173C31.4578 12.7173 31.5677 12.8224 31.7876 13.2427C32.0075 13.768 32.2275 14.2934 32.2275 14.9238L33.327 22.4891C33.437 23.5398 33.8768 25.221 34.6465 25.221C35.1963 25.221 35.6361 24.4855 36.0759 22.4891L37.0655 8.40932C37.0655 7.98903 37.1754 7.56874 37.2854 7.14845C37.5053 6.41294 37.6153 6.30786 37.6153 6.30786C37.6153 6.30786 37.8352 6.41294 37.9452 6.9383C38.1651 7.46366 38.275 8.0941 38.385 8.72454L39.1547 16.7101H42.3434L43.113 25.5362C43.223 26.1666 43.2231 26.7971 43.443 27.3224C43.6629 28.058 43.8827 28.4783 44.2126 28.4783C44.5425 28.4783 44.8724 28.058 45.0923 26.1666L45.8619 16.605H49.6005C50.4801 18.4963 52.0195 20.2826 54.3286 21.9637L54.7684 22.2789C56.1978 23.3297 57.7372 24.3804 59.1666 25.5362L65.764 31L69.5024 27.9529L72.3613 30.2645L76.7596 26.692C77.6392 25.9565 78.6288 25.221 79.6184 24.5906L79.8383 24.3804C83.2469 21.9637 83.9066 18.9166 83.7967 16.605H87.9751L88.7447 26.1666C88.9646 28.058 89.1846 28.4783 89.6244 28.4783C89.9543 28.4783 90.1741 28.058 90.394 27.3224C90.504 26.7971 90.614 26.1666 90.724 25.5362L91.4936 16.7101H94.6823L95.452 8.72454C95.562 8.0941 95.6719 7.46366 95.8918 6.9383C96.1117 6.51801 96.2217 6.41294 96.2217 6.30786C96.2217 6.30786 96.4416 6.51801 96.6615 7.14845C96.7715 7.56874 96.8814 7.98903 96.8814 8.40932L97.8711 22.5942C98.3109 24.4855 98.7507 25.3261 99.3005 25.3261C100.07 25.3261 100.4 23.6449 100.62 22.5942L101.72 15.0289C101.829 14.3985 101.939 13.8731 102.159 13.3478C102.379 12.9275 102.489 12.8224 102.489 12.8224C102.709 12.9275 103.039 13.8731 103.259 16.4999C103.259 17.2354 103.369 17.8659 103.589 18.4963C103.919 19.9673 104.248 20.4927 104.798 20.4927C105.018 20.4927 105.678 20.4927 106.338 16.9202C106.448 16.3949 106.558 15.9746 106.777 15.6594C106.997 15.134 107.217 15.0289 107.327 15.0289C107.657 15.0289 107.987 15.7644 108.207 16.3949L108.317 16.605H119.752C120.302 19.3369 120.632 19.5471 121.072 19.5471C121.292 19.5471 121.841 19.5471 122.171 15.9746C122.391 14.7137 122.721 14.6086 122.831 14.6086C123.161 14.6086 123.821 15.5543 124.26 16.4999L124.37 16.7101H133.167V16.0796H124.37ZM65.654 30.0543L59.3866 25.0108C57.9571 23.855 56.4177 22.8043 54.8783 21.7536L54.4385 21.4384C49.0507 17.6557 48.281 12.8224 48.6108 9.35498C48.8307 6.72816 50.2602 4.31148 52.4593 2.84046C53.6688 1.99987 54.9883 1.57958 56.1978 1.57958C56.6376 1.57958 57.0775 1.57958 57.5173 1.68466C61.9155 2.63031 65.2142 7.98903 65.2142 8.0941L65.4341 8.51439L65.654 8.0941C65.654 7.98903 68.9527 2.63031 73.3509 1.68466C75.1102 1.26436 76.7596 1.68465 78.4089 2.73538C80.608 4.2064 82.0374 6.51801 82.2573 9.24991C82.3673 10.3006 82.3673 11.5615 82.1473 12.8224C81.7075 12.297 81.2677 11.8767 80.7179 11.4564C79.5084 10.6159 78.299 10.4057 76.9795 10.7209C74.4505 11.2463 72.5812 13.663 71.9215 14.7137C71.2617 13.768 69.3925 11.3514 66.8635 10.7209C65.5441 10.4057 64.3345 10.7209 63.125 11.4564C61.5856 12.5072 60.596 14.1883 60.3761 15.9746C60.1562 18.2862 60.706 21.6485 64.3346 24.1703L64.5544 24.3804C65.544 25.0108 66.5337 25.7464 67.4133 26.4819L68.4029 27.3224L65.654 30.0543ZM79.3985 23.855L79.1786 24.0652C78.189 24.6956 77.1994 25.4311 76.3197 26.1666L72.3613 29.4239L69.9423 27.4275L69.5024 27.0072L68.4029 26.1666C67.5232 25.4311 66.4237 24.6956 65.5441 24.0652L65.3241 23.855C61.9155 21.4384 61.3658 18.3913 61.5857 16.1847C61.6956 14.5036 62.6852 13.0325 64.0046 12.0869C64.7743 11.5615 65.544 11.3514 66.4237 11.3514C66.7536 11.3514 66.9734 11.3514 67.3033 11.4564C70.1622 12.0869 72.1414 15.4492 72.2513 15.5543L72.4713 15.9746L72.6912 15.5543C72.6912 15.5543 74.7803 12.0869 77.6392 11.4564C78.7387 11.2463 79.8383 11.4564 80.8279 12.1919C81.4877 12.6122 82.0374 13.2427 82.4773 13.8731C82.5872 14.1883 82.8071 14.3985 82.9171 14.7137C83.137 15.2391 83.2469 15.7644 83.3569 16.2898C83.2469 18.2862 82.8071 21.4384 79.3985 23.855Z" fill="white" stroke="#92CCED" stroke-miterlimit="10"/>
</svg>
