<?xml version="1.0" encoding="UTF-8"?>
<svg id="Layer_1" xmlns="http://www.w3.org/2000/svg" version="1.1" viewBox="0 0 50 50">
  <!-- Generator: Adobe Illustrator 29.0.1, SVG Export Plug-In . SVG Version: 2.1.0 Build 192)  -->
  <defs>
    <style>
      .st0 {
        fill: #fff;
      }
    </style>
  </defs>
  <path class="st0" d="M23.3,29.7v-.5c0-1.8.5-3.4,3.1-5.7,1.9-1.7,2.2-3,2.2-4.3s-1-3.4-3.5-3.4-3.6,1.5-3.9,3.8h-2.9c.1-2,1.5-6.2,6.9-6.2,4.8,0,6.4,3.4,6.4,5.9s-.8,3.8-3.2,6c-1.7,1.5-2.2,2.7-2.2,4.2v.3h-3,0ZM23.3,36.7v-4.6h3v4.6h-3Z"/>
  <path class="st0" d="M25,2c12.7,0,23,10.3,23,23s-10.3,23-23,23S2,37.7,2,25,12.3,2,25,2M25,0C11.2,0,0,11.2,0,25s11.2,25,25,25,25-11.2,25-25S38.8,0,25,0h0Z"/>
</svg>