<svg id="Layer_1" data-name="Layer 1" xmlns="http://www.w3.org/2000/svg" viewBox="0 0 46.4 40.7"><defs><style>.cls-1{fill:#dfeefa;}</style></defs><path class="cls-1" d="M39.2,19.1l-.5-2.6a1.4,1.4,0,0,0-1.4-1.2H35.4a11,11,0,0,0-1.5-2.6l.9-1.7a1.4,1.4,0,0,0-.3-1.8L32.4,7.5a1.3,1.3,0,0,0-1.8,0L29.1,8.7a9.4,9.4,0,0,0-2.8-1L26,5.8a1.6,1.6,0,0,0-1.5-1.2H21.8a1.4,1.4,0,0,0-1.4,1.2l-.3,1.9a9.4,9.4,0,0,0-2.8,1L15.8,7.5a1.4,1.4,0,0,0-1.9,0l-2,1.7a1.4,1.4,0,0,0-.4,1.8l1,1.7A11,11,0,0,0,11,15.3H9.1a1.4,1.4,0,0,0-1.4,1.2l-.5,2.6a1.5,1.5,0,0,0,.9,1.6l1.8.7a13.5,13.5,0,0,0,.5,2.9L9,25.6a1.3,1.3,0,0,0-.3,1.8L10,29.7a1.6,1.6,0,0,0,1.3.8h.4l1.8-.7a14.3,14.3,0,0,0,2.3,2l-.3,1.8a1.5,1.5,0,0,0,.9,1.6l2.6,1h.5a1.3,1.3,0,0,0,1.2-.8l1-1.6h3l.9,1.6a1.6,1.6,0,0,0,1.3.8h.5l2.5-1a1.4,1.4,0,0,0,1-1.6l-.4-1.8a14.3,14.3,0,0,0,2.3-2l1.8.7h.5a1.3,1.3,0,0,0,1.2-.8l1.4-2.3a1.4,1.4,0,0,0-.3-1.8l-1.5-1.3a9.3,9.3,0,0,0,.5-2.9l1.8-.7A1.4,1.4,0,0,0,39.2,19.1ZM38,20l-2.1.8c-.1,0-.2.2-.2.3h0a12.8,12.8,0,0,1-.6,3.3h0c.1,0,.1,0,.1.1h0l1.7,1.4a.6.6,0,0,1,.1.8l-1.3,2.4c-.2.2-.5.4-.8.2l-2.1-.7h-.4a10,10,0,0,1-2.5,2.1h0c-.1.1-.1.1-.1.2h-.1l.4,2.2a.7.7,0,0,1-.4.7l-2.6.9a.7.7,0,0,1-.8-.3l-1.1-1.8h-.4a18.2,18.2,0,0,1-3.3,0h-.1l-.3.2h0L20,35a.5.5,0,0,1-.7.3l-2.6-.9a.6.6,0,0,1-.4-.7l.3-2.2h0c.1,0,.1-.1,0-.1h0c0-.1-.1-.1-.1-.2h0A12.6,12.6,0,0,1,13.9,29h-.4l-2,.7c-.3.2-.6,0-.8-.2L9.3,27a.6.6,0,0,1,.2-.8l1.6-1.4h.1a.1.1,0,1,0,0-.2h0a12.6,12.6,0,0,1-.5-3.3h0a.1.1,0,0,0-.1-.1h-.2l-2-.8a.6.6,0,0,1-.4-.7l.4-2.7a.8.8,0,0,1,.7-.5h2.5a12.2,12.2,0,0,1,1.7-2.9h0l-1.1-1.9a.7.7,0,0,1,.2-.8l2-1.7a.7.7,0,0,1,.9,0L17,9.4h.4a11.5,11.5,0,0,1,3.1-1.1h.2V8h0l.4-2.1a.6.6,0,0,1,.6-.5h2.7a.7.7,0,0,1,.7.5L25.6,8h.3A11.5,11.5,0,0,1,29,9.5h.4l1.7-1.3a.6.6,0,0,1,.8,0L34,9.8a.6.6,0,0,1,.1.8l-1,1.9h0a16.9,16.9,0,0,1,1.7,2.9h2.5a.6.6,0,0,1,.6.5l.5,2.7A.7.7,0,0,1,38,20Z"/><path class="cls-1" d="M23.2,10.9a9.6,9.6,0,1,0,9.5,9.6A9.6,9.6,0,0,0,23.2,10.9Zm0,18.4A8.8,8.8,0,1,1,32,20.5,8.8,8.8,0,0,1,23.2,29.3Z"/><path class="cls-1" d="M26.1,16.6,21.7,21l-1.5-1.5a1.5,1.5,0,0,0-2,0,1.6,1.6,0,0,0-.5,1.1,1.6,1.6,0,0,0,.5,1l2.5,2.5a1.4,1.4,0,0,0,1,.5,1.6,1.6,0,0,0,1.1-.5l5.4-5.4a1.4,1.4,0,0,0,.4-1,1.5,1.5,0,0,0-.4-1.1A1.7,1.7,0,0,0,26.1,16.6Zm1.5,1.5-5.4,5.5a.9.9,0,0,1-1,0L18.7,21l-.2-.4a.8.8,0,0,1,.2-.5c.1-.2.3-.2.5-.2a.6.6,0,0,1,.5.2l1.8,1.7a.3.3,0,0,0,.5,0l4.7-4.6a.6.6,0,0,1,.9,0c.2.1.2.3.2.5A.4.4,0,0,1,27.6,18.1Z"/></svg>