<?xml version="1.0" encoding="UTF-8"?>
<svg id="Layer_1" xmlns="http://www.w3.org/2000/svg" version="1.1" viewBox="0 0 50 50">
  <!-- Generator: Adobe Illustrator 29.0.1, SVG Export Plug-In . SVG Version: 2.1.0 Build 192)  -->
  <defs>
    <style>
      .st0 {
        fill: #fff;
      }
    </style>
  </defs>
  <path class="st0" d="M49.3,18.8c-.2-1.2-1.3-2.1-2.5-2.1h-2.7c-.6-1.3-1.3-2.6-2.2-3.7l1.4-2.4c.6-1.1.4-2.4-.6-3.2l-3.2-2.7c-.5-.4-1-.6-1.6-.6s-1.2.2-1.6.6l-2.1,1.8c-1.3-.6-2.6-1.1-4-1.5l-.5-2.7c-.2-1.2-1.3-2.1-2.5-2.1h-4.2c-1.2,0-2.3.9-2.5,2.1l-.5,2.7c-1.4.3-2.7.8-4,1.5l-2.1-1.8c-.4-.4-1-.6-1.6-.6s-1.2.2-1.6.6l-3.2,2.7c-.9.8-1.2,2.1-.6,3.2l1.4,2.4c-.8,1.2-1.6,2.4-2.2,3.7h-2.7c-1.2,0-2.3.9-2.5,2.1L0,23c-.2,1.2.5,2.4,1.6,2.8l2.6,1c0,1.4.3,2.8.7,4.3l-2.1,1.8c-.9.8-1.2,2.1-.5,3.2l2.1,3.6c.4.8,1.3,1.3,2.2,1.3s.6,0,.9-.1l2.6-.9c1,1,2.1,2,3.3,2.7l-.5,2.7c-.2,1.2.5,2.4,1.6,2.8l3.9,1.4c.3.1.6.2.9.2.9,0,1.7-.5,2.2-1.3l1.4-2.4c.7,0,1.4.1,2.1.1s1.4,0,2.1-.1l1.4,2.4c.4.8,1.3,1.3,2.2,1.3s.6,0,.9-.2l3.9-1.4c1.2-.4,1.8-1.6,1.6-2.8l-.5-2.7c1.2-.8,2.3-1.7,3.3-2.7l2.6.9c.3.1.6.1.9.1.9,0,1.7-.5,2.2-1.3l2.1-3.6c.6-1.1.4-2.4-.5-3.2l-2.1-1.8c.4-1.4.6-2.8.7-4.3l2.6-1c1.2-.4,1.8-1.6,1.6-2.8l-.7-4.1h0ZM44,26.1c0,1.7-.4,3.4-.9,5v.4h0v.3h0c0,.1,0,.2.2.3l2.5,2.2c.3.2.3.6.2.9l-2.1,3.6c0,.2-.4.4-.6.4h-.2l-3.2-1.1h-.5v.3h0l-.2-.3s-.2.1-.3.2c-1.2,1.3-2.5,2.3-3.9,3.2,0,0-.2.1-.3.2h0v.3h0v.4l.6,3.3c0,.3,0,.7-.5.8l-3.9,1.4h-.2c-.2,0-.5-.1-.6-.3l-1.7-2.9h0c0-.1-.3-.3-.3-.3h-.6c-.8.1-1.6.2-2.5.2s-1.7,0-2.5-.2h-.2c-.3,0-.5.2-.7.4l-1.7,2.9c0,.2-.4.3-.6.3h-.2l-3.9-1.4c-.3-.1-.5-.4-.5-.8l.6-3.3v-.5h-.3l.2-.2c0-.1-.2-.2-.3-.2-1.4-.9-2.7-2-3.9-3.2h0c0-.1,0-.2,0-.2h-.7l-3.1,1.1h-.2c-.2,0-.5-.1-.6-.4l-2.1-3.6c-.2-.3,0-.7.2-.9l2.5-2.2s.2-.2.2-.3v-.2h-.3c0-.1.3-.1.3-.1v-.4c-.5-1.6-.8-3.2-.9-5v-.3s0-.2-.2-.3c0-.1-.2-.2-.3-.2l-3.1-1.2c-.3-.1-.5-.4-.4-.8l.7-4.1c0-.3.4-.6.7-.6h3.3c0,0,.2,0,.4-.1,0,0,0,0,.3-.2,0,0,0-.2.2-.3.6-1.6,1.5-3,2.5-4.5,0,0,0-.2,0-.3h-.3l.3-.2v-.2h0s0-.1,0-.2l-1.7-2.9c-.2-.3,0-.7.2-.9l3.2-2.7c0-.1.3-.2.5-.2s.3,0,.4.2l2.6,2.1h.2c0,.2.2.2.2.2h0c0,0,.3,0,.4-.1,1.5-.8,3.1-1.4,4.7-1.7,0,0,.2,0,.4-.2l.2-.2c0-.1,0-.2,0-.3l.6-3.3c0-.3.4-.6.7-.6h4.2c.3,0,.6.2.7.6l.6,3.4s0,.2.2.3c0,0,0,.1.3.2,0,0,0,0,.2.1,1.6.4,3.2.9,4.7,1.7h1c0-.1,2.6-2.2,2.6-2.2,0-.1.3-.2.5-.2s.3,0,.5.2l3.2,2.7c.3.2.3.6.2.9l-1.7,3v.7s0,.2,0,.3c1,1.3,1.9,2.8,2.5,4.5,0,0,0,.2.2.3,0,0,0,.1.3.2h3.6c.3,0,.6.3.7.6l.7,4.1c0,.3,0,.7-.5.8l-3.1,1.2c-.3.1-.6.4-.6.8h0v-.2Z"/>
  <path class="st0" d="M25,9.9c-8.3,0-15.1,6.9-15.1,15.3s6.8,15.3,15.1,15.3,15.1-6.9,15.1-15.3-6.8-15.3-15.1-15.3ZM25,38.6c-7.3,0-13.2-6-13.2-13.4s5.9-13.4,13.2-13.4,13.2,6,13.2,13.4-5.9,13.4-13.2,13.4Z"/>
  <path class="st0" d="M32.2,20.7c0,.3,0,.5-.3.7l-8.4,8.5c-.4.4-1.1.4-1.5,0l-3.9-3.9c-.2-.2-.3-.5-.3-.7s0-.6.3-.7c.2-.2.5-.3.7-.3s.5,0,.8.3l2.7,2.7c.2.2.6.2.9,0l7.2-7.3c.4-.4,1.1-.4,1.5,0s.3.5.3.8h0Z"/>
</svg>