<?xml version="1.0" encoding="UTF-8"?>
<svg id="Layer_1" xmlns="http://www.w3.org/2000/svg" version="1.1" viewBox="0 0 50 50">
  <!-- Generator: Adobe Illustrator 29.0.1, SVG Export Plug-In . SVG Version: 2.1.0 Build 192)  -->
  <defs>
    <style>
      .st0 {
        fill: #fff;
      }
    </style>
  </defs>
  <path class="st0" d="M25.1,50c-.6,0-1.2,0-1.8,0-1.6-.1-3.2-.4-4.7-.8-1.5-.4-3.1-1-4.5-1.7-1.5-.7-2.8-1.6-4.1-2.5-1.3-1-2.5-2.1-3.6-3.3-1.1-1.3-2.1-2.6-3-4.1-.9-1.5-1.6-3-2.1-4.6-.5-1.6-.9-3.2-1.1-4.8C0,26.5,0,24.9,0,23.3c.1-1.6.4-3.2.8-4.7.4-1.6,1-3.1,1.7-4.5.7-1.4,1.6-2.8,2.5-4.1,1-1.3,2.1-2.5,3.3-3.6,1.3-1.1,2.6-2.1,4.1-3,2.3-1.3,4.8-2.3,7.4-2.8,1.7-.3,3.4-.5,5.1-.5s1.7,0,2.6.1c2.5.3,5,.9,7.3,1.9,2.4,1,4.5,2.4,6.5,4.1.4.3.4,1,0,1.4,0,0-.2.2-.3.2-.1,0-.3.1-.5.1s-.5,0-.6-.2c-4.2-3.6-9.6-5.6-15.1-5.6s-8,1.1-11.5,3.1c-5.3,3.1-9.1,8.1-10.7,14-1.6,6-.8,12.2,2.3,17.5,4.1,7.1,11.8,11.5,20,11.5s8-1.1,11.5-3.1c8-4.6,12.4-13.5,11.4-22.6,0-.5.3-1,.9-1.1.6,0,1,.3,1.1.9.3,2.4.2,4.8-.2,7.1-.4,2.4-1.2,4.6-2.2,6.8-2.2,4.4-5.6,8.1-9.9,10.6-1.5.8-3,1.6-4.6,2.1-1.6.5-3.2.9-4.8,1.1-1,.1-2,.2-3.1.2h0Z"/>
  <polygon class="st0" points="24.6 15.4 33.5 14.7 46.6 13.5 38.9 24.1 33.8 31.4 32.9 25.3 19.7 32.8 16.3 27 29.6 19.4 24.6 15.4"/>
</svg>