<svg width="69" height="68" viewBox="0 0 69 68" fill="none" xmlns="http://www.w3.org/2000/svg">
<circle cx="34.5" cy="34" r="34" fill="#DFEEFA"/>
<path d="M53.0938 39.3125L36.0938 22.8438L31.3125 21.7812L12.1875 26.0312L15.9062 40.375L18.5625 43.5625L35.5625 57.9062L38.2188 55.25L50.4375 43.0312L52.5625 40.375L53.0938 39.3125Z" fill="white"/>
<path d="M66.3646 34C66.3646 25.1944 62.7981 17.2308 57.0272 11.4609C51.2667 5.70132 43.2915 2.125 34.4948 2.125C33.7981 2.125 33.1119 2.15619 32.4256 2.19777C24.4504 2.70719 17.2654 6.14836 11.952 11.4609C6.36827 17.0437 2.84336 24.6849 2.625 33.1475H5.56763C5.78599 25.5062 8.97816 18.5927 14.0316 13.5401C18.8147 8.76822 25.2614 5.64934 32.4152 5.13992C33.1015 5.08794 33.7877 5.06715 34.4844 5.06715C42.4701 5.06715 49.6966 8.30039 54.9372 13.5401C60.1778 18.7798 63.4116 26.0053 63.422 33.9896C63.422 35.9129 63.2348 37.7842 62.8709 39.6036C62.5797 39.9571 62.3302 40.1442 62.0598 40.2378C61.6855 40.3625 61.1552 40.3833 60.4066 40.3833H53.3255C53.2424 40.1442 53.1384 39.9363 53.0448 39.7284C55.9042 35.8401 58.379 31.2346 58.379 26.5043C58.379 13.2802 42.0645 14.7565 36.0441 23.1359L36.4496 29.7791L37.2815 43.575L37.3438 44.5418L37.3646 44.8537C37.4478 44.074 37.531 43.2943 37.6142 42.5146C37.6558 40.8304 39.0075 40.3625 40.4736 40.3521C40.5464 40.3521 40.6192 40.3521 40.692 40.3521C40.9935 40.3521 41.3055 40.3625 41.607 40.3833C42.0333 40.4041 42.4597 40.4249 42.8756 40.4249C43.3851 39.0318 44.1857 38.2313 45.2567 37.7946C46.047 37.4724 46.9932 37.358 48.0746 37.358C49.2703 37.358 50.2581 37.5243 51.0588 37.9506C51.8178 38.3664 52.4209 39.0214 52.8576 40.0195C52.6809 40.2482 52.5145 40.4769 52.3377 40.7056C52.3377 40.7056 52.3273 40.7264 52.3169 40.7368C51.9738 41.1734 51.6307 41.5997 51.2979 42.0155C51.2771 42.0467 51.2459 42.0779 51.2252 42.1091C51.1108 42.2547 50.986 42.3898 50.8716 42.5354C50.8196 42.5873 50.778 42.6497 50.726 42.7121C50.778 42.6601 50.8196 42.5977 50.8716 42.5354C51.2459 43.1487 51.7762 43.5334 52.7121 43.5334C56.8401 43.5334 60.8537 43.5022 64.9089 43.5022C65.8551 40.4873 66.375 37.3476 66.375 34.0104L66.3646 34ZM48.2201 21.1918C48.7608 21.9715 49.2391 22.7824 49.6551 23.6245C49.8318 23.9884 49.9982 24.3523 50.1542 24.7265C49.9878 24.8305 49.8214 24.9448 49.6551 25.0488C49.3743 25.2359 49.0936 25.4231 48.8128 25.6206C48.3761 25.9221 47.9498 26.234 47.5235 26.5563C47.2115 25.5582 46.7436 24.6018 46.1405 23.6765L48.2201 21.1918ZM50.778 33.0331L49.6551 32.8876L49.0832 32.8148C48.5113 32.7421 47.9498 32.6693 47.3779 32.5965C47.5339 32.1599 47.6586 31.7232 47.7522 31.2762C47.7522 31.2762 47.7522 31.2762 47.7418 31.2762C47.7418 31.2762 47.7418 31.2762 47.7522 31.2762C47.981 30.2054 48.0122 29.1345 47.877 28.0949C48.3137 27.7414 48.7608 27.3984 49.2183 27.0657C49.3639 26.9617 49.5095 26.8578 49.6551 26.7538C49.9774 26.5251 50.2997 26.3068 50.6325 26.0884C50.9548 27.2008 51.1524 28.3548 51.1836 29.5192C51.2044 30.6836 51.0588 31.8688 50.778 33.0435V33.0331ZM51.5163 23.926C51.1836 23.2191 50.8092 22.5225 50.3829 21.8467C50.1542 21.4725 49.9046 21.1086 49.6551 20.7447C49.4887 20.516 49.3223 20.2873 49.156 20.069L49.6551 19.466L50.4349 18.5303C51.0068 19.1437 51.5475 19.7883 52.0466 20.4536C52.6289 21.223 53.1592 22.0339 53.6167 22.8656C52.8992 23.1775 52.2026 23.5309 51.5163 23.9156V23.926ZM52.2026 33.2307C52.2234 33.1787 52.2338 33.1163 52.2545 33.0643C52.6289 31.7336 52.816 30.3925 52.7848 29.0826C52.7433 27.7726 52.4729 26.4835 52.0466 25.2359C52.7433 24.8305 53.4711 24.4562 54.2198 24.1235C54.7605 25.3919 55.1348 26.7122 55.2284 28.0637C55.322 29.4048 55.1348 30.7875 54.7397 32.1599C54.7397 32.1599 54.7397 32.1599 54.7501 32.1599C54.7501 32.1599 54.7501 32.1599 54.7397 32.1599C54.5941 32.6173 54.4277 33.0643 54.251 33.501C53.5751 33.4074 52.8888 33.3138 52.2026 33.2203V33.2307Z" fill="#2F8EDD"/>
<path d="M35.2851 57.8283L33.5694 30.2158V30.3197L32.9039 37.9506L32.4152 43.6374L32.2697 45.2904C32.1865 46.2364 31.5522 46.9226 30.5644 46.8602H30.5436C29.3374 46.7562 29.0775 45.5191 28.8695 44.5522C28.7967 44.2091 28.7343 43.8661 28.6616 43.523C28.5472 43.523 28.4328 43.523 28.3184 43.523C28.1625 43.523 28.0065 43.523 27.8609 43.523C27.7673 43.523 27.6737 43.523 27.5802 43.523C26.3532 43.523 25.7085 42.5977 25.3342 41.5373C25.2926 41.4333 25.2614 41.3294 25.2302 41.215C24.2736 42.7641 22.8179 43.523 20.6655 43.523C20.6655 43.523 20.6551 43.523 20.6447 43.523H18.378H18.3676C23.109 48.9914 28.7655 53.9816 34.1933 58.7951C34.5468 58.4832 34.9107 58.161 35.2643 57.8387L35.4202 60.1155V60.1362C35.5138 62.1115 38.1861 62.0492 38.2381 60.0739C38.2485 59.9907 38.2589 59.8971 38.2693 59.814L39.0179 54.4807C43.1251 50.7588 47.1804 46.8914 50.6845 42.7329C50.4557 42.421 50.279 42.0259 50.123 41.5789C49.7591 40.5185 49.1352 40.4665 48.1162 40.4561C48.0954 40.4561 48.0746 40.4561 48.0642 40.4561C46.9828 40.4561 46.1302 40.4561 45.7558 41.6205C45.4023 42.7121 44.9136 43.471 43.6554 43.523C43.4995 43.523 43.3539 43.523 43.1979 43.523C42.6156 43.523 42.0438 43.5126 41.4615 43.4814C41.2847 43.4814 41.1183 43.471 40.9416 43.4606C40.8376 43.4606 40.7336 43.4606 40.6192 43.4606L40.5984 43.6166L39.1843 53.2955L39.0283 54.3767L36.0753 57.1213C35.9921 57.1941 35.9193 57.2669 35.8362 57.3293L35.2851 57.8179V57.8283Z" fill="#2F8EDD"/>
<path d="M54.9475 54.4599C49.7069 59.6996 42.4803 62.9329 34.4946 62.9433C33.798 62.9433 33.1117 62.9225 32.4254 62.8705C25.2716 62.3611 18.8249 59.2422 14.0418 54.4599C11.3695 51.7881 9.21716 48.5964 7.75105 45.0513C7.11677 43.5022 9.12358 43.5126 10.0802 43.5126H18.3778C18.1386 43.2423 17.8995 42.9616 17.6707 42.6913C17.5251 42.525 17.39 42.3482 17.2444 42.1819C17.2132 42.1507 17.1924 42.1195 17.1612 42.0883C17.026 41.9324 16.9013 41.766 16.7661 41.6101C16.7661 41.5997 16.7453 41.5893 16.7349 41.5685C16.4334 41.1942 16.1318 40.8096 15.8303 40.4145H18.5234H20.6445C22.6202 40.4145 22.9841 39.0006 23.3376 37.3372C23.608 36.0585 23.9927 34.5926 25.6356 34.6966C27.2161 34.7901 27.6008 36.5887 27.7983 37.9506C27.8295 38.1481 27.8503 38.3353 27.8815 38.5016C27.9543 39.0214 28.0479 39.8219 28.1935 40.4041C28.2247 40.4041 28.2559 40.4041 28.2871 40.4041C28.3598 40.4041 28.4326 40.4041 28.5158 40.4041C28.8693 40.4041 29.2125 40.4041 29.566 40.4041L30.9177 27.2632L31.448 22.0547C31.448 22.0547 31.4584 22.0651 31.4688 22.0755C31.7704 22.4186 32.0615 22.772 32.3319 23.1359C32.3319 23.1359 32.3319 23.1463 32.3423 23.1567C32.4566 23.323 32.571 23.4894 32.6854 23.6557C32.7062 23.6973 32.7374 23.7285 32.7582 23.7701C32.8726 23.9468 32.9869 24.1339 33.0909 24.3211L34.1931 26.286L35.2953 24.3211C35.3993 24.1339 35.5136 23.9468 35.628 23.7701C35.6488 23.7389 35.6696 23.7077 35.6904 23.6765C35.8048 23.5102 35.9192 23.3334 36.0335 23.1671L35.2433 10.4732C35.2433 9.68311 34.9106 9.01775 34.1099 8.95537C33.2573 8.8826 32.7998 9.52717 32.727 10.3797L31.4792 22.0651C24.8973 14.6733 10.0074 13.8936 10.0074 26.5251C10.0074 31.5257 12.7629 36.3704 15.8199 40.4041C11.6191 40.4041 7.42871 40.3833 3.24873 40.3833C4.51728 46.6211 7.60548 52.2039 11.9414 56.5392C17.2548 61.8517 24.4294 65.2928 32.4151 65.8022C33.1013 65.8438 33.7876 65.8646 34.4842 65.8646C43.2913 65.8646 51.2562 62.2883 57.0271 56.5288C58.7531 54.803 60.2816 52.8797 61.5814 50.79H58.0357C57.0998 52.0895 56.0704 53.3163 54.9371 54.4391L54.9475 54.4599Z" fill="#2F8EDD"/>
</svg>
