<?xml version="1.0" encoding="UTF-8"?>
<svg id="Layer_1" xmlns="http://www.w3.org/2000/svg" version="1.1" viewBox="0 0 978.4 231">
  <!-- Generator: Adobe Illustrator 29.0.1, SVG Export Plug-In . SVG Version: 2.1.0 Build 192)  -->
  <defs>
    <style>
      .st0 {
        fill: #fff;
      }

      .st1 {
        fill: none;
      }
    </style>
  </defs>
  <path class="st1" d="M476.3,181.9l-1.9-1.4c-27.2-19.8-31-45.6-29.3-63.8,1.3-14.5,8.6-27.4,20-35.3,8.8-6.1,18-8.2,27.4-6,18.4,4.2,32.3,22.9,37.3,30.6,5-7.6,18.9-26.4,37.3-30.6,9.4-2.1,18.7-.1,27.4,6,4.2,2.9,7.8,6.5,10.8,10.6,1.6-9.8,1.6-19.2.8-27.5-1.9-20.7-12.3-39.1-28.5-50.4-12.2-8.5-24.9-11.3-37.8-8.4-32.7,7.4-56.8,49.1-57,49.5l-2,3.5-2-3.5c-.2-.4-24.3-42.1-57-49.5-3.3-.7-6.6-1.1-9.8-1.1-9.6,0-18.9,3.2-28,9.5-16.2,11.3-26.6,29.7-28.5,50.4-2.5,26.7,3,64.5,42.9,93.6l3,2.2c11.1,8,22.5,16.3,33.1,25.4l46.3,39.5,24.1-20.6-7.4-6.3c-6.7-5.8-14.1-11.1-21.2-16.2Z"/>
  <path class="st1" d="M607.2,104.9c-.9-2.3-1.9-4.4-3.1-6.5-3.1-5.2-7.1-9.8-12.1-13.3-7.7-5.4-15.7-7.1-23.8-5.3-20.8,4.7-36.2,31.3-36.3,31.6l-2,3.5-2-3.5c-.2-.3-15.5-26.9-36.3-31.6-2.1-.5-4.1-.7-6.1-.7-6,0-11.9,2-17.7,6-10.3,7.2-16.8,18.8-18.1,32-1.6,17,1.9,41.2,27.4,59.7l1.9,1.4c7.2,5.2,14.6,10.6,21.4,16.4l8,6.8,3.5,3,17.9,15.2,29.4-25.1c6.9-5.9,14.3-11.3,21.5-16.5l1.9-1.4c25.5-18.5,29-42.7,27.4-59.7-.4-4.3-1.4-8.3-2.9-12.2Z"/>
  <path class="st0" d="M916.1,116.4c-2.3-5.3-8.1-16.6-14.6-15.9-5.4.5-7.4,8.2-8.6,14.3-.6,9.1-2.1,19.6-3.6,23.2-.9-1.8-2.7-6.7-5-19.7l-.3-1.9h-85.4c-1.3-3.8-4.7-11.6-9.9-12-4.9-.4-7.8,5.5-8.8,7.4-1.6,3.2-2.7,6.9-3.4,11.2-2.8,16.4-5.8,23.4-6.8,24.1,0,0-2-1.2-4.5-12.2-1-4.5-1.7-9.3-2-14.8-2.2-31.8-7-32.7-9.1-33.1-3.6-.6-6,3.5-7.5,6.7-1.9,4.2-3.3,8.9-4,14.1l-8,58.8c-1.2,8.2-3.7,16.5-5,17.3-.3-.1-2.7-1.7-6.1-17.1l-7.3-109.5c-.3-3.9-.8-7.4-1.6-10.6-1.8-7-3.9-10.2-7-10.3-3.5-.2-5.6,3.9-7,7.6-1.8,4.5-2.9,9.5-3.5,15.1l-5.5,58.1h-23.8l-6,72.5c-.4,4.7-1.1,8.9-2.1,12.9-.5,1.8-.9,3.1-1.2,4-.5-1.9-1.2-5.4-2-12.1l-6.4-78.5h-35.5c-.7-6.4-2.6-12.5-5.5-18,2.5-12.1,2.7-23.6,1.8-33.7-2-22.1-13.1-41.6-30.4-53.7-13.3-9.3-27.2-12.3-41.5-9.1-29.5,6.7-51.5,38.1-58,48.4-6.5-10.4-28.5-41.8-58-48.4-14.2-3.2-28.2-.1-41.5,9.1-17.3,12.1-28.4,31.6-30.4,53.7-1.4,14.9-.3,33.3,7.4,51.7h-29.9l-6.4,78.4c-.7,6.7-1.4,10.3-2,12.2-.3-.9-.7-2.1-1.2-4-1-4-1.7-8.2-2.1-12.9l-6-72.5h-23.8l-5.5-58.1c-.5-5.5-1.7-10.6-3.5-15.1-1.4-3.6-3.5-7.9-7-7.6-3,.2-5.1,3.4-7,10.3-.8,3.3-1.4,6.7-1.6,10.6l-7.2,109.1c-3.4,15.8-5.9,17.3-5.8,17.4-1.6-.8-4.2-9-5.3-17.3l-8-58.8c-.7-5.2-2.1-10-4-14.1-1.5-3.2-3.9-7.4-7.5-6.7-2.1.4-6.9,1.3-9.1,33.1-.4,5.5-1,10.3-2,14.8-2.3,10.4-4.2,12-4.1,12.2-1.4-.8-4.4-7.8-7.2-24.1-.7-4.3-1.8-8-3.4-11.2-1-1.9-3.8-7.9-8.8-7.4-5.2.4-8.6,8.3-9.9,12h-85.4l-.3,1.9c-2.3,13-4.1,17.9-5,19.7-1.5-3.6-3-14.1-3.7-23.5-1.1-5.7-3.2-13.4-8.5-14-6.5-.7-12.3,10.6-14.6,15.9H0v4.6h65.4l.6-1.4c2.9-7.1,7.9-14.9,10.5-14.5.3,0,2.7.5,4.5,10,1.9,28,6.3,28.2,7.9,28.3,2.8.1,5.5-1.5,9.4-22.4h84.9l.5-1.6c1.4-4.8,4.4-10.2,6.4-10.4.9,0,2.4,1.2,4.3,4.9,1.4,2.8,2.4,6.1,3,9.9,4.7,27.7,9.4,27.8,11.4,27.9,3.9.3,6.3-4.5,8.8-15.8,1.1-4.7,1.8-9.8,2.1-15.5,1.5-21.2,4.2-28.2,5.1-28.9,0,0,1,.4,2.8,4.2,1.7,3.8,3,8.1,3.6,12.8l8,58.8c1.1,7.8,3.9,21,9.5,21.1,4.4.3,7.3-5.9,10.6-21.3l7.3-109.5c.2-3.6.7-6.8,1.5-9.8,1.4-5.5,2.7-6.7,2.7-6.9.2.2,1.2,1,2.7,4.7,1.6,4.1,2.7,8.7,3.2,13.8l5.9,62.2h23.8l5.7,68.3c.4,5,1.1,9.4,2.2,13.7,1.4,5.4,2.9,9.1,5.7,9.1s.2,0,.2,0c2.8-.2,4.6-3.1,6.2-17.9l6.1-74.3h27.8c6.9,14.4,18,28.7,35.4,41.4l3,2.2c11,8,22.4,16.2,32.8,25.2l49.2,42,27.6-23.6,21.4,18.2,32.3-27.6c6.8-5.8,14.1-11.1,21.2-16.3l1.9-1.4c25.4-18.5,30.4-42.2,29.5-60.1h31c0,0,6.1,74.2,6.1,74.2,1.6,14.8,3.4,17.7,6.2,17.9,0,0,.2,0,.2,0,2.8,0,4.3-3.6,5.7-9.1,1.1-4.2,1.8-8.7,2.2-13.7l5.7-68.3h23.8l5.9-62.2c.5-5.1,1.6-9.8,3.2-13.8,1.4-3.5,2.4-4.5,2.4-4.7.3.3,1.5,1.6,2.9,6.9.8,3,1.3,6.2,1.5,9.8l7.3,109.8c3.2,14.9,6.3,21,10.4,21s.1,0,.2,0c5.7-.2,8.4-13.3,9.5-21.2l8-58.8c.7-4.8,1.9-9.1,3.6-12.8,1.5-3.2,2.5-4,2.5-4.2,1.3,1,4,8.1,5.4,28.9.4,5.7,1.1,10.8,2.1,15.5,2.5,11.3,5.2,15.8,8.8,15.8,2,0,6.7-.2,11.4-27.9.6-3.8,1.6-7.1,3-9.9,1.8-3.7,3.4-5,4.3-4.9,2,.2,5,5.5,6.4,10.4l.5,1.6h84.9c3.9,20.9,6.7,22.6,9.4,22.4,1.7,0,6.1-.3,7.9-28,1.9-9.8,4.3-10.3,4.5-10.3,2.5-.3,7.6,7.4,10.5,14.5l.6,1.4h65.4v-4.6h-62.3ZM480.8,225l-46.3-39.5c-10.6-9.1-22.1-17.4-33.1-25.4l-3-2.2c-39.9-29-45.4-66.9-42.9-93.6,1.9-20.7,12.3-39.1,28.5-50.4,9.1-6.3,18.5-9.5,28-9.5s6.5.4,9.8,1.1c32.7,7.4,56.8,49.1,57,49.5l2,3.5,2-3.5c.2-.4,24.3-42.1,57-49.5,12.9-2.9,25.7,0,37.8,8.4,16.2,11.3,26.6,29.7,28.5,50.4.8,8.3.8,17.6-.8,27.5-3-4.1-6.6-7.7-10.8-10.6-8.8-6.1-18-8.2-27.4-6-18.4,4.2-32.3,22.9-37.3,30.6-5-7.6-18.9-26.4-37.3-30.6-9.4-2.1-18.7-.1-27.4,6-11.4,7.9-18.7,20.8-20,35.3-1.7,18.2,2.1,44.1,29.3,63.8l1.9,1.4c7.1,5.1,14.4,10.5,21.2,16.2l7.4,6.3-24.1,20.6ZM582.6,176.8l-1.9,1.4c-7.2,5.2-14.6,10.6-21.5,16.5l-29.4,25.1-17.9-15.2-3.5-3-8-6.8c-6.9-5.9-14.3-11.2-21.4-16.4l-1.9-1.4c-25.5-18.5-29-42.7-27.4-59.7,1.2-13.1,7.8-24.8,18.1-32,5.7-4,11.6-6,17.7-6s4.1.2,6.1.7c20.8,4.7,36.2,31.3,36.3,31.6l2,3.5,2-3.5c.2-.3,15.5-26.9,36.3-31.6,8.1-1.8,16.1,0,23.8,5.3,5,3.5,9.1,8,12.1,13.3,1.2,2.1,2.2,4.2,3.1,6.5,1.5,3.8,2.5,7.9,2.9,12.2,1.6,17-1.9,41.2-27.4,59.7Z"/>
</svg>