<svg id="Layer_1" data-name="Layer 1" xmlns="http://www.w3.org/2000/svg" viewBox="0 0 46.4 40.7"><defs><style>.cls-1{fill:#dfeefa;}.cls-2{fill:#fff;}</style></defs><path class="cls-1" d="M23.2,5.4A15.1,15.1,0,0,1,33.8,9.8a14.9,14.9,0,0,1,4.4,10.6,15,15,0,0,1-15,15A14.9,14.9,0,0,1,12.6,31,15.1,15.1,0,0,1,8.2,20.4a15,15,0,0,1,15-15Zm9.9,5a14,14,0,0,0-9.9-4.1,14.4,14.4,0,0,0-10,4.1,14.4,14.4,0,0,0-4.1,10,14,14,0,0,0,4.1,9.9,14.4,14.4,0,0,0,10,4.1,14,14,0,0,0,9.9-4.1,13.6,13.6,0,0,0,4.1-9.9,14,14,0,0,0-4.1-10Z"/><path class="cls-2" d="M18.6,13.6h9.1a3.3,3.3,0,0,1,2.4,1,3,3,0,0,1,1,2.4v5.7a3.4,3.4,0,0,1-3.4,3.5H23.4l-3.8,3.1c-.4.3-.8.4-1,.2a1.6,1.6,0,0,1-.3-1.1h0V26.1a3.4,3.4,0,0,1-2.2-.9,3.7,3.7,0,0,1-1-2.5V17a3.3,3.3,0,0,1,1-2.4,3.7,3.7,0,0,1,2.5-1Zm9.1.6H18.6a2.8,2.8,0,0,0-2,.8,2.5,2.5,0,0,0-.9,2v5.7a2.5,2.5,0,0,0,.9,2,2.5,2.5,0,0,0,2,.9c.1,0,.2.1.2.3v2.5h0a2.2,2.2,0,0,0,.1.6l.3-.2,3.9-3.1h4.6a2.5,2.5,0,0,0,2-.9,2.9,2.9,0,0,0,.9-2V17a2.9,2.9,0,0,0-.9-2,2.8,2.8,0,0,0-2-.8Z"/><path class="cls-2" d="M19.8,19.1a1.2,1.2,0,0,1,.8.4h0a.9.9,0,0,1,.3.7,1.1,1.1,0,0,1-.3.8h0a1.1,1.1,0,0,1-.8.3.9.9,0,0,1-.7-.3h0a1.2,1.2,0,0,1-.4-.8,1,1,0,0,1,.4-.7h0a1,1,0,0,1,.7-.4Zm.4.7h-.8v.4c0,.2.1.3.1.4h.8a.5.5,0,0,0,.2-.4.8.8,0,0,0-.2-.4Z"/><path class="cls-2" d="M23.2,19.1a1.2,1.2,0,0,1,.8.4.8.8,0,0,1,.3.7,1.1,1.1,0,0,1-.3.8h0a1.1,1.1,0,0,1-.8.3.9.9,0,0,1-.7-.3h0a1.1,1.1,0,0,1-.3-.8.9.9,0,0,1,.3-.7h0a1,1,0,0,1,.7-.4Zm.4.7h-.7l-.2.4a.5.5,0,0,0,.2.4h.7a.5.5,0,0,0,.2-.4l-.2-.4Z"/><path class="cls-2" d="M26.7,19.1a1.3,1.3,0,0,1,.7.4.8.8,0,0,1,.3.7,1.1,1.1,0,0,1-.3.8h0a1.1,1.1,0,0,1-.7.3,1.1,1.1,0,0,1-.8-.3h0a1.1,1.1,0,0,1-.3-.8.9.9,0,0,1,.3-.7h0a1.2,1.2,0,0,1,.8-.4Zm.3.7h-.7a.8.8,0,0,0-.2.4.5.5,0,0,0,.2.4H27a.5.5,0,0,0,.2-.4.8.8,0,0,0-.2-.4Z"/></svg>