<svg id="Layer_1" data-name="Layer 1" xmlns="http://www.w3.org/2000/svg" viewBox="0 0 46.4 40.7"><defs><style>.cls-1{fill:#fff;}.cls-2{fill:none;stroke:#fff;stroke-miterlimit:10;}</style></defs><path class="cls-1" d="M30.7,33.4a13.9,13.9,0,0,1-2.8,1.2l-2.9.7a14,14,0,0,1-2.9,0,13.5,13.5,0,0,1-2.8-.4l-2.7-1-2.5-1.6a10,10,0,0,1-2.1-2,10.8,10.8,0,0,1-1.8-2.4,23.9,23.9,0,0,1-1.3-2.8,13.6,13.6,0,0,1-.6-2.9,13.6,13.6,0,0,1,.4-5.7,14.8,14.8,0,0,1,1-2.7,12.8,12.8,0,0,1,1.5-2.5,13.4,13.4,0,0,1,2-2.1,14.4,14.4,0,0,1,2.5-1.8,14.9,14.9,0,0,1,4.4-1.7,14.2,14.2,0,0,1,4.6-.2,13.6,13.6,0,0,1,4.4,1.1A15.8,15.8,0,0,1,33,9a.5.5,0,0,1,0,.7c0,.1,0,.1-.1.1h-.6A14.1,14.1,0,0,0,16.2,8.2a14,14,0,1,0,14,24.3,14.1,14.1,0,0,0,6.9-13.7.7.7,0,0,1,.4-.6.6.6,0,0,1,.6.5A20.8,20.8,0,0,1,38,23a14.7,14.7,0,0,1-1.4,4A14.6,14.6,0,0,1,30.7,33.4Z"/><polygon class="cls-2" points="22.9 14.6 28.3 14.2 36.2 13.4 31.5 19.8 28.5 24.2 27.9 20.5 19.9 25.1 17.9 21.6 25.9 17 22.9 14.6"/></svg>