<svg id="Layer_1" data-name="Layer 1" xmlns="http://www.w3.org/2000/svg" viewBox="0 0 46.4 40.7"><defs><style>.cls-1{fill:#dfeefa;}</style></defs><path class="cls-1" d="M35.8,8.7h-2A18.3,18.3,0,0,1,23.2,5.4,18.3,18.3,0,0,1,12.6,8.8a4.4,4.4,0,0,1-2-.2h0a28.3,28.3,0,0,0-.5,5c0,10.2,5.5,18.9,13.1,21.8h0c7.5-2.9,13-11.6,13-21.8A27,27,0,0,0,35.8,8.7ZM23.2,33.9h0c-6.9-2.6-11.8-10.5-11.8-19.6a17.3,17.3,0,0,1,.5-4.5h0a5.1,5.1,0,0,0,1.8.1,17.2,17.2,0,0,0,9.5-3A16.8,16.8,0,0,0,32.7,10h1.8a21.2,21.2,0,0,1,.4,4.4C34.9,23.5,30,31.3,23.2,33.9Z"/><path class="cls-1" d="M27.4,18.1H27V17a3.9,3.9,0,0,0-4-3.7A3.8,3.8,0,0,0,19.1,17v1.1h-.4a.7.7,0,0,0-.7.7v7a.7.7,0,0,0,.7.7h8.7a.7.7,0,0,0,.7-.7v-7A.7.7,0,0,0,27.4,18.1Zm-3.8,4.3v1.1a.5.5,0,0,1-.5.5.6.6,0,0,1-.6-.5V22.4a1,1,0,0,1,.6-1.8,1,1,0,0,1,1,1A1,1,0,0,1,23.6,22.4Zm1.9-4.3h-5V17A2.4,2.4,0,0,1,23,14.7,2.4,2.4,0,0,1,25.5,17Z"/></svg>