<?xml version="1.0" encoding="UTF-8"?>
<svg id="Layer_1" xmlns="http://www.w3.org/2000/svg" version="1.1" viewBox="0 0 50 50">
  <!-- Generator: Adobe Illustrator 29.0.1, SVG Export Plug-In . SVG Version: 2.1.0 Build 192)  -->
  <defs>
    <style>
      .st0 {
        fill: #dfeefa;
      }
    </style>
  </defs>
  <path class="st0" d="M23.9,29.2v-.4c0-1.5.4-2.8,2.6-4.7,1.6-1.4,1.8-2.5,1.8-3.6s-.8-2.8-2.9-2.8-3,1.3-3.2,3.1h-2.4c0-1.7,1.2-5.1,5.7-5.1,4,0,5.3,2.8,5.3,4.9s-.6,3.2-2.6,5c-1.4,1.2-1.8,2.2-1.8,3.5v.2h-2.5,0ZM23.9,35v-3.8h2.5v3.8h-2.5Z"/>
  <path class="st0" d="M25.3,5.7c10.5,0,19,8.5,19,19s-8.5,19-19,19S6.3,35.2,6.3,24.7,14.8,5.7,25.3,5.7M25.3,4.1C13.9,4.1,4.7,13.4,4.7,24.7s9.3,20.6,20.6,20.6,20.6-9.3,20.6-20.6S36.7,4.1,25.3,4.1h0Z"/>
</svg>