<?xml version="1.0" encoding="UTF-8"?>
<svg id="Layer_1" xmlns="http://www.w3.org/2000/svg" version="1.1" viewBox="0 0 30 30">
  <!-- Generator: Adobe Illustrator 29.0.1, SVG Export Plug-In . SVG Version: 2.1.0 Build 192)  -->
  <defs>
    <style>
      .st0 {
        fill: #fff;
      }
    </style>
  </defs>
  <path class="st0" d="M27.6,3.3c-.7,0-1.3.1-2,.1C21.7,3.5,18.2,2.2,15,0c-3.2,2.2-6.7,3.4-10.6,3.4s-1.4.1-2-.2h0c-.4,1.7-.5,3.3-.5,5,0,10.2,5.5,18.9,13,21.8h0c7.6-2.9,13-11.5,13-21.7s0-3.4-.4-4.9ZM15,28.5h0c-6.8-2.6-11.7-10.4-11.7-19.6s.1-2.9.4-4.5h0c.5.3,1.2.2,1.8.2,3.5,0,6.7-1.1,9.5-3.1,2.9,2,6,3.1,9.5,3.1s1.2,0,1.8-.1c.3,1.4.4,2.9.4,4.4,0,9.2-4.9,17-11.7,19.6Z"/>
  <path class="st0" d="M19.2,12.8h-.4v-1.1c0-2-1.8-3.7-4-3.7s-4,1.7-4,3.7v1.1h-.3c-.4,0-.7.3-.7.6v7.1c0,.4.3.6.7.6h8.7c.4,0,.7-.3.7-.6v-7.1c0-.4-.3-.6-.7-.6ZM15.4,17v1.1c0,.3-.2.5-.5.5s-.5-.2-.5-.5v-1.1c-.3-.2-.5-.5-.5-.8,0-.5.5-1,1-1s1,.4,1,1-.2.7-.5.8ZM17.3,12.8h-5v-1.1c0-1.3,1.1-2.3,2.5-2.3s2.5,1,2.5,2.3v1.1Z"/>
</svg>