<?xml version="1.0" encoding="UTF-8"?>
<svg id="Layer_1" xmlns="http://www.w3.org/2000/svg" version="1.1" viewBox="0 0 50 50">
  <!-- Generator: Adobe Illustrator 29.0.1, SVG Export Plug-In . SVG Version: 2.1.0 Build 192)  -->
  <defs>
    <style>
      .st0 {
        fill: #fff;
      }
    </style>
  </defs>
  <path class="st0" d="M25,0C11.2,0,0,11.2,0,25s11.2,25,25,25,25-11.2,25-25S38.8,0,25,0ZM25,48c-12.7,0-23-10.3-23-23S12.3,2,25,2s23,10.3,23,23-10.3,23-23,23Z"/>
  <path class="st0" d="M29.4,25.3c2.3-1.5,3.9-4.1,3.9-7,0-4.6-3.7-8.3-8.3-8.3s-8.3,3.7-8.3,8.3,1.6,5.5,3.9,7c-5.8,1.9-10,7.3-10,13.7s.4,1,1,1,1-.4,1-1c0-6.8,5.6-12.4,12.4-12.4s12.4,5.6,12.4,12.4.4,1,1,1,1-.4,1-1c0-6.4-4.2-11.8-10-13.7h0ZM18.7,18.3c0-3.5,2.8-6.3,6.3-6.3s6.3,2.8,6.3,6.3-2.8,6.3-6.3,6.3-6.3-2.8-6.3-6.3Z"/>
</svg>