<svg width="36" height="36" id="Layer_1" data-name="Layer 1" xmlns="http://www.w3.org/2000/svg" viewBox="0 0 46.4 40.7"><defs><style>.cls-1{fill:#dfeefa;}</style></defs><path class="cls-1" d="M23.2,5.4a15,15,0,1,0,15,15A15,15,0,0,0,23.2,5.4Zm0,28.8A13.8,13.8,0,1,1,37,20.4,13.8,13.8,0,0,1,23.2,34.2Z"/><path class="cls-1" d="M25.8,20.5a4.9,4.9,0,0,0,2.4-4.2,5,5,0,0,0-5-4.9,4.9,4.9,0,0,0-5,4.9,4.8,4.8,0,0,0,2.3,4.2,8.9,8.9,0,0,0-6,8.3.6.6,0,0,0,.6.6.6.6,0,0,0,.6-.6,7.6,7.6,0,0,1,7.5-7.5,7.5,7.5,0,0,1,7.4,7.5.6.6,0,0,0,.6.6.6.6,0,0,0,.6-.6A8.7,8.7,0,0,0,25.8,20.5Zm-6.4-4.2a3.8,3.8,0,1,1,3.8,3.8A3.8,3.8,0,0,1,19.4,16.3Z"/></svg>