<svg id="Layer_1" data-name="Layer 1" xmlns="http://www.w3.org/2000/svg" viewBox="0 0 46.4 40.7"><defs><style>.cls-1{fill:#dfeefa;}.cls-2{fill:#fff;}</style></defs><path class="cls-1" d="M23.2,5.4A15.1,15.1,0,0,1,33.8,9.8a14.9,14.9,0,0,1,4.4,10.6,15,15,0,0,1-15,15A14.9,14.9,0,0,1,12.6,31,15.1,15.1,0,0,1,8.2,20.4a15,15,0,0,1,15-15Zm9.9,5a14,14,0,0,0-9.9-4.1,14.4,14.4,0,0,0-10,4.1,14.4,14.4,0,0,0-4.1,10,14,14,0,0,0,4.1,9.9,14.4,14.4,0,0,0,10,4.1,14,14,0,0,0,9.9-4.1,13.6,13.6,0,0,0,4.1-9.9,14,14,0,0,0-4.1-10Z"/><path class="cls-2" d="M22.1,23.6v-.3c0-1,.3-2,1.9-3.4a3.2,3.2,0,0,0,1.3-2.6,1.9,1.9,0,0,0-2.1-2,2.2,2.2,0,0,0-2.3,2.2H19.1a3.9,3.9,0,0,1,4.2-3.7c2.9,0,3.8,2,3.8,3.5s-.4,2.3-1.9,3.6a3.2,3.2,0,0,0-1.3,2.6H22.1Zm0,4.2V25.1h1.8v2.7Z"/></svg>