<svg width="20" height="31" viewBox="0 0 15 15" fill="none" xmlns="http://www.w3.org/2000/svg">
<path d="M8.73047 8.97314L10.9679 14.3739L11.6623 12.5994L13.3597 14.2967L14.0541 13.6795L12.2796 11.905L14.1312 11.2877L8.73047 8.97314Z" fill="#38AADF"/>
<path d="M7.95844 14.0654V11.5965C8.34421 11.5965 8.65284 11.5965 9.0386 11.5965L8.72997 10.825C8.49851 10.825 8.1899 10.825 7.95844 10.825V8.20177H10.9674C10.9674 8.51038 10.9675 8.81905 10.8903 9.12766L11.5847 9.4362C11.6619 9.05044 11.6618 8.66467 11.6618 8.2789H13.7449C13.6678 8.97328 13.5906 9.59051 13.282 10.2077L13.9764 10.5164C14.285 9.66768 14.4393 8.81897 14.4393 7.89314C14.4393 6.35007 13.9764 4.88416 12.9734 3.64971C11.6618 1.95233 9.65585 0.949341 7.41841 0.949341H7.34127C5.18098 0.949341 3.25215 1.95233 1.94054 3.64971C1.0147 4.88416 0.474609 6.35007 0.474609 7.89314C0.474609 9.4362 0.937548 10.9021 1.94054 12.1366C3.25215 13.8339 5.25813 14.8369 7.34127 14.8369H7.41841H7.49554C8.34423 14.8369 9.19297 14.6826 9.9645 14.374L9.34724 12.9081C9.11578 13.5253 8.57567 13.9111 7.95844 14.0654ZM12.6649 4.26697C13.3592 5.19281 13.745 6.35007 13.8222 7.50737H11.739C11.739 6.50438 11.5847 5.50144 11.2761 4.5756C11.739 4.49845 12.2791 4.42128 12.6649 4.26697ZM12.2019 3.64971C11.8161 3.72686 11.4304 3.80405 10.9674 3.8812C10.8131 3.57259 10.736 3.264 10.5817 3.03254C10.3502 2.64677 10.1187 2.3381 9.88727 2.10664C10.736 2.41525 11.5075 2.95533 12.2019 3.64971ZM7.95844 1.64374C8.65282 1.79805 9.3472 2.41533 9.88727 3.34117C9.96443 3.49547 10.1188 3.72688 10.1959 3.95834C9.50152 4.03549 8.72997 4.1127 7.95844 4.1127V1.64374ZM7.95844 4.88423C8.80713 4.88423 9.733 4.80702 10.5045 4.72987C10.8131 5.57856 10.9674 6.50438 10.9674 7.50737H7.95844V4.88423ZM5.25808 2.10664C5.02662 2.41525 4.79523 2.72392 4.56377 3.03254C4.40946 3.34115 4.25516 3.57259 4.178 3.8812C3.71509 3.80405 3.32924 3.72686 2.94348 3.64971C3.63786 2.95533 4.40939 2.41525 5.25808 2.10664ZM2.48058 4.26697C2.86634 4.42128 3.40643 4.49845 3.94651 4.5756C3.63789 5.50144 3.48361 6.42722 3.48361 7.50737H1.40041C1.40041 6.35007 1.7862 5.26996 2.48058 4.26697ZM2.48058 11.4423C1.7862 10.5164 1.40043 9.35907 1.32328 8.20177H3.40647C3.40647 9.20476 3.56076 10.2078 3.86937 11.1336C3.40645 11.2108 2.9435 11.3651 2.48058 11.4423ZM3.02071 12.0594C3.40647 11.9823 3.79222 11.9052 4.25514 11.828C4.40945 12.1366 4.4866 12.4452 4.64091 12.6767C4.87237 13.0625 5.10384 13.371 5.3353 13.6025C4.40946 13.2939 3.63793 12.7538 3.02071 12.0594ZM7.18691 14.0654C6.49253 13.9111 5.79815 13.2939 5.25808 12.3681C5.18092 12.2138 5.02669 11.9823 4.94954 11.7508C5.64392 11.6736 6.41537 11.5965 7.18691 11.5965V14.0654ZM7.18691 10.9021C6.33822 10.9021 5.41244 10.9793 4.64091 11.0565C4.33229 10.2078 4.178 9.28189 4.178 8.2789H7.18691V10.9021ZM7.18691 7.50737H4.178C4.178 6.50438 4.40945 5.57856 4.64091 4.72987C5.41244 4.80702 6.26107 4.88423 7.18691 4.88423V7.50737ZM7.18691 4.1127C6.41537 4.1127 5.64392 4.03549 4.94954 3.95834C5.02669 3.72688 5.10377 3.57263 5.25808 3.34117C5.79815 2.33818 6.49253 1.79805 7.18691 1.64374V4.1127Z" fill="#38AADF"/>
</svg>
