<svg width="68" height="69" viewBox="0 0 68 69" fill="none" xmlns="http://www.w3.org/2000/svg">
<path d="M34.1806 68.3007C52.8585 68.3007 68 53.1592 68 34.4812C68 15.8032 52.8585 0.661743 34.1806 0.661743C15.5026 0.661743 0.361084 15.8032 0.361084 34.4812C0.361084 53.1592 15.5026 68.3007 34.1806 68.3007Z" fill="url(#paint0_linear_1_543)"/>
<path d="M34.1804 63.2052C50.0567 63.2052 62.9269 50.3349 62.9269 34.4587C62.9269 18.5824 50.0567 5.7121 34.1804 5.7121C18.3041 5.7121 5.43384 18.5824 5.43384 34.4587C5.43384 50.3349 18.3041 63.2052 34.1804 63.2052Z" fill="white"/>
<path d="M61.2248 34.7517C61.2248 27.3678 58.2374 20.6941 53.4012 15.8579C48.565 11.0218 41.8913 8.03436 34.5074 8.03436C33.9212 8.03436 33.3462 8.05691 32.7713 8.09073C26.0863 8.51911 20.0665 11.405 15.6136 15.8579C10.9352 20.5363 7.98164 26.9394 7.80127 34.0415H10.2701C10.4504 27.6271 13.1335 21.844 17.3722 17.6053C21.3854 13.6033 26.7853 10.9879 32.7826 10.5595C33.3575 10.5144 33.9324 10.4919 34.5187 10.4919C41.2149 10.4919 47.2686 13.2087 51.6651 17.594C56.0504 21.9793 58.7672 28.0442 58.7672 34.7405C58.7672 36.3525 58.6094 37.9195 58.305 39.4414C58.0683 39.7345 57.8541 39.8923 57.6173 39.9712C57.313 40.084 56.862 40.0952 56.2308 40.0952H50.2898C50.2222 39.9036 50.132 39.7232 50.0531 39.5541C52.4542 36.2962 54.5172 32.4295 54.5172 28.4726C54.5172 17.3911 40.8429 18.6199 35.7925 25.643L36.1307 31.212L36.8297 42.7782L36.8747 43.5899V43.8492C36.9649 43.1953 37.0326 42.5415 37.1002 41.8877C37.134 40.4785 38.2726 40.0839 39.4901 40.0727C39.5465 40.0727 39.6141 40.0727 39.6705 40.0727C39.9298 40.0727 40.1891 40.084 40.4371 40.0952C40.7978 40.1065 41.1473 40.129 41.508 40.129C41.9364 38.9566 42.6128 38.2915 43.5034 37.9195C44.1685 37.6489 44.9576 37.5475 45.8594 37.5475C46.8628 37.5475 47.6857 37.6828 48.3621 38.0435C49.0047 38.393 49.5007 38.9341 49.8727 39.7796C49.7261 39.9712 49.5796 40.1629 49.433 40.3545C49.433 40.3545 49.4218 40.3658 49.4105 40.3771C49.1287 40.7491 48.8356 41.0985 48.5537 41.448C48.5312 41.4705 48.5086 41.4931 48.4974 41.5269C48.3959 41.6509 48.3057 41.7637 48.2043 41.8764C48.5199 42.395 48.9596 42.7106 49.7487 42.7106C53.2095 42.7106 56.569 42.688 59.9734 42.688C60.7738 40.1516 61.2022 37.5249 61.2022 34.7292L61.2248 34.7517ZM46.0173 24.0197C46.4682 24.6735 46.874 25.3612 47.2235 26.0601C47.3701 26.3645 47.5166 26.6689 47.6406 26.9845C47.4941 27.0747 47.3588 27.1649 47.2235 27.2551C46.9868 27.4129 46.75 27.5707 46.5133 27.7286C46.1413 27.9879 45.7918 28.2471 45.4311 28.5177C45.1718 27.6835 44.7772 26.8718 44.2699 26.1052L46.006 24.0197H46.0173ZM48.1704 33.9513L47.2235 33.8274L46.7388 33.7597C46.2653 33.7033 45.7805 33.6357 45.3071 33.5793C45.4311 33.2186 45.5438 32.8466 45.6227 32.4746C45.6227 32.4746 45.6227 32.4746 45.6114 32.4746C45.6114 32.4746 45.6114 32.4746 45.6227 32.4746C45.8143 31.5727 45.8482 30.6821 45.7242 29.8028C46.0849 29.4985 46.4682 29.2166 46.8515 28.9348C46.9755 28.8446 47.0995 28.7544 47.2235 28.6755C47.4941 28.4839 47.7646 28.3035 48.0464 28.1231C48.317 29.0588 48.4861 30.017 48.5086 30.9978C48.5312 31.9785 48.4072 32.9706 48.1704 33.9513ZM48.7792 26.3194C48.5086 25.7219 48.1817 25.147 47.8322 24.5833C47.6406 24.2677 47.4377 23.9633 47.2235 23.659C47.0882 23.4673 46.9529 23.2757 46.8064 23.0953L47.2235 22.588L47.8773 21.7989C48.3508 22.3174 48.8017 22.8473 49.2301 23.4109C49.7149 24.0535 50.1545 24.7299 50.5378 25.4401C49.9403 25.7107 49.3541 26.0038 48.7792 26.3194ZM49.3541 34.1092C49.3541 34.1092 49.3767 34.019 49.3992 33.9626C49.7149 32.8466 49.8727 31.7193 49.8389 30.6258C49.805 29.521 49.5796 28.45 49.2188 27.4016C49.805 27.0634 50.4138 26.7478 51.0451 26.466C51.496 27.5369 51.8117 28.6417 51.8906 29.769C51.9695 30.8963 51.8117 32.0462 51.4848 33.2073C51.4848 33.2073 51.4848 33.2073 51.496 33.2073C51.372 33.5906 51.2367 33.9626 51.0902 34.3346C50.5153 34.2557 49.9516 34.1768 49.3767 34.0979L49.3541 34.1092Z" fill="#288CCC"/>
<path d="M35.1725 54.7278L33.7408 31.5727V31.6629L33.1884 38.0548L32.7826 42.8233L32.6699 44.2099C32.6022 44.999 32.0724 45.5852 31.2382 45.5289H31.2156C30.2123 45.4387 29.9869 44.4016 29.8178 43.6012C29.7614 43.3194 29.705 43.0262 29.6487 42.7444C29.5585 42.7444 29.457 42.7444 29.3668 42.7444C29.2428 42.7444 29.1075 42.7444 28.9835 42.7444C28.9046 42.7444 28.8257 42.7444 28.7468 42.7444C27.721 42.7444 27.1798 41.9666 26.8642 41.076C26.8304 40.9858 26.8078 40.8956 26.774 40.8054C25.9736 42.1018 24.7448 42.7331 22.9524 42.7444C22.9524 42.7444 22.9411 42.7444 22.9299 42.7444H21.0247H21.0134C24.9929 47.3326 29.7276 51.5149 34.2707 55.5507C34.575 55.2802 34.8681 55.0209 35.1725 54.7503L35.3078 56.6555C35.3867 58.3239 37.63 58.2788 37.6639 56.6217C37.6639 56.554 37.6864 56.4751 37.6864 56.4075L38.3177 51.932C41.756 48.8094 45.1605 45.5627 48.0915 42.0906C47.8999 41.8313 47.7533 41.4931 47.6181 41.1211C47.3137 40.2305 46.7951 40.1854 45.9384 40.1854C45.9271 40.1854 45.9046 40.1854 45.8933 40.1854C44.9802 40.1854 44.2699 40.1854 43.9543 41.1662C43.6499 42.0793 43.2554 42.7219 42.1957 42.7557C42.0717 42.7557 41.9364 42.7557 41.8124 42.7557C41.3277 42.7557 40.8429 42.7444 40.3582 42.7219C40.2116 42.7219 40.0651 42.7106 39.9298 42.6993C39.8396 42.6993 39.7494 42.6993 39.6592 42.6993L39.6367 42.8346L38.4417 50.9513L38.3064 51.8531L35.8264 54.1529C35.7587 54.2092 35.6911 54.2656 35.6234 54.3332L35.1612 54.7391L35.1725 54.7278Z" fill="#288CCC"/>
<path d="M51.6539 51.9095C47.2687 56.2947 41.2037 59.0116 34.5075 59.0228C33.9213 59.0228 33.3463 59.0116 32.7714 58.9665C26.7741 58.5381 21.3742 55.934 17.361 51.9207C15.1176 49.6774 13.3252 47.0057 12.0851 44.0408C11.544 42.7444 13.235 42.7557 14.0354 42.7557H20.9909C20.788 42.5302 20.5964 42.2935 20.3935 42.068C20.2695 41.9215 20.1567 41.7862 20.0327 41.6396C20.0102 41.6171 19.9876 41.5833 19.9651 41.5607C19.8524 41.4254 19.7509 41.2902 19.6382 41.1549C19.6382 41.1549 19.6269 41.1323 19.6156 41.1211C19.3563 40.8054 19.1083 40.4785 18.8603 40.1516H21.115H22.8961C24.5533 40.1516 24.8576 38.9679 25.1507 37.57C25.3762 36.4991 25.7031 35.2703 27.0784 35.3492C28.4087 35.4281 28.7243 36.9387 28.8934 38.0773C28.916 38.2464 28.9385 38.393 28.9611 38.5395C29.0287 38.9792 29.0964 39.6443 29.2204 40.1403C29.2429 40.1403 29.2767 40.1403 29.2993 40.1403C29.3669 40.1403 29.4233 40.1403 29.4909 40.1403C29.784 40.1403 30.0771 40.1403 30.3702 40.1403L31.5088 29.1264L31.9597 24.7637C31.9597 24.7637 31.9597 24.775 31.971 24.7863C32.2303 25.0681 32.467 25.3725 32.6925 25.6768C32.6925 25.6768 32.6925 25.6768 32.6925 25.6881C32.794 25.8234 32.8841 25.9699 32.9743 26.1052C32.9969 26.139 33.0194 26.1729 33.042 26.2067C33.1321 26.3532 33.2336 26.511 33.3125 26.6689L34.2369 28.3147L35.1613 26.6689C35.2515 26.511 35.3417 26.3532 35.4431 26.2067C35.4544 26.1841 35.477 26.1616 35.4882 26.1278C35.5784 25.9812 35.6799 25.8459 35.7701 25.7106L35.1049 15.0688C35.1049 14.4037 34.8231 13.8513 34.158 13.7949C33.4478 13.7386 33.0532 14.2797 32.9969 14.9899L31.9485 24.7863C26.4359 18.586 13.9565 17.9322 13.9565 28.5177C13.9565 32.7113 16.2675 36.7696 18.8378 40.1516C15.3205 40.1516 11.8033 40.129 8.29736 40.129C9.35704 45.3598 11.9499 50.0381 15.5798 53.6681C20.0327 58.121 26.0526 61.0069 32.7376 61.4353C33.3125 61.4691 33.8874 61.4917 34.4736 61.4917C41.8576 61.4917 48.5313 58.493 53.3675 53.6681C54.8104 52.2251 56.0956 50.6018 57.1778 48.8544H54.2129C53.4351 49.9479 52.5671 50.9738 51.6201 51.9207L51.6539 51.9095Z" fill="#288CCC"/>
<defs>
<linearGradient id="paint0_linear_1_543" x1="34.1806" y1="0.661743" x2="34.1806" y2="68.3007" gradientUnits="userSpaceOnUse">
<stop stop-color="#2F8EDD"/>
<stop offset="0.33" stop-color="#2F9DDD"/>
<stop offset="0.69" stop-color="#2FABDD"/>
<stop offset="0.97" stop-color="#2FBADD"/>
</linearGradient>
</defs>
</svg>
