<svg width="210" height="76" viewBox="0 0 210 76" fill="none" xmlns="http://www.w3.org/2000/svg">
  <path opacity="0.6"
        d="M167.431 28.1268C167.087 27.3509 166.247 25.6872 165.28 25.7912C164.488 25.8712 164.184 27.007 164.016 27.8868C163.928 29.2306 163.704 30.7743 163.48 31.3023C163.344 31.0303 163.088 30.3184 162.744 28.4067L162.696 28.1268H150.13C149.938 27.5669 149.442 26.4231 148.674 26.3591C147.954 26.2951 147.523 27.1669 147.387 27.4469C147.155 27.9188 146.987 28.4627 146.883 29.0946C146.475 31.5102 146.027 32.542 145.883 32.638C145.867 32.638 145.587 32.4621 145.219 30.8383C145.075 30.1824 144.971 29.4706 144.915 28.6627C144.595 23.9835 143.883 23.8475 143.579 23.7915C143.051 23.6955 142.699 24.3114 142.475 24.7833C142.187 25.3992 141.995 26.0951 141.892 26.863L140.708 35.5095C140.532 36.7253 140.156 37.9331 139.972 38.0531C139.932 38.0371 139.564 37.8052 139.068 35.5415L137.996 19.4323C137.956 18.8563 137.876 18.3444 137.756 17.8645C137.492 16.8407 137.172 16.3688 136.732 16.3448C136.212 16.3128 135.909 16.9207 135.693 17.4566C135.429 18.1125 135.261 18.8643 135.181 19.6722L134.365 28.2228H130.861L129.974 38.885C129.918 39.5809 129.814 40.2048 129.67 40.7807C129.606 41.0446 129.542 41.2366 129.494 41.3646C129.414 41.0926 129.31 40.5647 129.206 39.5809L128.262 28.0308H123.031C122.927 27.087 122.647 26.1831 122.215 25.3752C122.583 23.5995 122.615 21.8958 122.479 20.4161C122.183 17.1686 120.551 14.2891 118.008 12.5134C116.056 11.1536 114 10.6977 111.905 11.1696C107.561 12.1535 104.33 16.7687 103.37 18.2964C102.41 16.7687 99.1787 12.1535 94.8354 11.1696C92.7398 10.6977 90.6841 11.1456 88.7324 12.5134C86.1889 14.2891 84.5572 17.1686 84.2612 20.4161C84.0612 22.6157 84.2132 25.3113 85.349 28.0228H80.9418L79.9979 39.5649C79.8939 40.5567 79.79 41.0766 79.71 41.3566C79.662 41.2286 79.598 41.0366 79.534 40.7727C79.382 40.1888 79.286 39.5729 79.23 38.877L78.3422 28.2148H74.8388L74.0229 19.6642C73.9429 18.8483 73.775 18.1045 73.511 17.4486C73.303 16.9127 72.9911 16.2888 72.4712 16.3368C72.0313 16.3608 71.7113 16.8327 71.4474 17.8565C71.3194 18.3364 71.2474 18.8483 71.2074 19.4243L70.1436 35.4855C69.6397 37.8052 69.2717 38.0291 69.2877 38.0531C69.0478 37.9331 68.6798 36.7253 68.5038 35.5175L67.32 26.863C67.2161 26.0951 67.0161 25.3992 66.7361 24.7833C66.5122 24.3114 66.1602 23.6955 65.6323 23.7915C65.3284 23.8475 64.6165 23.9835 64.2966 28.6627C64.2406 29.4706 64.1446 30.1824 63.9926 30.8383C63.6487 32.3741 63.3767 32.614 63.3847 32.638C63.1767 32.526 62.7288 31.4942 62.3289 29.0946C62.2249 28.4627 62.0569 27.9268 61.825 27.4469C61.681 27.1589 61.2731 26.2871 60.5372 26.3591C59.7693 26.4231 59.2734 27.5749 59.0814 28.1268H46.5155L46.4676 28.4067C46.1236 30.3184 45.8677 31.0383 45.7317 31.3023C45.5077 30.7743 45.2838 29.2226 45.1958 27.8468C45.0358 26.999 44.7238 25.8712 43.94 25.7912C42.9881 25.6952 42.1323 27.3509 41.7883 28.1268H32.6299V28.7987H42.2523L42.3403 28.5907C42.7722 27.5509 43.5001 26.3991 43.892 26.4551C43.932 26.4551 44.2839 26.5351 44.5479 27.9348C44.8198 32.0541 45.4677 32.0861 45.7157 32.1021C46.1236 32.1261 46.5315 31.8862 47.0994 28.7987H59.6013L59.6733 28.5587C59.8813 27.8548 60.3212 27.055 60.6172 27.023C60.7452 27.007 60.9771 27.1989 61.2491 27.7429C61.457 28.1588 61.601 28.6387 61.697 29.1986C62.3849 33.2699 63.0808 33.2939 63.3767 33.3019C63.9526 33.3419 64.3046 32.646 64.6805 30.9823C64.8325 30.2864 64.9364 29.5425 64.9924 28.7027C65.2084 25.5832 65.6163 24.5514 65.7443 24.4474C65.7443 24.4474 65.8963 24.5114 66.1522 25.0633C66.4082 25.6152 66.5842 26.2471 66.6802 26.951L67.864 35.6055C68.0319 36.7573 68.4319 38.685 69.2637 38.717C69.9036 38.757 70.3435 37.8452 70.8315 35.5815L71.9033 19.4722C71.9353 18.9443 72.0073 18.4724 72.1272 18.0325C72.3352 17.2326 72.5192 17.0487 72.5192 17.0167C72.5592 17.0407 72.7031 17.1686 72.9111 17.7045C73.1511 18.3044 73.303 18.9923 73.375 19.7362L74.2469 28.8947H77.7423L78.5822 38.941C78.6461 39.6768 78.7501 40.3327 78.9101 40.9486C79.1101 41.7485 79.334 42.2844 79.75 42.2844C79.766 42.2844 79.774 42.2844 79.79 42.2844C80.1979 42.2524 80.4698 41.8285 80.6938 39.6449L81.5896 28.7187H85.677C86.6848 30.8383 88.3165 32.942 90.8841 34.8057L91.324 35.1256C92.9397 36.3014 94.6195 37.5172 96.1552 38.829L103.402 45.0119L107.465 41.5485L110.617 44.2361L115.376 40.1808C116.368 39.3329 117.456 38.549 118.495 37.7892L118.775 37.5892C122.519 34.8697 123.239 31.3742 123.119 28.7427L127.67 28.7267L128.566 39.6608C128.798 41.8365 129.062 42.2604 129.47 42.2924C129.486 42.2924 129.494 42.2924 129.51 42.2924C129.926 42.2924 130.149 41.7565 130.349 40.9566C130.509 40.3407 130.613 39.6768 130.677 38.949L131.517 28.9027H135.013L135.885 19.7442C135.957 18.9923 136.116 18.3124 136.348 17.7125C136.556 17.1926 136.7 17.0566 136.708 17.0247C136.756 17.0646 136.932 17.2566 137.14 18.0405C137.252 18.4804 137.324 18.9523 137.364 19.4802L138.436 35.6375C138.916 37.8292 139.356 38.725 139.972 38.725C139.972 38.725 139.988 38.725 139.996 38.725C140.828 38.693 141.236 36.7653 141.404 35.6135L142.587 26.959C142.683 26.2551 142.859 25.6232 143.115 25.0713C143.331 24.5994 143.475 24.4874 143.475 24.4554C143.667 24.5994 144.059 25.6472 144.275 28.7107C144.331 29.5505 144.435 30.2944 144.587 30.9903C144.955 32.654 145.355 33.3179 145.891 33.3099C146.187 33.3099 146.883 33.2859 147.571 29.2066C147.667 28.6387 147.811 28.1588 148.018 27.7509C148.29 27.2069 148.522 27.015 148.65 27.031C148.954 27.055 149.378 27.8468 149.594 28.5667L149.666 28.8067H162.16C162.728 31.8862 163.144 32.1261 163.544 32.1101C163.792 32.0941 164.44 32.0621 164.704 27.9828C164.976 26.5431 165.328 26.4711 165.368 26.4631C165.727 26.4151 166.487 27.5589 166.919 28.5987L167.007 28.8067H176.63V28.1348H167.455L167.431 28.1268ZM103.386 44.1161L96.5791 38.3091C95.0194 36.9733 93.3317 35.7575 91.6999 34.5737L91.26 34.2538C85.381 29.9825 84.5811 24.4074 84.9411 20.4881C85.221 17.4406 86.7488 14.737 89.1324 13.0733C90.4682 12.1375 91.8519 11.6736 93.2517 11.6736C93.7316 11.6736 94.2115 11.7295 94.6914 11.8335C99.5066 12.9213 103.05 19.0563 103.09 19.1203L103.378 19.6322L103.666 19.1203C103.698 19.0563 107.241 12.9213 112.065 11.8335C113.968 11.4016 115.84 11.8175 117.632 13.0733C120.015 14.737 121.543 17.4406 121.823 20.4881C121.935 21.7039 121.935 23.0876 121.703 24.5354C121.263 23.9355 120.735 23.4076 120.119 22.9757C118.831 22.0718 117.472 21.7759 116.08 22.0878C113.368 22.7037 111.321 25.4632 110.593 26.591C109.857 25.4632 107.817 22.7037 105.106 22.0878C103.714 21.7759 102.362 22.0718 101.066 22.9757C99.3947 24.1435 98.3228 26.0391 98.1229 28.1668C97.8749 30.8463 98.4268 34.6457 102.434 37.5652L102.722 37.7732C103.762 38.533 104.842 39.3169 105.834 40.1568L106.929 41.0926L103.386 44.1161ZM118.359 37.0213L118.08 37.2213C117.024 37.9891 115.928 38.781 114.912 39.6449L110.593 43.3322L107.961 41.0846L107.441 40.6447L106.265 39.6449C105.25 38.781 104.162 37.9891 103.114 37.2293L102.826 37.0213C99.0747 34.2937 98.5628 30.7344 98.7868 28.2308C98.9627 26.2951 99.9306 24.5834 101.442 23.5276C102.282 22.9357 103.154 22.6397 104.042 22.6397C104.346 22.6397 104.642 22.6717 104.946 22.7437C108.009 23.4316 110.273 27.3509 110.297 27.3909L110.585 27.9028L110.873 27.3909C110.873 27.3909 113.16 23.4316 116.224 22.7437C117.416 22.4717 118.599 22.7437 119.727 23.5276C120.463 24.0395 121.063 24.7114 121.511 25.4792C121.687 25.7832 121.831 26.1031 121.959 26.4391C122.175 27.007 122.327 27.6069 122.383 28.2308C122.615 30.7344 122.103 34.2937 118.343 37.0213H118.359Z"
        fill="#DFEEFA" fill-opacity="0.56" stroke="#DFEEFA" stroke-opacity="0.56" stroke-width="0.799865"
        stroke-miterlimit="10"/>
  <path d="M16.0099 62.0719H12.4539L11.5159 65.0119H10.3119C10.9979 62.9959 12.7059 57.6339 13.4619 55.3519H14.9739L18.2639 65.0119H16.9759L16.0099 62.0719ZM12.7339 61.0359H15.7159C14.9039 58.5579 14.3859 57.1159 14.1899 56.3459H14.1759C13.8959 57.4799 13.4059 58.9779 12.7339 61.0359ZM27.8205 55.6459L27.6525 56.6539H23.8585C23.7745 57.3819 23.5785 58.9779 23.4945 59.5519C23.8305 59.1319 24.4185 58.7959 25.3565 58.7959C27.1065 58.7959 28.1005 60.0139 28.1005 61.8339C28.1005 63.6679 27.1625 65.1519 25.0205 65.1519C23.3265 65.1519 22.2485 64.2839 22.0665 62.6739H23.2145C23.3965 63.5139 23.8865 64.1859 25.0345 64.1859C26.3645 64.1859 26.8965 63.2339 26.8965 61.9039C26.8965 60.6299 26.3225 59.7759 25.1045 59.7759C24.1105 59.7759 23.5925 60.2379 23.3125 60.9099L22.2625 60.7279C22.4585 59.6219 22.7665 57.1439 22.9065 55.6459H27.8205ZM32.558 55.5199C34.882 55.5199 35.554 57.6479 35.554 60.1259C35.554 62.6459 34.994 65.1519 32.544 65.1519C30.01 65.1519 29.506 62.5479 29.506 60.1399C29.506 57.7179 30.304 55.5199 32.558 55.5199ZM32.558 56.4719C31.06 56.4719 30.696 58.1659 30.696 60.1259C30.696 62.3939 31.102 64.1999 32.544 64.1999C34.056 64.1999 34.364 62.3939 34.364 60.1399C34.364 58.1659 33.958 56.4719 32.558 56.4719ZM39.3502 65.0119H38.2022V57.0179C37.8662 57.2279 36.9562 57.4939 36.5782 57.5779V56.6539C37.2922 56.4999 38.0622 56.0799 38.5242 55.6179H39.3502V65.0119ZM43.3491 54.8199H44.5111C43.3771 56.3179 42.4391 58.4319 42.4391 60.9939C42.4391 63.3179 43.1811 65.4879 44.5111 67.3359H43.3491C42.3551 66.0059 41.3611 63.7379 41.3611 60.9799C41.3611 58.2919 42.4111 56.0939 43.3491 54.8199ZM49.9144 62.7579H51.0904C50.7964 64.1439 49.9144 65.1519 48.2344 65.1519C46.2324 65.1519 45.2244 63.8359 45.2244 61.4559C45.2244 59.4119 46.2604 57.7739 48.3044 57.7739C50.1944 57.7739 50.9784 59.0899 51.0764 60.2519H49.9004C49.7604 59.4539 49.3264 58.7259 48.2764 58.7259C46.9884 58.7259 46.4284 59.8599 46.4284 61.4419C46.4284 63.2619 47.0864 64.1999 48.2624 64.1999C49.2424 64.1999 49.6624 63.5979 49.9144 62.7579ZM53.0569 67.3359H51.8949C53.0289 65.8379 53.9669 63.7239 53.9669 61.1619C53.9669 58.8379 53.2389 56.6679 51.8949 54.8199H53.0569C54.0509 56.1499 55.0449 58.4179 55.0449 61.1759C55.0449 63.8639 54.0089 66.0619 53.0569 67.3359ZM57.6676 58.0259H56.5896C56.7576 56.7519 57.5276 55.5199 59.4176 55.5199C61.2516 55.5199 62.0916 56.6119 62.0916 57.9139C62.0916 59.0199 61.4056 59.6359 60.8316 59.8599V59.8879C61.6716 60.1679 62.4696 60.8819 62.4696 62.2399C62.4696 63.6959 61.6156 65.1519 59.3616 65.1519C57.3316 65.1519 56.4916 63.8919 56.3796 62.6039H57.5136C57.6956 63.4719 58.2416 64.1859 59.4176 64.1859C60.8316 64.1859 61.2656 63.2479 61.2656 62.2679C61.2656 60.8959 60.3976 60.4479 59.2076 60.4479H58.5776V59.4959H59.1656C60.3136 59.4959 60.9156 59.0339 60.9156 57.9559C60.9156 56.9899 60.3276 56.4579 59.3616 56.4579C58.3816 56.4579 57.8496 57.0179 57.6676 58.0259ZM68.8357 65.0119H67.7017V55.3519H69.2977C73.1617 62.2119 73.6797 63.1359 73.8477 63.5699H73.8757C73.7777 62.2819 73.7637 60.7139 73.7637 59.1459V55.3519H74.8977V65.0119H73.4277C69.3117 57.5919 69.0037 56.9759 68.7937 56.5699H68.7797C68.8497 57.8299 68.8357 59.4399 68.8357 61.1759V65.0119ZM79.7243 57.7739C81.7403 57.7739 82.8043 59.3139 82.8043 61.3579C82.8043 63.4159 81.9083 65.1379 79.6403 65.1379C77.4283 65.1379 76.5603 63.3319 76.5603 61.3859C76.5603 59.5239 77.5823 57.7739 79.7243 57.7739ZM79.6683 58.7539C78.4083 58.7539 77.7503 59.8319 77.7503 61.3719C77.7503 63.0099 78.4223 64.1719 79.7103 64.1719C81.0403 64.1719 81.6143 63.0379 81.6143 61.3579C81.6143 59.8179 80.9703 58.7539 79.6683 58.7539ZM84.3644 65.0119V60.1399C84.3644 58.6559 84.3504 58.2219 84.3364 57.9139H85.4844C85.4984 58.0539 85.5404 58.7399 85.5264 59.0339C85.8204 58.3899 86.4504 57.7739 87.6124 57.7739C88.9284 57.7739 89.8804 58.5159 89.8804 60.4339V65.0119H88.7044V60.6159C88.7044 59.5799 88.3544 58.7959 87.3044 58.7959C86.0304 58.7959 85.5264 59.7339 85.5264 61.2179V65.0119H84.3644ZM94.9913 65.1379C93.9693 65.1379 93.3813 64.7179 93.0733 64.1579V67.8259H91.9113V60.0139C91.9113 59.0339 91.9253 58.3619 91.8973 57.9139H93.0313C93.0593 58.1659 93.0733 58.6699 93.0733 59.0619C93.4233 58.3339 94.1093 57.7739 95.2853 57.7739C96.8253 57.7739 97.9313 59.0059 97.9313 61.3579C97.9313 63.7379 96.6573 65.1379 94.9913 65.1379ZM94.8373 64.1439C96.0273 64.1439 96.7413 63.1499 96.7413 61.3859C96.7413 59.6779 96.0553 58.7819 94.9073 58.7819C93.4513 58.7819 93.0173 59.7899 93.0173 61.4979C93.0173 63.0519 93.3253 64.1439 94.8373 64.1439ZM99.4855 65.0119V60.3359C99.4855 59.2019 99.4855 58.2639 99.4575 57.9139H100.606C100.634 58.2499 100.634 58.7119 100.634 59.3559C100.97 58.4739 101.754 57.8019 102.93 57.7879V58.9919C101.334 59.0619 100.648 59.9999 100.648 61.5259V65.0119H99.4855ZM106.726 57.7739C108.742 57.7739 109.806 59.3139 109.806 61.3579C109.806 63.4159 108.91 65.1379 106.642 65.1379C104.43 65.1379 103.562 63.3319 103.562 61.3859C103.562 59.5239 104.584 57.7739 106.726 57.7739ZM106.67 58.7539C105.41 58.7539 104.752 59.8319 104.752 61.3719C104.752 63.0099 105.424 64.1719 106.712 64.1719C108.042 64.1719 108.616 63.0379 108.616 61.3579C108.616 59.8179 107.972 58.7539 106.67 58.7539ZM112.777 65.0119H111.615V58.8799H110.523V57.9139H111.615V57.0319C111.615 55.7719 112.063 54.7079 113.547 54.7079C113.771 54.7079 114.051 54.7359 114.219 54.8059V55.7859C114.079 55.7439 113.869 55.7299 113.645 55.7299C113.015 55.7299 112.777 56.1499 112.777 56.9759V57.9139H114.093V58.8799H112.777V65.0119ZM115.222 65.0119V57.9139H116.384V65.0119H115.222ZM115.222 56.3319V54.8199H116.384V56.3319H115.222ZM117.509 58.8799V57.9139H118.643V55.8559H119.791V57.9139H121.233V58.8799H119.791V63.3179C119.791 63.9059 119.945 64.1579 120.547 64.1579C120.743 64.1579 120.939 64.1439 121.107 64.1159V64.9839C120.827 65.0819 120.421 65.1099 120.169 65.1099C119.147 65.1099 118.643 64.7179 118.643 63.5419V58.8799H117.509ZM129.68 55.2119C132.354 55.2119 133.698 57.3399 133.698 60.1259C133.698 62.8979 132.396 65.1519 129.568 65.1519C126.894 65.1519 125.55 63.0239 125.55 60.1399C125.55 57.6059 126.866 55.2119 129.68 55.2119ZM129.638 56.2339C127.678 56.2339 126.796 57.9699 126.796 60.1119C126.796 62.3799 127.72 64.1439 129.638 64.1439C131.626 64.1439 132.466 62.4079 132.466 60.1399C132.466 57.9279 131.598 56.2339 129.638 56.2339ZM135.32 65.0119V60.3359C135.32 59.2019 135.32 58.2639 135.292 57.9139H136.44C136.468 58.2499 136.468 58.7119 136.468 59.3559C136.804 58.4739 137.588 57.8019 138.764 57.7879V58.9919C137.168 59.0619 136.482 59.9999 136.482 61.5259V65.0119H135.32ZM145.36 59.9719V64.4799C145.36 66.6919 144.478 67.9379 142.322 67.9379C140.25 67.9379 139.62 66.8319 139.522 65.8239H140.67C140.824 66.6079 141.454 66.9999 142.364 66.9999C143.89 66.9999 144.24 65.9919 144.24 64.4519V63.8639C143.876 64.6619 143.246 65.0399 142.154 65.0399C140.488 65.0399 139.396 63.6399 139.396 61.4419C139.396 59.1319 140.684 57.7739 142.308 57.7739C143.428 57.7739 144.016 58.2359 144.198 58.7959C144.198 58.4879 144.24 58.0819 144.254 57.9139H145.388C145.374 58.2499 145.36 59.0059 145.36 59.9719ZM142.49 58.7959C141.314 58.7959 140.6 59.7759 140.6 61.4279C140.6 63.0659 141.3 64.0179 142.434 64.0179C143.792 64.0179 144.268 63.1779 144.268 61.3859C144.268 59.6219 143.876 58.7959 142.49 58.7959ZM152.28 59.9999V63.4439C152.28 63.9339 152.336 64.6479 152.392 65.0119H151.342C151.286 64.7739 151.244 64.3819 151.23 63.9199C150.964 64.6339 150.25 65.1379 149.088 65.1379C147.352 65.1379 146.82 63.9759 146.82 62.9959C146.82 61.9179 147.506 60.7419 150.054 60.7419C150.474 60.7419 150.81 60.7419 151.146 60.7419V60.0419C151.146 59.3699 150.95 58.6839 149.746 58.6839C148.71 58.6839 148.36 59.1599 148.234 59.9299H147.1C147.212 58.7539 147.898 57.7739 149.788 57.7739C151.272 57.7739 152.28 58.3759 152.28 59.9999ZM151.174 61.7219V61.5819C150.894 61.5819 150.488 61.5819 150.054 61.5819C148.332 61.5819 148.01 62.2819 148.01 62.9259C148.01 63.6119 148.43 64.1859 149.326 64.1859C150.712 64.1859 151.174 63.2479 151.174 61.7219ZM154.323 65.0119V60.1399C154.323 58.6559 154.309 58.2219 154.295 57.9139H155.443C155.457 58.0539 155.499 58.7399 155.485 59.0339C155.779 58.3899 156.409 57.7739 157.571 57.7739C158.887 57.7739 159.839 58.5159 159.839 60.4339V65.0119H158.663V60.6159C158.663 59.5799 158.313 58.7959 157.263 58.7959C155.989 58.7959 155.485 59.7339 155.485 61.2179V65.0119H154.323ZM161.87 65.0119V57.9139H163.032V65.0119H161.87ZM161.87 56.3319V54.8199H163.032V56.3319H161.87ZM164.424 65.0119V64.0879C165.628 62.5479 167.028 60.5739 168.26 58.8939H164.648V57.9139H169.59V58.8939C168.372 60.5599 167.042 62.3659 165.782 64.0459H169.744L169.562 65.0119H164.424ZM175.987 59.9999V63.4439C175.987 63.9339 176.043 64.6479 176.099 65.0119H175.049C174.993 64.7739 174.951 64.3819 174.937 63.9199C174.671 64.6339 173.957 65.1379 172.795 65.1379C171.059 65.1379 170.527 63.9759 170.527 62.9959C170.527 61.9179 171.213 60.7419 173.761 60.7419C174.181 60.7419 174.517 60.7419 174.853 60.7419V60.0419C174.853 59.3699 174.657 58.6839 173.453 58.6839C172.417 58.6839 172.067 59.1599 171.941 59.9299H170.807C170.919 58.7539 171.605 57.7739 173.495 57.7739C174.979 57.7739 175.987 58.3759 175.987 59.9999ZM174.881 61.7219V61.5819C174.601 61.5819 174.195 61.5819 173.761 61.5819C172.039 61.5819 171.717 62.2819 171.717 62.9259C171.717 63.6119 172.137 64.1859 173.033 64.1859C174.419 64.1859 174.881 63.2479 174.881 61.7219ZM176.982 58.8799V57.9139H178.116V55.8559H179.264V57.9139H180.706V58.8799H179.264V63.3179C179.264 63.9059 179.418 64.1579 180.02 64.1579C180.216 64.1579 180.412 64.1439 180.58 64.1159V64.9839C180.3 65.0819 179.894 65.1099 179.642 65.1099C178.62 65.1099 178.116 64.7179 178.116 63.5419V58.8799H176.982ZM181.941 65.0119V57.9139H183.103V65.0119H181.941ZM181.941 56.3319V54.8199H183.103V56.3319H181.941ZM187.828 57.7739C189.844 57.7739 190.908 59.3139 190.908 61.3579C190.908 63.4159 190.012 65.1379 187.744 65.1379C185.532 65.1379 184.664 63.3319 184.664 61.3859C184.664 59.5239 185.686 57.7739 187.828 57.7739ZM187.772 58.7539C186.512 58.7539 185.854 59.8319 185.854 61.3719C185.854 63.0099 186.526 64.1719 187.814 64.1719C189.144 64.1719 189.718 63.0379 189.718 61.3579C189.718 59.8179 189.074 58.7539 187.772 58.7539ZM192.468 65.0119V60.1399C192.468 58.6559 192.454 58.2219 192.44 57.9139H193.588C193.602 58.0539 193.644 58.7399 193.63 59.0339C193.924 58.3899 194.554 57.7739 195.716 57.7739C197.032 57.7739 197.984 58.5159 197.984 60.4339V65.0119H196.808V60.6159C196.808 59.5799 196.458 58.7959 195.408 58.7959C194.134 58.7959 193.63 59.7339 193.63 61.2179V65.0119H192.468Z"
        fill="#DFEEFA" fill-opacity="0.56"/>
</svg>
