<svg width="346" height="62" viewBox="0 0 346 62" fill="none" xmlns="http://www.w3.org/2000/svg">
<path d="M62.2 30.7C62.2 22.2 58.8 14.6 53.2 9C47.7 3.5 40 0 31.5 0C30.8 0 30.2 3.7998e-07 29.5 0.1C21.8 0.6 14.9 3.9 9.79999 9C4.39999 14.4 0.999988 21.7 0.799988 29.9H3.59999C3.79999 22.5 6.89998 15.9 11.7 11C16.3 6.4 22.5 3.4 29.4 2.9C30.1 2.9 30.7 2.8 31.4 2.8C39.1 2.8 46 5.9 51.1 11C56.1 16 59.3 23 59.3 30.7C59.3 32.5 59.1 34.3 58.8 36.1C58.5 36.4 58.3 36.6 58 36.7C57.6 36.8 57.1 36.8 56.4 36.8H49.6C49.5 36.6 49.4 36.4 49.3 36.2C52.1 32.5 54.4 28 54.4 23.5C54.4 10.8 38.7 12.2 32.9 20.3L33.5 26.7L34.3 40L34.4 40.9V41.2C34.5 40.4 34.6 39.7 34.6 38.9C34.6 37.3 35.9 36.8 37.3 36.8C37.4 36.8 37.4 36.8 37.5 36.8C37.8 36.8 38.1 36.8 38.4 36.8C38.8 36.8 39.2 36.8 39.6 36.8C40.1 35.5 40.9 34.7 41.9 34.3C42.7 34 43.6 33.9 44.6 33.9C45.7 33.9 46.7 34.1 47.5 34.5C48.2 34.9 48.8 35.5 49.2 36.5C49 36.7 48.9 36.9 48.7 37.2C48.4 37.6 48 38 47.7 38.4C47.7 38.4 47.7 38.5 47.6 38.5C47.5 38.6 47.4 38.8 47.3 38.9C47.7 39.5 48.2 39.9 49.1 39.9C53.1 39.9 56.9 39.9 60.8 39.9C61.7 36.9 62.2 33.9 62.2 30.7ZM44.8 18.4C45.3 19.2 45.8 19.9 46.2 20.7C46.4 21.1 46.5 21.4 46.7 21.8C46.5 21.9 46.4 22 46.2 22.1C45.9 22.3 45.7 22.5 45.4 22.6C45 22.9 44.6 23.2 44.2 23.5C43.9 22.5 43.4 21.6 42.9 20.7L44.8 18.4ZM47.2 29.8L46.1 29.7L45.6 29.6C45.1 29.5 44.5 29.5 44 29.4C44.1 29 44.3 28.6 44.4 28.1C44.6 27.1 44.7 26 44.5 25C44.9 24.7 45.3 24.3 45.8 24C45.9 23.9 46.1 23.8 46.2 23.7C46.5 23.5 46.8 23.3 47.1 23.1C47.4 24.2 47.6 25.3 47.6 26.4C47.7 27.5 47.5 28.6 47.2 29.8ZM47.9 21C47.6 20.3 47.2 19.6 46.8 19C46.6 18.6 46.3 18.3 46.1 17.9C45.9 17.7 45.8 17.5 45.6 17.2L46.1 16.6L46.9 15.7C47.4 16.3 48 16.9 48.4 17.5C49 18.2 49.5 19 49.9 19.8C49.3 20.3 48.6 20.6 47.9 21ZM48.6 29.9C48.6 29.8 48.6 29.8 48.6 29.7C49 28.4 49.1 27.1 49.1 25.9C49.1 24.6 48.8 23.4 48.4 22.2C49.1 21.8 49.8 21.5 50.5 21.1C51 22.3 51.4 23.6 51.5 24.9C51.6 26.2 51.4 27.5 51 28.8C50.9 29.2 50.7 29.7 50.5 30.1C49.9 30.1 49.3 30 48.6 29.9Z" fill="#DFEEFA"/>
<path d="M32.3004 53.6L30.7004 27V27.1L30.1004 34.4L29.6004 39.9L29.5004 41.5C29.4004 42.4 28.8004 43.1 27.9004 43C26.7004 42.9 26.5004 41.7 26.3004 40.8C26.2004 40.5 26.2004 40.1 26.1004 39.8C26.0004 39.8 25.9004 39.8 25.8004 39.8C25.7004 39.8 25.5004 39.8 25.4004 39.8C25.3004 39.8 25.2004 39.8 25.1004 39.8C23.9004 39.8 23.3004 38.9 22.9004 37.9C22.9004 37.8 22.8004 37.7 22.8004 37.6C21.9004 39.1 20.5004 39.8 18.4004 39.8H16.2004C20.8004 45.1 26.2004 49.9 31.4004 54.5C31.6004 54.2 32.0004 53.9 32.3004 53.6L32.4004 55.8C32.5004 57.7 35.1004 57.6 35.1004 55.7C35.1004 55.6 35.1004 55.5 35.1004 55.5L35.8004 50.4C39.8004 46.8 43.6004 43.1 47.0004 39.1C46.8004 38.8 46.6004 38.4 46.5004 38C46.1004 37 45.6004 36.9 44.6004 36.9C44.6004 36.9 44.6004 36.9 44.5004 36.9C43.5004 36.9 42.6004 36.9 42.3004 38C42.0004 39 41.5004 39.8 40.3004 39.8C40.2004 39.8 40.0004 39.8 39.9004 39.8C39.3004 39.8 38.8004 39.8 38.2004 39.8C38.0004 39.8 37.9004 39.8 37.7004 39.8C37.6004 39.8 37.5004 39.8 37.4004 39.8V40L36.0004 49.3L35.8004 50.3L33.0004 52.9C32.9004 53 32.8004 53 32.8004 53.1L32.3004 53.6Z" fill="#DFEEFA"/>
<path d="M51.1996 50.4C46.1996 55.4 39.1996 58.6 31.4996 58.6C30.7996 58.6 30.1996 58.6 29.4996 58.5C22.5996 58 16.3996 55 11.7996 50.4C9.19961 47.8 7.19961 44.8 5.79961 41.4C5.19961 39.9 7.0996 39.9 7.9996 39.9H15.9996C15.7996 39.6 15.4996 39.4 15.2996 39.1C15.1996 38.9 14.9996 38.8 14.8996 38.6L14.7996 38.5C14.6996 38.3 14.4996 38.2 14.3996 38C14.0996 37.6 13.7996 37.3 13.4996 36.9H16.0996H18.0996C19.9996 36.9 20.3996 35.5 20.6996 33.9C20.9996 32.7 21.2996 31.3 22.8996 31.4C24.3996 31.5 24.7996 33.2 24.9996 34.5C24.9996 34.7 25.0996 34.9 25.0996 35C25.1996 35.5 25.2996 36.3 25.3996 36.8H25.4996C25.5996 36.8 25.5996 36.8 25.6996 36.8C25.9996 36.8 26.3996 36.8 26.6996 36.8L27.9996 24.2L28.4996 19.2C28.7996 19.5 29.0996 19.9 29.2996 20.2C29.3996 20.4 29.4996 20.5 29.5996 20.7C29.5996 20.7 29.5996 20.8 29.6996 20.8C29.7996 21 29.8996 21.1 29.9996 21.3L31.0996 23.2L32.1996 21.3C32.2996 21.1 32.3996 20.9 32.4996 20.8C32.4996 20.8 32.4996 20.7 32.5996 20.7C32.6996 20.5 32.7996 20.4 32.8996 20.2L32.0996 8.00003C32.0996 7.20003 31.7996 6.60003 30.9996 6.50003C30.1996 6.40003 29.6996 7.10003 29.6996 7.90003L28.4996 19.1C22.1996 12 7.8996 11.2 7.8996 23.4C7.8996 28.2 10.4996 32.9 13.4996 36.7C9.4996 36.7 5.3996 36.7 1.3996 36.7C2.5996 42.7 5.59961 48.1 9.79961 52.2C14.8996 57.3 21.7996 60.6 29.4996 61.1C30.1996 61.1 30.7996 61.2 31.4996 61.2C39.9996 61.2 47.5996 57.8 53.1996 52.2C54.8996 50.5 56.2996 48.7 57.5996 46.7H54.1996C53.2996 48.1 52.2996 49.3 51.1996 50.4Z" fill="#DFEEFA"/>
<path d="M83.52 43.6V17.874H87.548V40.18H96.478L96.06 43.6H83.52ZM105.437 17.494C110.947 17.494 113.455 21.674 113.455 30.528C113.455 39.724 111.061 44.056 105.247 44.056C99.7751 44.056 97.2291 39.838 97.2291 30.528C97.2291 21.408 100.193 17.494 105.437 17.494ZM105.323 20.876C102.435 20.876 101.371 24.296 101.371 30.452C101.371 36.988 102.473 40.674 105.323 40.674C108.325 40.674 109.351 37.216 109.351 30.49C109.351 23.992 108.249 20.876 105.323 20.876ZM125.921 43.6H121.209L114.825 17.874H119.119L121.665 29.236C122.425 32.732 123.261 36.76 123.565 39.382H123.641C123.945 36.912 125.009 32.77 125.769 29.312L128.277 17.874H132.457L125.921 43.6ZM147.229 28.362V31.858H138.831V40.142H148.217L147.685 43.6H134.879V17.874H147.609V21.408H138.831V28.362H147.229ZM161.752 43.6V21.408H156.166V17.874H171.328V21.408H165.742V43.6H161.752ZM180.264 32.352H177.908V43.6H173.918V17.874H181.404C185.964 17.874 188.472 20.306 188.472 24.79C188.472 28.552 186.534 30.148 185.128 30.68C187.256 31.592 188.13 33.416 188.13 37.178V38.204C188.13 40.94 188.244 42.232 188.472 43.6H184.558C184.216 42.422 184.14 40.332 184.14 38.128V37.216C184.14 33.72 183.38 32.352 180.264 32.352ZM177.908 21.142V29.046H180.454C183.342 29.046 184.482 27.678 184.482 24.942C184.482 22.586 183.38 21.142 180.834 21.142H177.908ZM202.273 36.57H196.079L194.597 43.6H190.569L196.611 17.874H201.817L207.973 43.6H203.755L202.273 36.57ZM196.801 33.074H201.551C200.373 27.678 199.537 23.916 199.157 21.598H199.081C198.739 23.916 197.827 28.058 196.801 33.074ZM213.971 43.6H210.323V17.874H214.959C220.887 33.34 221.913 35.962 222.217 37.14H222.255C222.065 33.948 222.027 30.11 222.027 25.93V17.874H225.675V43.6H221.229C215.073 27.222 214.123 24.638 213.819 23.498H213.781C213.971 26.69 213.971 30.642 213.971 35.24V43.6ZM228.769 36.57H232.759C232.949 38.888 233.975 40.826 236.483 40.826C238.877 40.826 239.903 39.382 239.903 37.102C239.903 34.784 238.839 33.492 235.495 31.896C231.239 29.844 229.491 28.02 229.491 24.258C229.491 20.306 231.999 17.494 236.521 17.494C242.031 17.494 243.399 21.294 243.475 24.524H239.561C239.409 23.118 239.029 20.686 236.407 20.686C234.355 20.686 233.481 22.054 233.481 23.916C233.481 25.968 234.393 26.918 237.471 28.362C242.069 30.528 243.969 32.618 243.969 36.76C243.969 40.826 241.537 44.018 236.369 44.018C230.707 44.018 228.921 40.37 228.769 36.57ZM247.321 43.6V17.874H260.089V21.408H251.311V28.666H259.557V32.162H251.311V43.6H247.321ZM262.901 17.874H266.929V35.696C266.929 38.052 267.537 40.674 270.577 40.674C273.541 40.674 274.225 38.47 274.225 35.734V17.874H278.215V35.772C278.215 40.446 276.467 44.056 270.501 44.056C264.687 44.056 262.901 40.636 262.901 35.848V17.874ZM281.131 36.57H285.121C285.311 38.888 286.337 40.826 288.845 40.826C291.239 40.826 292.265 39.382 292.265 37.102C292.265 34.784 291.201 33.492 287.857 31.896C283.601 29.844 281.853 28.02 281.853 24.258C281.853 20.306 284.361 17.494 288.883 17.494C294.393 17.494 295.761 21.294 295.837 24.524H291.923C291.771 23.118 291.391 20.686 288.769 20.686C286.717 20.686 285.843 22.054 285.843 23.916C285.843 25.968 286.755 26.918 289.833 28.362C294.431 30.528 296.331 32.618 296.331 36.76C296.331 40.826 293.899 44.018 288.731 44.018C283.069 44.018 281.283 40.37 281.131 36.57ZM299.682 17.874H303.71V43.6H299.682V17.874ZM315.736 17.494C321.246 17.494 323.754 21.674 323.754 30.528C323.754 39.724 321.36 44.056 315.546 44.056C310.074 44.056 307.528 39.838 307.528 30.528C307.528 21.408 310.492 17.494 315.736 17.494ZM315.622 20.876C312.734 20.876 311.67 24.296 311.67 30.452C311.67 36.988 312.772 40.674 315.622 40.674C318.624 40.674 319.65 37.216 319.65 30.49C319.65 23.992 318.548 20.876 315.622 20.876ZM331.162 43.6H327.514V17.874H332.15C338.078 33.34 339.104 35.962 339.408 37.14H339.446C339.256 33.948 339.218 30.11 339.218 25.93V17.874H342.866V43.6H338.42C332.264 27.222 331.314 24.638 331.01 23.498H330.972C331.162 26.69 331.162 30.642 331.162 35.24V43.6Z" fill="#E9F5FE"/>
</svg>
