<svg width="320" height="47" viewBox="0 0 320 47" fill="none" xmlns="http://www.w3.org/2000/svg">
<g clip-path="url(#clip0_65_973)">
<path fill-rule="evenodd" clip-rule="evenodd" d="M45.8 25.86C44.55 37.36 34.8 46.32 22.97 46.32C10.29 46.32 0 36.03 0 23.35C0 20.06 0.69 16.93 1.94 14.1C3.08 11.36 4.75 8.85 6.89 6.71C11 2.61 16.44 0.24 22.21 0.02V0H23.71C29.57 0.17 35.12 2.55 39.28 6.71C43.38 10.81 45.75 16.26 45.97 22.03H45.99V23.53H45.98C45.96 24.32 45.9 25.09 45.8 25.86Z" fill="#D3EDF8"/>
<path d="M18.6397 27.39C18.6397 27.39 18.6797 27.39 18.6997 27.39C18.9897 27.39 19.2897 27.39 19.5797 27.39L21.7797 6.80998C21.8297 6.21998 22.1497 5.77998 22.7397 5.82998C23.2897 5.87998 23.5197 6.32998 23.5197 6.87998L24.8697 28.48L24.9697 30.48C25.0297 29.94 25.0897 29.4 25.1397 28.86C25.1397 28.72 25.1597 28.59 25.1897 28.48C25.3997 27.62 26.2297 27.37 27.1197 27.37C27.3797 27.37 27.6397 27.37 27.8997 27.39C28.1897 27.4 28.4897 27.41 28.7797 27.42C29.1397 26.44 29.6997 25.88 30.4497 25.59C30.4397 26.8 30.3797 27.99 30.2997 29.17C30.0797 29.41 29.7697 29.55 29.3297 29.57C28.8197 29.59 28.3197 29.57 27.8197 29.55C27.6297 29.55 27.4397 29.53 27.2397 29.53L25.6297 40.99C25.6297 41.05 25.6197 41.11 25.6097 41.17C25.5797 42.54 23.7297 42.58 23.6697 41.21L22.7797 28.49L22.3697 20.36L21.6697 28.49L21.4697 30.78C21.4097 31.43 20.9797 31.91 20.2897 31.87H20.2697C19.4397 31.8 19.2597 30.94 19.1197 30.28C19.0697 30.04 19.0297 29.81 18.9797 29.57C18.8997 29.57 18.8197 29.57 18.7497 29.57C18.5797 29.57 18.4097 29.57 18.2397 29.57C17.5097 29.57 17.0797 29.09 16.8097 28.49C16.7397 28.32 16.6697 28.15 16.6197 27.97C16.4997 28.16 16.3697 28.33 16.2297 28.49C15.5797 29.21 14.6797 29.57 13.4497 29.57H12.2697C12.1597 28.93 12.0597 28.2 11.9697 27.42H13.4397C14.8097 27.42 15.0597 26.44 15.2997 25.29C15.4897 24.41 15.7497 23.39 16.8897 23.46C18.1397 23.54 18.2997 25.15 18.4397 26.09C18.4897 26.45 18.5497 27 18.6497 27.41L18.6397 27.39Z" fill="#38AADF"/>
<path fill-rule="evenodd" clip-rule="evenodd" d="M22.7998 40.26C26.7298 36.77 30.8498 33.14 34.2198 29.13C36.7798 26.09 39.5098 22.09 39.5098 17.96C39.5098 8.41003 27.1998 9.95003 23.5598 16.43L22.7998 17.79L22.0398 16.43C18.3998 9.95003 6.08984 8.41003 6.08984 17.96C6.08984 22.1 8.81984 26.09 11.3798 29.13C14.7598 33.13 18.8698 36.77 22.7998 40.26Z" fill="#38AADF"/>
<path d="M23.0005 1.09003C29.0905 1.09003 34.5905 3.56003 38.5805 7.54003C42.5605 11.52 45.0305 17.03 45.0305 23.12C45.0305 25.42 44.6805 27.59 44.0205 29.68C41.2205 29.68 38.4405 29.7 35.5905 29.7C34.7705 29.7 34.3905 29.27 34.1305 28.62C34.1005 28.54 34.0605 28.45 34.0305 28.36C33.7705 27.61 33.3305 27.59 32.6105 27.59C31.8605 27.59 31.2805 27.59 31.0105 28.4C30.9805 28.48 30.9605 28.56 30.9305 28.63C30.6905 29.26 30.3405 29.68 29.5605 29.71C29.0505 29.73 28.5505 29.71 28.0505 29.69C27.8605 29.69 27.6705 29.67 27.4705 29.67V29.78H25.3005L25.3805 29.01C25.3805 28.87 25.4005 28.74 25.4305 28.63C25.6405 27.77 26.4705 27.52 27.3605 27.52C27.6205 27.52 27.8805 27.52 28.1505 27.54C28.4405 27.55 28.7405 27.56 29.0305 27.57C29.3505 26.71 29.8205 26.17 30.4405 25.86H34.6905C35.2805 26.18 35.7305 26.72 36.0405 27.56H40.9305C41.4505 27.56 41.8105 27.54 42.0705 27.45C42.2605 27.38 42.4305 27.25 42.6305 27.01C42.8805 25.76 43.0105 24.46 43.0105 23.13C43.0105 17.61 40.7705 12.62 37.1505 9.00003C33.5305 5.38003 28.5305 3.14003 23.0105 3.14003C22.5305 3.14003 22.0505 3.15003 21.5805 3.19003V1.14003C22.0505 1.11003 22.5305 1.09003 23.0105 1.09003H23.0005ZM21.5705 45.11V43.07C22.0405 43.1 22.5205 43.12 23.0005 43.12C28.5205 43.12 33.5205 40.88 37.1405 37.26C37.9205 36.48 38.6405 35.63 39.2805 34.74H41.7305C40.8305 36.18 39.7805 37.51 38.5805 38.71C34.6005 42.69 29.0905 45.16 23.0005 45.16C22.5205 45.16 22.0405 45.14 21.5705 45.11ZM21.5705 29.78H21.7905L21.8905 28.63L22.1305 25.85H21.5705V29.78ZM21.5705 3.18003C16.6205 3.53003 12.1705 5.68003 8.86047 8.99003C5.37047 12.48 3.16047 17.26 3.01047 22.54H0.980469C1.13047 16.69 3.57047 11.4 7.42047 7.55003C11.0905 3.88003 16.0505 1.50003 21.5705 1.15003V3.19003V3.18003ZM21.5705 25.85V29.78H19.2205L19.2005 29.7C19.1205 29.7 19.0405 29.7 18.9705 29.7C18.8005 29.7 18.6305 29.7 18.4605 29.7C17.7305 29.7 17.3005 29.22 17.0305 28.62C16.9605 28.45 16.8905 28.28 16.8405 28.1C16.7205 28.29 16.5905 28.46 16.4505 28.62C15.8005 29.34 14.9005 29.7 13.6705 29.7H6.13047C5.47047 29.7 4.08047 29.7 4.52047 30.76C5.53047 33.21 7.02047 35.41 8.87047 37.26C12.1805 40.57 16.6305 42.72 21.5805 43.07V45.11C16.0605 44.76 11.1005 42.38 7.43047 38.71C4.44047 35.71 2.30047 31.86 1.42047 27.54C5.49047 27.54 9.57047 27.56 13.6705 27.55C14.8705 27.55 15.2105 26.8 15.4405 25.85H18.6205C18.6405 25.99 18.6605 26.12 18.6805 26.23C18.7305 26.59 18.7905 27.14 18.9005 27.55C18.9205 27.55 18.9405 27.55 18.9605 27.55C19.2505 27.55 19.5505 27.55 19.8405 27.55L19.9905 25.85H21.5905H21.5705Z" fill="#38AADF"/>
<path d="M18.6604 27.55C18.6604 27.55 18.7004 27.55 18.7204 27.55C19.0104 27.55 19.3104 27.55 19.6004 27.55L20.9004 14.87C21.3304 15.35 21.7104 15.88 22.0304 16.44L22.7904 17.8L23.5504 16.44C23.7104 16.16 23.8804 15.89 24.0704 15.64L24.9804 30.64C25.0404 30.1 25.1004 29.56 25.1504 29.02C25.1804 27.85 26.1104 27.53 27.1204 27.53C27.3804 27.53 27.6404 27.54 27.9104 27.55C28.2004 27.56 28.5004 27.58 28.7904 27.58C29.4104 25.89 30.6404 25.45 32.3804 25.45C33.9904 25.45 35.0604 25.88 35.6903 27.29C35.2104 27.94 34.7104 28.56 34.2204 29.14L34.2004 29.17C34.0404 28.95 33.9204 28.68 33.8104 28.37C33.5504 27.62 33.1103 27.6 32.3904 27.6C31.6404 27.6 31.0604 27.6 30.7904 28.41C30.5404 29.16 30.2104 29.69 29.3404 29.72C28.8304 29.74 28.3304 29.72 27.8304 29.7C27.6404 29.7 27.4504 29.68 27.2504 29.68L26.1404 37.23L24.0904 39.13L23.5504 39.61L22.3704 20.52L21.4804 30.94C21.4204 31.59 20.9904 32.07 20.3004 32.03H20.2804C19.4504 31.96 19.2704 31.1 19.1304 30.44C19.0804 30.2 19.0404 29.97 18.9904 29.73C18.9104 29.73 18.8304 29.73 18.7604 29.73C18.5904 29.73 18.4204 29.73 18.2504 29.73C17.3204 29.73 16.8704 28.96 16.6204 28.14C15.9604 29.21 14.9404 29.74 13.4504 29.74H11.8704C11.7104 29.55 11.5404 29.36 11.3804 29.17C10.9604 28.67 10.5304 28.14 10.1104 27.59H13.4404C14.8104 27.59 15.0604 26.61 15.3004 25.46C15.4904 24.58 15.7504 23.56 16.8904 23.63C18.1404 23.71 18.3004 25.32 18.4404 26.26C18.4904 26.62 18.5504 27.17 18.6504 27.58L18.6604 27.55Z" fill="white"/>
<path opacity="0.5" d="M34.0303 12.44C34.4203 12.86 34.8003 13.31 35.1403 13.77C35.5403 14.3 35.9103 14.86 36.2203 15.44C35.7203 15.66 35.2403 15.9 34.7703 16.17C34.5403 15.68 34.2803 15.2 33.9903 14.74C33.8303 14.48 33.6603 14.23 33.4803 13.98V13.1L34.0203 12.45L34.0303 12.44ZM33.4903 22.36V18.11C33.7103 17.95 33.9403 17.8 34.1703 17.65C34.4003 18.42 34.5303 19.21 34.5503 20.02C34.5703 20.82 34.4703 21.64 34.2703 22.46L33.4903 22.36ZM33.4903 16.94C33.6003 16.87 33.7203 16.79 33.8403 16.72C33.7303 16.46 33.6203 16.21 33.4903 15.96V16.95V16.94ZM36.6403 16.29C37.0103 17.17 37.2703 18.08 37.3303 19.01C37.4003 19.94 37.2703 20.89 36.9903 21.84C36.9903 21.84 36.9903 21.84 37.0003 21.84C36.9003 22.16 36.7903 22.47 36.6603 22.77C36.1903 22.71 35.7203 22.64 35.2503 22.58C35.2603 22.54 35.2703 22.5 35.2903 22.46C35.5503 21.54 35.6803 20.61 35.6603 19.71C35.6303 18.8 35.4503 17.91 35.1503 17.05C35.6303 16.77 36.1403 16.51 36.6503 16.28L36.6403 16.29ZM33.4903 13.97C33.3803 13.81 33.2603 13.66 33.1403 13.5L33.4903 13.08V13.96V13.97ZM33.4903 15.95V16.94C33.2903 17.07 33.1003 17.2 32.9103 17.33C32.6103 17.54 32.3103 17.76 32.0203 17.98C31.8003 17.29 31.4803 16.63 31.0703 15.99L32.5103 14.27C32.8803 14.81 33.2103 15.37 33.5003 15.95H33.4903ZM33.4903 18.11V22.36L33.0903 22.31C32.7003 22.26 32.3003 22.21 31.9103 22.16C32.0203 21.86 32.1003 21.56 32.1703 21.25C32.1703 21.25 32.1703 21.25 32.1803 21.25C32.3403 20.51 32.3603 19.77 32.2603 19.05C32.5603 18.8 32.8703 18.57 33.1903 18.34C33.2903 18.27 33.3903 18.2 33.4903 18.12V18.11Z" fill="url(#paint0_linear_65_973)"/>
<path d="M58.3102 36.16V10.434H62.3382V32.74H71.2682L70.8502 36.16H58.3102ZM80.2273 10.054C85.7373 10.054 88.2453 14.234 88.2453 23.088C88.2453 32.284 85.8513 36.616 80.0373 36.616C74.5653 36.616 72.0193 32.398 72.0193 23.088C72.0193 13.968 74.9833 10.054 80.2273 10.054ZM80.1133 13.436C77.2253 13.436 76.1613 16.856 76.1613 23.012C76.1613 29.548 77.2633 33.234 80.1133 33.234C83.1153 33.234 84.1413 29.776 84.1413 23.05C84.1413 16.552 83.0393 13.436 80.1133 13.436ZM100.711 36.16H95.9991L89.6151 10.434H93.9091L96.4551 21.796C97.2151 25.292 98.0511 29.32 98.3551 31.942H98.4311C98.7351 29.472 99.7991 25.33 100.559 21.872L103.067 10.434H107.247L100.711 36.16ZM122.02 20.922V24.418H113.622V32.702H123.008L122.476 36.16H109.67V10.434H122.4V13.968H113.622V20.922H122.02ZM136.542 36.16V13.968H130.956V10.434H146.118V13.968H140.532V36.16H136.542ZM155.055 24.912H152.699V36.16H148.709V10.434H156.195C160.755 10.434 163.263 12.866 163.263 17.35C163.263 21.112 161.325 22.708 159.919 23.24C162.047 24.152 162.921 25.976 162.921 29.738V30.764C162.921 33.5 163.035 34.792 163.263 36.16H159.349C159.007 34.982 158.931 32.892 158.931 30.688V29.776C158.931 26.28 158.171 24.912 155.055 24.912ZM152.699 13.702V21.606H155.245C158.133 21.606 159.273 20.238 159.273 17.502C159.273 15.146 158.171 13.702 155.625 13.702H152.699ZM177.063 29.13H170.869L169.387 36.16H165.359L171.401 10.434H176.607L182.763 36.16H178.545L177.063 29.13ZM171.591 25.634H176.341C175.163 20.238 174.327 16.476 173.947 14.158H173.871C173.529 16.476 172.617 20.618 171.591 25.634ZM188.761 36.16H185.113V10.434H189.749C195.677 25.9 196.703 28.522 197.007 29.7H197.045C196.855 26.508 196.817 22.67 196.817 18.49V10.434H200.465V36.16H196.019C189.863 19.782 188.913 17.198 188.609 16.058H188.571C188.761 19.25 188.761 23.202 188.761 27.8V36.16ZM203.56 29.13H207.55C207.74 31.448 208.766 33.386 211.274 33.386C213.668 33.386 214.694 31.942 214.694 29.662C214.694 27.344 213.63 26.052 210.286 24.456C206.03 22.404 204.282 20.58 204.282 16.818C204.282 12.866 206.79 10.054 211.312 10.054C216.822 10.054 218.19 13.854 218.266 17.084H214.352C214.2 15.678 213.82 13.246 211.198 13.246C209.146 13.246 208.272 14.614 208.272 16.476C208.272 18.528 209.184 19.478 212.262 20.922C216.86 23.088 218.76 25.178 218.76 29.32C218.76 33.386 216.328 36.578 211.16 36.578C205.498 36.578 203.712 32.93 203.56 29.13ZM222.111 36.16V10.434H234.879V13.968H226.101V21.226H234.347V24.722H226.101V36.16H222.111ZM237.692 10.434H241.72V28.256C241.72 30.612 242.328 33.234 245.368 33.234C248.332 33.234 249.016 31.03 249.016 28.294V10.434H253.006V28.332C253.006 33.006 251.258 36.616 245.292 36.616C239.478 36.616 237.692 33.196 237.692 28.408V10.434ZM255.921 29.13H259.911C260.101 31.448 261.127 33.386 263.635 33.386C266.029 33.386 267.055 31.942 267.055 29.662C267.055 27.344 265.991 26.052 262.647 24.456C258.391 22.404 256.643 20.58 256.643 16.818C256.643 12.866 259.151 10.054 263.673 10.054C269.183 10.054 270.551 13.854 270.627 17.084H266.713C266.561 15.678 266.181 13.246 263.559 13.246C261.507 13.246 260.633 14.614 260.633 16.476C260.633 18.528 261.545 19.478 264.623 20.922C269.221 23.088 271.121 25.178 271.121 29.32C271.121 33.386 268.689 36.578 263.521 36.578C257.859 36.578 256.073 32.93 255.921 29.13ZM274.472 10.434H278.5V36.16H274.472V10.434ZM290.526 10.054C296.036 10.054 298.544 14.234 298.544 23.088C298.544 32.284 296.15 36.616 290.336 36.616C284.864 36.616 282.318 32.398 282.318 23.088C282.318 13.968 285.282 10.054 290.526 10.054ZM290.412 13.436C287.524 13.436 286.46 16.856 286.46 23.012C286.46 29.548 287.562 33.234 290.412 33.234C293.414 33.234 294.44 29.776 294.44 23.05C294.44 16.552 293.338 13.436 290.412 13.436ZM305.952 36.16H302.304V10.434H306.94C312.868 25.9 313.894 28.522 314.198 29.7H314.236C314.046 26.508 314.008 22.67 314.008 18.49V10.434H317.656V36.16H313.21C307.054 19.782 306.104 17.198 305.8 16.058H305.762C305.952 19.25 305.952 23.202 305.952 27.8V36.16Z" fill="#38AADF"/>
</g>
<defs>
<linearGradient id="paint0_linear_65_973" x1="35.5603" y1="33.02" x2="31.4103" y2="-14.31" gradientUnits="userSpaceOnUse">
<stop offset="0.15" stop-color="#3598CB"/>
<stop offset="0.24" stop-color="#FFF7F4"/>
<stop offset="1" stop-color="white"/>
</linearGradient>
<clipPath id="clip0_65_973">
<rect width="319.99" height="46.32" fill="white"/>
</clipPath>
</defs>
</svg>
