<svg width="353" height="44" viewBox="0 0 353 44" fill="none" xmlns="http://www.w3.org/2000/svg">
<path d="M42.201 22.0687C42.201 16.2266 39.8641 11.003 36.0152 7.15404C32.235 3.37382 26.9426 0.968231 21.1005 0.968231C20.6194 0.968231 20.207 0.968231 19.7259 1.03696C14.4336 1.38062 9.69111 3.64875 6.18581 7.15404C2.47433 10.8655 0.137463 15.8829 0 21.5189H1.92448C2.06194 16.4328 4.1926 11.8965 7.4917 8.52867C10.6533 5.36703 14.9147 3.30509 19.6571 2.96144C20.1383 2.96144 20.5506 2.89271 21.0318 2.89271C26.3241 2.89271 31.0665 5.02338 34.5718 8.52867C38.0084 11.9652 40.2078 16.7764 40.2078 22.0687C40.2078 23.3059 40.0703 24.5431 39.8641 25.7802C39.6579 25.9864 39.5205 26.1239 39.3143 26.1926C39.0393 26.2613 38.6957 26.2613 38.2146 26.2613H33.5409C33.4721 26.1239 33.4034 25.9864 33.3346 25.8489C35.2591 23.3059 36.8399 20.213 36.8399 17.1201C36.8399 8.39121 26.0491 9.35344 22.0627 14.9207L22.4751 19.3195L23.025 28.4607L23.0937 29.0793V29.2855C23.1624 28.7357 23.2312 28.2545 23.2312 27.7047C23.2312 26.605 24.1247 26.2613 25.0869 26.2613C25.1556 26.2613 25.1556 26.2613 25.2244 26.2613C25.4306 26.2613 25.6368 26.2613 25.8429 26.2613C26.1179 26.2613 26.3928 26.2613 26.6677 26.2613C27.0114 25.3678 27.5612 24.818 28.2485 24.543C28.7984 24.3369 29.417 24.2681 30.1043 24.2681C30.8603 24.2681 31.5476 24.4056 32.0975 24.6805C32.5786 24.9554 32.991 25.3678 33.2659 26.0551C33.1285 26.1926 33.0597 26.3301 32.9223 26.5363C32.7161 26.8112 32.4412 27.0861 32.235 27.361C32.235 27.361 32.235 27.4298 32.1662 27.4298C32.0975 27.4985 32.0288 27.636 31.96 27.7047C32.2349 28.1171 32.5786 28.392 33.1972 28.392C35.9464 28.392 38.5582 28.392 41.2387 28.392C41.8573 26.3301 42.201 24.2681 42.201 22.0687ZM30.2417 13.6148C30.5854 14.1646 30.9291 14.6458 31.204 15.1956C31.3415 15.4705 31.4102 15.6767 31.5477 15.9516C31.4102 16.0204 31.3415 16.0891 31.204 16.1578C30.9978 16.2953 30.8603 16.4328 30.6541 16.5015C30.3792 16.7077 30.1043 16.9139 29.8294 17.1201C29.6232 16.4328 29.2795 15.8142 28.9359 15.1956L30.2417 13.6148ZM31.8913 21.4501L31.1353 21.3814L30.7916 21.3127C30.4479 21.244 30.0356 21.2439 29.6919 21.1752C29.7606 20.9003 29.8981 20.6254 29.9668 20.2817C30.1043 19.5944 30.173 18.8384 30.0356 18.151C30.3105 17.9448 30.5854 17.6699 30.9291 17.4637C30.9978 17.395 31.1353 17.3263 31.204 17.2575C31.4102 17.1201 31.6164 16.9826 31.8226 16.8452C32.0288 17.6012 32.1662 18.3572 32.1662 19.1133C32.235 19.8693 32.0975 20.6254 31.8913 21.4501ZM32.3724 15.4018C32.1662 14.9207 31.8913 14.4396 31.6164 14.0272C31.4789 13.7522 31.2727 13.5461 31.1353 13.2711C30.9978 13.1337 30.9291 12.9962 30.7916 12.79L31.1353 12.3776L31.6851 11.759C32.0288 12.1714 32.4411 12.5838 32.7161 12.9962C33.1285 13.4773 33.4721 14.0272 33.747 14.577C33.3347 14.9207 32.8535 15.1269 32.3724 15.4018ZM32.8535 21.5189C32.8535 21.4501 32.8535 21.4501 32.8535 21.3814C33.1285 20.4879 33.1972 19.5944 33.1972 18.7696C33.1972 17.8761 32.991 17.0513 32.7161 16.2266C33.1972 15.9516 33.6783 15.7455 34.1594 15.4705C34.5031 16.2953 34.778 17.1888 34.8467 18.0823C34.9155 18.9758 34.778 19.8693 34.5031 20.7628C34.4344 21.0378 34.2969 21.3814 34.1594 21.6563C33.747 21.6563 33.3347 21.5876 32.8535 21.5189Z" fill="#DFEEFA"/>
<path d="M21.6507 37.8082L20.551 19.5257V19.5944L20.1386 24.6118L19.7949 28.392L19.7262 29.4917C19.6575 30.1103 19.2451 30.5914 18.6265 30.5227C17.8017 30.4539 17.6643 29.6292 17.5268 29.0106C17.4581 28.8044 17.4581 28.5295 17.3894 28.3233C17.3206 28.3233 17.2519 28.3233 17.1831 28.3233C17.1144 28.3233 16.977 28.3233 16.9082 28.3233C16.8395 28.3233 16.7708 28.3233 16.702 28.3233C15.8773 28.3233 15.4649 27.7047 15.1899 27.0174C15.1899 26.9486 15.1212 26.8799 15.1212 26.8112C14.5026 27.8421 13.5404 28.3233 12.097 28.3233H10.585C13.7466 31.966 17.4581 35.2651 21.0321 38.4268C21.1696 38.2206 21.4445 38.0144 21.6507 37.8082L21.7194 39.3203C21.7881 40.6262 23.5752 40.5574 23.5752 39.2515C23.5752 39.1828 23.5752 39.1141 23.5752 39.1141L24.0563 35.6088C26.8055 33.1345 29.4173 30.5914 31.7542 27.8421C31.6167 27.636 31.4793 27.361 31.4105 27.0861C31.1356 26.3988 30.7919 26.3301 30.1046 26.3301C30.1046 26.3301 30.1046 26.3301 30.0359 26.3301C29.3486 26.3301 28.73 26.3301 28.5238 27.0861C28.3176 27.7734 27.974 28.3233 27.1492 28.3233C27.0804 28.3233 26.943 28.3233 26.8743 28.3233C26.4619 28.3233 26.1182 28.3233 25.7058 28.3233C25.5684 28.3233 25.4996 28.3233 25.3622 28.3233C25.2934 28.3233 25.2247 28.3233 25.156 28.3233V28.4607L24.1937 34.8527L24.0563 35.54L22.1318 37.3271C22.0631 37.3958 21.9943 37.3958 21.9943 37.4645L21.6507 37.8082Z" fill="#DFEEFA"/>
<path d="M34.6403 35.6088C31.2037 39.0453 26.3925 41.2447 21.1002 41.2447C20.6191 41.2447 20.2067 41.2447 19.7256 41.176C14.9831 40.8323 10.7218 38.7704 7.56017 35.6088C5.77315 33.8217 4.39853 31.7598 3.43629 29.4229C3.0239 28.392 4.3298 28.392 4.94838 28.392H10.4469C10.3094 28.1858 10.1032 28.0483 9.96576 27.8421C9.89703 27.7047 9.75956 27.6359 9.69083 27.4985L9.6221 27.4297C9.55337 27.2923 9.4159 27.2236 9.34717 27.0861C9.14098 26.8112 8.93479 26.605 8.7286 26.33H10.5156H11.8902C13.1961 26.33 13.4711 25.3678 13.6773 24.2681C13.8834 23.4433 14.0896 22.4811 15.1893 22.5498C16.2203 22.6186 16.4952 23.787 16.6327 24.6805C16.6327 24.818 16.7014 24.9554 16.7014 25.0242C16.7702 25.3678 16.8389 25.9177 16.9076 26.2613H16.9763C17.0451 26.2613 17.0451 26.2613 17.1138 26.2613C17.32 26.2613 17.5949 26.2613 17.8011 26.2613L18.6946 17.6012L19.0383 14.1646C19.2445 14.3708 19.4507 14.6457 19.5881 14.8519C19.6569 14.9894 19.7256 15.0581 19.7943 15.1956C19.7943 15.1956 19.7943 15.2643 19.8631 15.2643C19.9318 15.4018 20.0005 15.4705 20.0693 15.608L20.8253 16.9139L21.5813 15.608C21.6501 15.4705 21.7188 15.333 21.7875 15.2643C21.7875 15.2643 21.7875 15.1956 21.8563 15.1956C21.925 15.0581 21.9937 14.9894 22.0625 14.8519L21.5126 6.46671C21.5126 5.91686 21.3064 5.50447 20.7566 5.43574C20.2067 5.36701 19.8631 5.84813 19.8631 6.39798L19.0383 14.0959C14.7082 9.21596 4.87964 8.66611 4.87964 17.0513C4.87964 20.3504 6.66666 23.5808 8.7286 26.1926C5.97935 26.1926 3.16136 26.1926 0.412109 26.1926C1.23688 30.3165 3.29883 34.0279 6.18554 36.8459C9.69083 40.3512 14.4333 42.6194 19.7256 42.963C20.2067 42.963 20.6191 43.0317 21.1002 43.0317C26.9424 43.0317 32.166 40.6949 36.0149 36.8459C37.1833 35.6775 38.1456 34.4403 39.0391 33.0657H36.7022C36.0836 34.0279 35.3963 34.8527 34.6403 35.6088Z" fill="#DFEEFA"/>
<path d="M58.3993 37V7.16799H62.0953V33.832H72.6553L72.1713 37H58.3993ZM82.6904 6.72799C88.9384 6.72799 91.6224 11.656 91.6224 21.82C91.6224 32.16 89.0704 37.484 82.5144 37.484C76.3104 37.484 73.6704 32.336 73.6704 21.864C73.6704 11.568 76.7944 6.72799 82.6904 6.72799ZM82.6024 9.89599C79.0384 9.89599 77.4544 13.944 77.4544 21.776C77.4544 30.048 79.0384 34.316 82.6464 34.316C86.3424 34.316 87.8384 30.224 87.8384 21.864C87.8384 13.504 86.2544 9.89599 82.6024 9.89599ZM105.278 37H100.878L93.4859 7.16799H97.4459L100.614 21.028C101.582 25.164 102.682 30.224 103.034 33.128H103.122C103.518 30.488 104.882 25.208 105.85 21.072L109.106 7.16799H112.934L105.278 37ZM129.572 19.664V22.876H119.672V33.788H130.672L130.188 37H116.02V7.16799H130.056V10.424H119.672V19.664H129.572ZM146.444 37V10.424H139.8V7.16799H156.696V10.424H150.096V37H146.444ZM166.846 23.448H163.458V37H159.806V7.16799H167.858C172.962 7.16799 175.69 9.98399 175.69 14.956C175.69 19.4 173.446 21.292 171.686 21.908C174.37 22.92 175.294 25.252 175.294 29.476V30.664C175.294 33.568 175.382 35.416 175.69 37H172.082C171.686 35.636 171.642 33.04 171.642 30.62V29.564C171.642 25.384 170.762 23.448 166.846 23.448ZM163.458 10.248V20.368H167.022C170.586 20.368 171.95 18.476 171.95 15.088C171.95 12.14 170.586 10.248 167.374 10.248H163.458ZM191.77 27.936H184.158L182.134 37H178.438L185.61 7.16799H190.362L197.71 37H193.838L191.77 27.936ZM184.862 24.68H191.066C189.438 17.64 188.338 13.064 187.942 10.6H187.854C187.414 13.24 186.27 18.432 184.862 24.68ZM204.229 37H200.841V7.16799H205.285C213.117 27.056 214.305 29.916 214.657 31.236H214.701C214.525 27.32 214.437 22.832 214.437 17.992V7.16799H217.869V37H213.601C205.461 16.1 204.405 13.284 204.053 12.052H204.009C204.229 15.792 204.229 20.588 204.229 25.956V37ZM221.681 29.08H225.377C225.597 32.028 227.005 34.448 230.173 34.448C233.209 34.448 234.661 32.732 234.661 29.52C234.661 26.528 233.385 24.9 229.381 22.964C224.629 20.676 222.605 18.608 222.605 14.252C222.605 10.028 225.289 6.72799 230.261 6.72799C236.201 6.72799 237.785 10.952 237.873 14.516H234.265C234.133 13.02 233.693 9.76399 230.173 9.76399C227.445 9.76399 226.257 11.612 226.257 13.944C226.257 16.672 227.489 17.948 231.185 19.708C236.421 22.172 238.445 24.68 238.445 29.212C238.445 33.92 235.717 37.44 230.085 37.44C223.925 37.44 221.901 33.436 221.681 29.08ZM242.52 37V7.16799H256.6V10.424H246.172V19.928H255.94V23.184H246.172V37H242.52ZM260.002 7.16799H263.698V28.024C263.698 31.148 264.578 34.36 268.406 34.36C272.234 34.36 273.114 31.676 273.114 28.024V7.16799H276.81V28.112C276.81 33.524 274.83 37.484 268.318 37.484C262.07 37.484 260.002 33.744 260.002 28.244V7.16799ZM280.334 29.08H284.03C284.25 32.028 285.658 34.448 288.826 34.448C291.862 34.448 293.314 32.732 293.314 29.52C293.314 26.528 292.038 24.9 288.034 22.964C283.282 20.676 281.258 18.608 281.258 14.252C281.258 10.028 283.942 6.72799 288.914 6.72799C294.854 6.72799 296.438 10.952 296.526 14.516H292.918C292.786 13.02 292.346 9.76399 288.826 9.76399C286.098 9.76399 284.91 11.612 284.91 13.944C284.91 16.672 286.142 17.948 289.838 19.708C295.074 22.172 297.098 24.68 297.098 29.212C297.098 33.92 294.37 37.44 288.738 37.44C282.578 37.44 280.554 33.436 280.334 29.08ZM301.173 7.16799H304.869V37H301.173V7.16799ZM318.546 6.72799C324.794 6.72799 327.478 11.656 327.478 21.82C327.478 32.16 324.926 37.484 318.37 37.484C312.166 37.484 309.526 32.336 309.526 21.864C309.526 11.568 312.65 6.72799 318.546 6.72799ZM318.458 9.89599C314.894 9.89599 313.31 13.944 313.31 21.776C313.31 30.048 314.894 34.316 318.502 34.316C322.198 34.316 323.694 30.224 323.694 21.864C323.694 13.504 322.11 9.89599 318.458 9.89599ZM335.498 37H332.11V7.16799H336.554C344.386 27.056 345.574 29.916 345.926 31.236H345.97C345.794 27.32 345.706 22.832 345.706 17.992V7.16799H349.138V37H344.87C336.73 16.1 335.674 13.284 335.322 12.052H335.278C335.498 15.792 335.498 20.588 335.498 25.956V37Z" fill="#E9F5FE"/>
</svg>
