<svg width="302" height="250" viewBox="0 0 302 250" fill="none" xmlns="http://www.w3.org/2000/svg">
<g clip-path="url(#clip0_1910_911)">
<path opacity="0.05" d="M291.33 45.2C297.8 62 301.34 80.25 301.34 99.32C301.34 182.53 233.88 249.99 150.67 249.99C67.46 249.99 0 182.54 0 99.33C0 80.26 3.54 62.01 10.01 45.21H291.33V45.2Z" fill="#2F8EDD"/>
<path opacity="0.2" d="M275.95 99.33C275.95 168.52 219.86 224.61 150.67 224.61C81.48 224.61 25.4 168.52 25.4 99.33C25.4 79.95 29.8 61.59 37.66 45.21H263.69C271.55 61.59 275.95 79.95 275.95 99.33Z" fill="#2F8EDD"/>
<path opacity="0.36" d="M150.67 198.66C205.528 198.66 250 154.188 250 99.33C250 44.4716 205.528 0 150.67 0C95.8116 0 51.34 44.4716 51.34 99.33C51.34 154.188 95.8116 198.66 150.67 198.66Z" fill="#2F8EDD"/>
<path d="M150.67 173.35C191.55 173.35 224.69 140.21 224.69 99.33C224.69 58.4499 191.55 25.31 150.67 25.31C109.79 25.31 76.65 58.4499 76.65 99.33C76.65 140.21 109.79 173.35 150.67 173.35Z" fill="#2F8EDD"/>
<path d="M199.08 100.89C199.08 87.45 193.63 75.28 184.83 66.48C176.03 57.68 163.86 52.23 150.41 52.23C149.35 52.23 148.3 52.27 147.25 52.34C135.07 53.12 124.1 58.38 115.99 66.49C107.47 75.01 102.09 86.68 101.76 99.61H106.25C106.59 87.93 111.47 77.39 119.18 69.67C126.48 62.37 136.32 57.61 147.25 56.84C148.29 56.77 149.34 56.73 150.41 56.73C162.6 56.73 173.64 61.67 181.64 69.67C189.64 77.67 194.59 88.71 194.59 100.9V100.91C194.59 103.84 194.3 106.7 193.76 109.48C193.32 110.01 192.94 110.31 192.52 110.45C191.96 110.65 191.14 110.67 190 110.67V110.69H179.19C179.06 110.33 178.91 110.01 178.76 109.7C183.13 103.76 186.9 96.73 186.9 89.5C186.9 69.31 161.99 71.56 152.79 84.35L153.4 94.49L154.68 115.55L154.77 117.02L154.8 117.49C154.93 116.3 155.06 115.11 155.19 113.91C155.26 111.33 157.32 110.62 159.55 110.61C159.66 110.61 159.77 110.61 159.88 110.61C160.35 110.61 160.81 110.63 161.28 110.65C161.93 110.68 162.58 110.71 163.22 110.71C163.22 110.71 163.22 110.71 163.22 110.7C164 108.57 165.23 107.34 166.85 106.68C168.06 106.19 169.5 106.01 171.15 106.01C172.97 106.01 174.48 106.26 175.71 106.92C176.88 107.55 177.79 108.55 178.46 110.08C178.2 110.43 177.94 110.78 177.67 111.13C177.66 111.14 177.65 111.16 177.64 111.17C177.12 111.84 176.6 112.49 176.08 113.13C176.04 113.18 176.01 113.22 175.97 113.27C175.79 113.49 175.61 113.7 175.43 113.91C175.36 114 175.28 114.09 175.21 114.17C175.28 114.08 175.36 114 175.43 113.91C176 114.85 176.81 115.44 178.24 115.44C184.54 115.44 190.67 115.4 196.86 115.4C198.31 110.79 199.09 106 199.09 100.91V100.9L199.08 100.89ZM171.38 81.34C172.2 82.54 172.94 83.78 173.57 85.05C173.85 85.61 174.1 86.17 174.34 86.74C174.08 86.9 173.83 87.07 173.57 87.23C173.14 87.51 172.71 87.8 172.28 88.1C171.61 88.56 170.96 89.04 170.32 89.53C169.84 88.01 169.12 86.54 168.21 85.13L171.38 81.33V81.34ZM175.29 99.43L173.57 99.21L172.7 99.1C171.83 98.99 170.96 98.88 170.09 98.76C170.33 98.1 170.52 97.43 170.67 96.74C170.67 96.74 170.66 96.74 170.65 96.74H170.67C171.02 95.1 171.07 93.47 170.85 91.88C171.51 91.34 172.2 90.81 172.9 90.3C173.12 90.14 173.35 89.98 173.57 89.82C174.06 89.48 174.56 89.14 175.07 88.81C175.57 90.51 175.87 92.27 175.91 94.04C175.95 95.82 175.73 97.62 175.29 99.43ZM176.41 85.52C175.91 84.43 175.33 83.38 174.69 82.35C174.33 81.78 173.96 81.22 173.57 80.67C173.32 80.32 173.07 79.97 172.8 79.63L173.57 78.71L174.76 77.28C175.63 78.21 176.45 79.2 177.22 80.22C178.11 81.4 178.91 82.63 179.61 83.91C178.51 84.39 177.45 84.93 176.41 85.51V85.52ZM177.46 99.72C177.49 99.63 177.51 99.55 177.54 99.46C178.11 97.42 178.41 95.38 178.35 93.38C178.29 91.37 177.88 89.41 177.22 87.51C178.29 86.89 179.4 86.33 180.54 85.82C181.36 87.76 181.93 89.78 182.07 91.84C182.21 93.89 181.93 95.99 181.32 98.1C181.32 98.1 181.33 98.1 181.34 98.1H181.32C181.1 98.8 180.85 99.48 180.58 100.15C179.54 100.01 178.5 99.87 177.46 99.73V99.72Z" fill="white"/>
<path d="M151.63 137.28L149.02 95.1V95.26L148.01 106.91L147.27 115.59L147.05 118.11C146.93 119.55 145.96 120.61 144.45 120.51H144.41C142.57 120.35 142.17 118.46 141.86 116.99C141.75 116.47 141.66 115.94 141.55 115.42C141.38 115.42 141.21 115.42 141.03 115.42C140.79 115.42 140.56 115.42 140.33 115.42C140.19 115.42 140.04 115.42 139.9 115.42C138.03 115.42 137.04 114 136.47 112.38C136.41 112.22 136.36 112.06 136.31 111.9C134.85 114.26 132.62 115.42 129.35 115.43C129.34 115.43 129.33 115.43 129.32 115.43H125.86H125.84C133.09 123.78 141.72 131.41 150 138.76C150.54 138.28 151.09 137.79 151.64 137.3L151.88 140.78V140.81C152.02 143.83 156.11 143.74 156.18 140.71C156.2 140.58 156.21 140.45 156.23 140.32L157.37 132.17C163.64 126.49 169.83 120.57 175.18 114.24C174.82 113.76 174.56 113.16 174.33 112.48C173.77 110.86 172.82 110.77 171.27 110.77C171.24 110.77 171.21 110.77 171.18 110.77C169.52 110.77 168.23 110.78 167.65 112.55C167.1 114.21 166.37 115.38 164.44 115.45C164.21 115.45 163.97 115.46 163.74 115.46C162.86 115.46 161.97 115.44 161.09 115.4C160.83 115.39 160.57 115.38 160.3 115.37C160.14 115.37 159.98 115.36 159.81 115.36L159.77 115.6L157.6 130.38L157.36 132.03L152.84 136.22C152.72 136.33 152.6 136.43 152.48 136.54L151.64 137.29L151.63 137.28Z" fill="white"/>
<path d="M181.65 132.14C173.65 140.14 162.61 145.09 150.42 145.09C149.36 145.09 148.31 145.06 147.26 144.98C136.33 144.2 126.49 139.45 119.19 132.14C115.11 128.06 111.83 123.19 109.59 117.78C108.61 115.42 111.69 115.43 113.14 115.43L125.81 115.45C125.45 115.03 125.08 114.61 124.73 114.19C124.51 113.93 124.3 113.67 124.08 113.41C124.04 113.36 124 113.31 123.96 113.26C123.76 113.02 123.56 112.77 123.36 112.52C123.34 112.5 123.33 112.48 123.31 112.46C122.85 111.89 122.39 111.3 121.93 110.7H126.04L129.29 110.69C132.31 110.69 132.87 108.53 133.4 106C133.81 104.05 134.4 101.81 136.91 101.96C139.33 102.11 139.91 104.85 140.22 106.93C140.26 107.23 140.3 107.51 140.34 107.78C140.46 108.58 140.59 109.8 140.81 110.69C140.86 110.69 140.91 110.69 140.95 110.69C141.06 110.69 141.18 110.69 141.29 110.69C141.82 110.69 142.35 110.69 142.89 110.69L144.95 90.62L145.77 82.67C145.77 82.67 145.79 82.69 145.8 82.7C146.26 83.22 146.7 83.76 147.11 84.33C147.11 84.33 147.12 84.35 147.13 84.36C147.31 84.61 147.48 84.87 147.65 85.12C147.69 85.18 147.73 85.24 147.77 85.3C147.94 85.57 148.11 85.85 148.27 86.13L149.95 89.13L151.63 86.13C151.79 85.84 151.96 85.56 152.14 85.29C152.17 85.24 152.2 85.2 152.23 85.15C152.4 84.89 152.57 84.63 152.75 84.38L151.54 65C151.54 63.79 151.03 62.78 149.81 62.68C148.51 62.57 147.8 63.55 147.7 64.85L145.79 82.7C135.74 71.41 113.01 70.22 113.01 89.51C113.01 97.14 117.21 104.55 121.89 110.7C115.48 110.7 109.08 110.67 102.69 110.67C104.63 120.2 109.35 128.72 115.96 135.34C124.07 143.45 135.03 148.71 147.22 149.49C148.26 149.56 149.32 149.59 150.38 149.59C163.82 149.58 175.99 144.13 184.79 135.33C187.43 132.69 189.76 129.75 191.74 126.57H186.33C184.91 128.56 183.33 130.42 181.6 132.15L181.65 132.14Z" fill="white"/>
</g>
<defs>
<clipPath id="clip0_1910_911">
<rect width="301.35" height="250" fill="white"/>
</clipPath>
</defs>
</svg>
