<svg xmlns="http://www.w3.org/2000/svg" xmlns:xlink="http://www.w3.org/1999/xlink" width="218" zoomAndPan="magnify" viewBox="0 0 163.5 83.999999" height="112" preserveAspectRatio="xMidYMid meet" version="1.0"><defs><g/><clipPath id="c75407cc6e"><path d="M 129 6.558594 L 150 6.558594 L 150 56 L 129 56 Z M 129 6.558594 " clip-rule="nonzero"/></clipPath><clipPath id="1cc8cc994d"><path d="M 136 50 L 163 50 L 163 77.59375 L 136 77.59375 Z M 136 50 " clip-rule="nonzero"/></clipPath><clipPath id="ecb825a6a2"><path d="M 111 6.558594 L 132 6.558594 L 132 56 L 111 56 Z M 111 6.558594 " clip-rule="nonzero"/></clipPath><clipPath id="c848959bd7"><path d="M 98.898438 50 L 126 50 L 126 77.59375 L 98.898438 77.59375 Z M 98.898438 50 " clip-rule="nonzero"/></clipPath></defs><g clip-path="url(#c75407cc6e)"><path fill="#1985d6" d="M 148.800781 55.503906 C 148.664062 55.503906 148.386719 55.503906 148.25 55.226562 C 146.457031 53.574219 142.734375 48.472656 141.632812 45.992188 C 141.082031 44.890625 141.082031 40.753906 141.21875 33.722656 C 141.21875 32.621094 141.21875 31.929688 141.21875 31.378906 C 141.21875 29.585938 137.910156 20.074219 134.464844 11.390625 C 133.636719 9.183594 132.535156 8.632812 132.394531 8.769531 C 132.121094 8.769531 131.570312 9.597656 131.84375 11.804688 L 133.773438 24.902344 C 133.773438 25.453125 133.359375 25.867188 132.949219 26.003906 C 132.394531 26.003906 131.984375 25.589844 131.84375 25.175781 L 130.050781 12.078125 C 129.5 7.945312 131.292969 7.117188 131.84375 6.980469 C 133.085938 6.566406 134.878906 7.394531 136.257812 10.703125 C 138.324219 16.078125 143.148438 28.761719 143.148438 31.378906 C 143.148438 31.929688 143.148438 32.757812 143.148438 33.722656 C 143.011719 36.617188 142.875 44.199219 143.285156 45.164062 C 144.390625 47.371094 147.972656 52.472656 149.488281 53.988281 C 149.902344 54.261719 149.902344 54.953125 149.488281 55.226562 C 149.351562 55.503906 149.078125 55.503906 148.800781 55.503906 Z M 148.800781 55.503906 " fill-opacity="1" fill-rule="evenodd"/></g><path fill="#1985d6" d="M 139.703125 64.742188 C 139.566406 64.742188 139.425781 64.742188 139.289062 64.601562 C 137.222656 63.5 135.015625 61.292969 133.085938 58.398438 C 132.121094 57.019531 130.050781 53.574219 130.191406 51.09375 L 130.191406 27.65625 C 130.191406 25.589844 131.84375 23.796875 133.914062 23.796875 C 135.980469 23.796875 137.632812 25.589844 137.632812 27.65625 L 137.632812 41.03125 C 137.632812 41.582031 137.222656 41.996094 136.667969 41.996094 C 136.117188 41.996094 135.703125 41.582031 135.703125 41.03125 L 135.703125 27.65625 C 135.703125 26.554688 134.878906 25.726562 133.914062 25.726562 C 132.808594 25.726562 131.984375 26.554688 131.984375 27.65625 L 131.984375 51.09375 C 131.84375 54.125 136.667969 61.019531 140.117188 62.949219 C 140.53125 63.222656 140.804688 63.777344 140.53125 64.1875 C 140.390625 64.601562 139.976562 64.742188 139.703125 64.742188 Z M 139.703125 64.742188 " fill-opacity="1" fill-rule="evenodd"/><g clip-path="url(#1cc8cc994d)"><path fill="#1985d6" d="M 146.320312 77.421875 C 145.355469 77.421875 144.390625 77.007812 143.699219 76.320312 L 137.359375 69.980469 C 136.667969 69.289062 136.257812 68.324219 136.257812 67.359375 C 136.257812 66.394531 136.667969 65.429688 137.359375 64.742188 L 150.179688 51.921875 C 150.867188 51.230469 151.832031 50.816406 152.796875 50.816406 C 153.761719 50.816406 154.730469 51.230469 155.417969 51.921875 L 161.757812 58.261719 C 162.449219 58.949219 162.863281 59.914062 162.863281 60.878906 C 162.863281 61.84375 162.449219 62.808594 161.757812 63.5 L 148.9375 76.320312 C 148.25 77.007812 147.285156 77.421875 146.320312 77.421875 Z M 152.796875 52.746094 C 152.246094 52.746094 151.832031 52.886719 151.558594 53.296875 L 138.738281 66.117188 C 138.324219 66.394531 138.1875 66.808594 138.1875 67.359375 C 138.1875 67.910156 138.324219 68.324219 138.738281 68.601562 L 145.078125 74.941406 C 145.355469 75.355469 145.90625 75.492188 146.320312 75.492188 C 146.871094 75.492188 147.285156 75.355469 147.699219 74.941406 L 160.378906 62.257812 C 160.792969 61.84375 160.933594 61.433594 160.933594 60.878906 C 160.933594 60.46875 160.792969 59.914062 160.378906 59.640625 L 154.039062 53.296875 C 153.761719 52.886719 153.351562 52.746094 152.796875 52.746094 Z M 152.796875 52.746094 " fill-opacity="1" fill-rule="evenodd"/></g><g clip-path="url(#ecb825a6a2)"><path fill="#1985d6" d="M 112.957031 55.503906 C 112.683594 55.503906 112.40625 55.503906 112.269531 55.226562 C 111.855469 54.953125 111.855469 54.261719 112.269531 53.988281 C 113.785156 52.472656 117.371094 47.371094 118.472656 45.164062 C 118.886719 44.199219 118.75 36.617188 118.609375 33.722656 C 118.609375 32.757812 118.609375 31.929688 118.609375 31.378906 C 118.609375 28.761719 123.4375 16.078125 125.503906 10.703125 C 126.882812 7.394531 128.675781 6.566406 129.914062 6.980469 C 130.464844 7.117188 132.257812 7.945312 131.707031 12.078125 L 129.914062 25.175781 C 129.777344 25.589844 129.363281 26.003906 128.8125 26.003906 C 128.398438 25.867188 127.984375 25.453125 127.984375 24.902344 L 129.914062 11.804688 C 130.191406 9.597656 129.640625 8.769531 129.363281 8.769531 C 129.226562 8.632812 128.121094 9.183594 127.296875 11.390625 C 123.847656 20.074219 120.539062 29.585938 120.539062 31.378906 C 120.539062 31.929688 120.539062 32.621094 120.539062 33.722656 C 120.679688 40.753906 120.679688 44.890625 120.128906 45.992188 C 119.023438 48.472656 115.300781 53.574219 113.511719 55.226562 C 113.371094 55.503906 113.097656 55.503906 112.957031 55.503906 Z M 112.957031 55.503906 " fill-opacity="1" fill-rule="evenodd"/></g><path fill="#1985d6" d="M 122.058594 64.742188 C 121.78125 64.742188 121.367188 64.601562 121.230469 64.1875 C 120.953125 63.777344 121.230469 63.222656 121.644531 62.949219 C 125.089844 61.019531 129.914062 54.125 129.777344 51.09375 L 129.777344 27.65625 C 129.777344 26.554688 128.949219 25.726562 127.847656 25.726562 C 126.882812 25.726562 126.054688 26.554688 126.054688 27.65625 L 126.054688 41.03125 C 126.054688 41.582031 125.640625 41.996094 125.089844 41.996094 C 124.539062 41.996094 124.125 41.582031 124.125 41.03125 L 124.125 27.65625 C 124.125 25.589844 125.777344 23.796875 127.847656 23.796875 C 129.914062 23.796875 131.570312 25.589844 131.570312 27.65625 L 131.570312 51.09375 C 131.707031 53.574219 129.640625 57.019531 128.675781 58.398438 C 126.742188 61.292969 124.539062 63.5 122.46875 64.601562 C 122.332031 64.742188 122.195312 64.742188 122.058594 64.742188 Z M 122.058594 64.742188 " fill-opacity="1" fill-rule="evenodd"/><g clip-path="url(#c848959bd7)"><path fill="#1985d6" d="M 115.441406 77.421875 C 114.476562 77.421875 113.511719 77.007812 112.820312 76.320312 L 100 63.5 C 99.3125 62.808594 98.898438 61.84375 98.898438 60.878906 C 98.898438 59.914062 99.3125 58.949219 100 58.261719 L 106.339844 51.921875 C 107.03125 51.230469 107.996094 50.816406 108.960938 50.816406 C 109.925781 50.816406 110.890625 51.230469 111.582031 51.921875 L 124.402344 64.742188 C 125.089844 65.429688 125.503906 66.394531 125.503906 67.359375 C 125.503906 68.324219 125.089844 69.289062 124.402344 69.980469 L 118.058594 76.320312 C 117.371094 77.007812 116.40625 77.421875 115.441406 77.421875 Z M 108.960938 52.746094 C 108.410156 52.746094 107.996094 52.886719 107.71875 53.296875 L 101.378906 59.640625 C 100.964844 59.914062 100.828125 60.46875 100.828125 60.878906 C 100.828125 61.433594 100.964844 61.84375 101.378906 62.257812 L 114.0625 74.941406 C 114.476562 75.355469 114.886719 75.492188 115.441406 75.492188 C 115.855469 75.492188 116.40625 75.355469 116.679688 74.941406 L 123.023438 68.601562 C 123.4375 68.324219 123.574219 67.910156 123.574219 67.359375 C 123.574219 66.808594 123.4375 66.394531 123.023438 66.117188 L 110.203125 53.296875 C 109.925781 52.886719 109.511719 52.746094 108.960938 52.746094 Z M 108.960938 52.746094 " fill-opacity="1" fill-rule="evenodd"/></g><g fill="#1985d6" fill-opacity="1"><g transform="translate(0.134524, 20.690168)"><g><path d="M 11.738281 -13.347656 C 10.910156 -16.351562 9.175781 -17.648438 6.582031 -17.648438 C 3.421875 -17.648438 1.476562 -15.574219 1.476562 -13.085938 C 1.476562 -11.246094 2.488281 -9.382812 5.261719 -8.34375 C 8.1875 -7.257812 10.082031 -6.53125 10.082031 -4.355469 C 10.082031 -2.695312 8.890625 -1.398438 6.789062 -1.398438 C 4.535156 -1.398438 3.214844 -2.589844 2.695312 -5.078125 L 0.777344 -4.535156 C 1.347656 -0.933594 3.964844 0.363281 6.738281 0.363281 C 10.289062 0.363281 12.257812 -1.96875 12.257812 -4.691406 C 12.257812 -5.910156 11.894531 -7.257812 10.445312 -8.34375 C 9.667969 -8.941406 8.550781 -9.433594 7.023438 -10.003906 C 4.328125 -10.988281 3.523438 -11.792969 3.523438 -13.164062 C 3.523438 -14.695312 4.5625 -15.886719 6.402344 -15.886719 C 7.980469 -15.886719 9.121094 -15.265625 9.875 -12.800781 Z M 11.738281 -13.347656 "/></g></g></g><g fill="#1985d6" fill-opacity="1"><g transform="translate(13.376054, 20.690168)"><g><path d="M 5.933594 0.363281 C 9.175781 0.363281 10.859375 -1.996094 10.859375 -6.53125 C 10.859375 -10.597656 9.148438 -13.140625 6.011719 -13.140625 C 2.800781 -13.140625 1.0625 -10.808594 1.0625 -6.375 C 1.0625 -2.152344 2.722656 0.363281 5.933594 0.363281 Z M 5.960938 -1.21875 C 4.121094 -1.21875 3.160156 -2.929688 3.160156 -6.375 C 3.160156 -9.71875 4.09375 -11.558594 5.933594 -11.558594 C 7.800781 -11.558594 8.757812 -9.796875 8.757812 -6.375 C 8.757812 -2.929688 7.800781 -1.21875 5.960938 -1.21875 Z M 5.960938 -1.21875 "/></g></g></g><g fill="#1985d6" fill-opacity="1"><g transform="translate(25.296022, 20.690168)"><g><path d="M 16.40625 0 L 16.40625 -8.65625 C 16.40625 -10.960938 15.988281 -11.972656 14.953125 -12.621094 C 14.410156 -12.957031 13.761719 -13.140625 12.957031 -13.140625 C 11.558594 -13.140625 10.367188 -12.441406 9.667969 -10.546875 C 9.355469 -12.308594 8.34375 -13.140625 6.609375 -13.140625 C 5.234375 -13.140625 4.25 -12.671875 3.472656 -10.808594 L 3.472656 -12.777344 L 1.710938 -12.777344 L 1.710938 0 L 3.601562 0 L 3.601562 -7.878906 C 3.601562 -10.210938 4.507812 -11.558594 6.117188 -11.558594 C 7.695312 -11.558594 8.113281 -10.46875 8.113281 -8.734375 L 8.113281 0 L 10.003906 0 L 10.003906 -7.566406 C 10.003906 -9.976562 10.859375 -11.558594 12.515625 -11.558594 C 13.292969 -11.558594 14.511719 -11.507812 14.511719 -8.398438 L 14.511719 0 Z M 16.40625 0 "/></g></g></g><g fill="#1985d6" fill-opacity="1"><g transform="translate(43.383279, 20.690168)"><g><path d="M 8.628906 -3.785156 C 8.085938 -1.8125 7.230469 -1.21875 6.039062 -1.21875 C 4.09375 -1.21875 3.058594 -2.824219 3.058594 -5.960938 L 3.058594 -6.140625 L 10.597656 -6.140625 C 10.523438 -10.9375 8.914062 -13.140625 6.039062 -13.140625 C 3.03125 -13.140625 1.0625 -10.546875 1.0625 -6.195312 C 1.0625 -2.046875 2.824219 0.363281 5.933594 0.363281 C 8.34375 0.363281 9.769531 -0.957031 10.417969 -3.367188 Z M 3.160156 -7.695312 C 3.367188 -10.367188 4.355469 -11.558594 5.832031 -11.558594 C 7.488281 -11.558594 8.449219 -10.183594 8.449219 -7.695312 Z M 3.160156 -7.695312 "/></g></g></g><g fill="#1985d6" fill-opacity="1"><g transform="translate(54.862726, 20.690168)"><g><path d="M 5.933594 0.363281 C 9.175781 0.363281 10.859375 -1.996094 10.859375 -6.53125 C 10.859375 -10.597656 9.148438 -13.140625 6.011719 -13.140625 C 2.800781 -13.140625 1.0625 -10.808594 1.0625 -6.375 C 1.0625 -2.152344 2.722656 0.363281 5.933594 0.363281 Z M 5.960938 -1.21875 C 4.121094 -1.21875 3.160156 -2.929688 3.160156 -6.375 C 3.160156 -9.71875 4.09375 -11.558594 5.933594 -11.558594 C 7.800781 -11.558594 8.757812 -9.796875 8.757812 -6.375 C 8.757812 -2.929688 7.800781 -1.21875 5.960938 -1.21875 Z M 5.960938 -1.21875 "/></g></g></g><g fill="#1985d6" fill-opacity="1"><g transform="translate(66.782694, 20.690168)"><g><path d="M 10.210938 0 L 10.210938 -8.734375 C 10.210938 -11.039062 9.796875 -11.972656 8.757812 -12.621094 C 8.214844 -12.957031 7.566406 -13.140625 6.765625 -13.140625 C 5.3125 -13.140625 4.199219 -12.542969 3.472656 -10.808594 L 3.472656 -12.777344 L 1.710938 -12.777344 L 1.710938 0 L 3.601562 0 L 3.601562 -7.050781 C 3.601562 -9.820312 4.429688 -11.558594 6.375 -11.558594 C 7.90625 -11.558594 8.320312 -10.78125 8.320312 -8.265625 L 8.320312 0 Z M 10.210938 0 "/></g></g></g><g fill="#1985d6" fill-opacity="1"><g transform="translate(78.702662, 20.690168)"><g><path d="M 8.628906 -3.785156 C 8.085938 -1.8125 7.230469 -1.21875 6.039062 -1.21875 C 4.09375 -1.21875 3.058594 -2.824219 3.058594 -5.960938 L 3.058594 -6.140625 L 10.597656 -6.140625 C 10.523438 -10.9375 8.914062 -13.140625 6.039062 -13.140625 C 3.03125 -13.140625 1.0625 -10.546875 1.0625 -6.195312 C 1.0625 -2.046875 2.824219 0.363281 5.933594 0.363281 C 8.34375 0.363281 9.769531 -0.957031 10.417969 -3.367188 Z M 3.160156 -7.695312 C 3.367188 -10.367188 4.355469 -11.558594 5.832031 -11.558594 C 7.488281 -11.558594 8.449219 -10.183594 8.449219 -7.695312 Z M 3.160156 -7.695312 "/></g></g></g><g fill="#1985d6" fill-opacity="1"><g transform="translate(0.134524, 46.860137)"><g><path d="M 3.679688 -15.03125 L 3.679688 -17.234375 L 1.632812 -17.234375 L 1.632812 -15.03125 Z M 3.601562 0 L 3.601562 -12.777344 L 1.710938 -12.777344 L 1.710938 0 Z M 3.601562 0 "/></g></g></g><g fill="#1985d6" fill-opacity="1"><g transform="translate(5.420772, 46.860137)"><g><path d="M 5.832031 -5.3125 C 6.972656 -4.949219 7.695312 -4.300781 7.695312 -3.316406 C 7.695312 -2.152344 6.710938 -1.21875 5.15625 -1.21875 C 3.472656 -1.21875 2.488281 -2.019531 2.203125 -3.679688 L 0.441406 -3.292969 C 0.933594 -0.804688 2.460938 0.363281 5.027344 0.363281 C 7.980469 0.363281 9.667969 -1.425781 9.667969 -3.578125 C 9.667969 -5.285156 8.734375 -6.582031 5.234375 -7.542969 C 3.316406 -8.058594 2.773438 -8.5 2.773438 -9.589844 C 2.773438 -10.652344 3.628906 -11.558594 4.976562 -11.558594 C 6.140625 -11.558594 6.996094 -10.859375 7.464844 -9.484375 L 9.121094 -9.898438 C 8.550781 -12.15625 7.125 -13.140625 5.078125 -13.140625 C 2.539062 -13.140625 0.90625 -11.273438 0.90625 -9.328125 C 0.90625 -8.472656 1.21875 -6.789062 3.808594 -5.960938 Z M 5.832031 -5.3125 "/></g></g></g><g fill="#1985d6" fill-opacity="1"><g transform="translate(15.578657, 46.860137)"><g/></g></g><g fill="#1985d6" fill-opacity="1"><g transform="translate(22.056904, 46.860137)"><g><path d="M 3.601562 4.328125 L 3.601562 -1.660156 C 4.457031 -0.179688 5.363281 0.257812 6.816406 0.257812 C 9.769531 0.257812 11.300781 -2.644531 11.300781 -6.582031 C 11.300781 -10.417969 9.589844 -13.035156 6.816406 -13.035156 C 5.234375 -13.035156 4.121094 -12.285156 3.421875 -10.546875 L 3.421875 -12.777344 L 1.710938 -12.777344 L 1.710938 4.328125 Z M 3.601562 -7.566406 C 3.601562 -9.796875 4.691406 -11.453125 6.402344 -11.453125 C 8.242188 -11.453125 9.199219 -9.484375 9.199219 -6.453125 C 9.199219 -3.394531 8.371094 -1.320312 6.402344 -1.320312 C 4.871094 -1.320312 3.601562 -2.722656 3.601562 -4.820312 Z M 3.601562 -7.566406 "/></g></g></g><g fill="#1985d6" fill-opacity="1"><g transform="translate(34.417392, 46.860137)"><g><path d="M 3.601562 0 L 3.601562 -6.738281 C 3.601562 -9.328125 4.691406 -11.015625 6.632812 -11.015625 L 7.074219 -10.988281 L 7.074219 -13.113281 L 6.765625 -13.113281 C 5.390625 -13.113281 4.222656 -12.257812 3.394531 -10.105469 L 3.394531 -12.777344 L 1.710938 -12.777344 L 1.710938 0 Z M 3.601562 0 "/></g></g></g><g fill="#1985d6" fill-opacity="1"><g transform="translate(41.025202, 46.860137)"><g><path d="M 10.445312 0 C 10.238281 -0.882812 10.210938 -1.425781 10.210938 -3.5 L 10.210938 -8.34375 C 10.210938 -11.039062 9.667969 -11.945312 8.34375 -12.648438 C 7.695312 -12.984375 6.945312 -13.140625 6.0625 -13.140625 C 3.757812 -13.140625 1.890625 -11.921875 1.527344 -9.847656 L 3.394531 -9.535156 C 3.785156 -10.988281 4.664062 -11.558594 5.933594 -11.558594 C 7.410156 -11.558594 8.320312 -10.730469 8.320312 -8.5 L 8.320312 -7.851562 C 7.722656 -7.929688 7.28125 -7.957031 6.632812 -7.957031 C 2.566406 -7.957031 1.035156 -5.988281 1.035156 -3.421875 C 1.035156 -1.140625 2.539062 0.363281 4.792969 0.363281 C 6.453125 0.363281 7.59375 -0.390625 8.472656 -2.253906 C 8.472656 -1.296875 8.550781 -0.597656 8.628906 0 Z M 8.292969 -6.347656 C 8.320312 -6.21875 8.34375 -5.570312 8.34375 -5.183594 C 8.34375 -2.902344 7.050781 -1.21875 5.15625 -1.21875 C 3.679688 -1.21875 3.03125 -2.097656 3.03125 -3.421875 C 3.03125 -5.46875 4.199219 -6.503906 6.816406 -6.503906 C 7.359375 -6.503906 7.800781 -6.453125 8.292969 -6.347656 Z M 8.292969 -6.347656 "/></g></g></g><g fill="#1985d6" fill-opacity="1"><g transform="translate(51.778967, 46.860137)"><g><path d="M 0.648438 4.484375 C 1.0625 4.5625 1.375 4.613281 1.890625 4.613281 C 3.679688 4.613281 4.484375 3.785156 5.3125 1.089844 L 9.640625 -12.777344 L 7.828125 -12.777344 L 5 -3.238281 L 2.382812 -12.777344 L 0.492188 -12.777344 L 4.09375 -0.570312 C 3.265625 2.382812 3.007812 3.03125 1.527344 3.03125 C 1.21875 3.03125 1.0625 3.007812 0.648438 2.929688 Z M 0.648438 4.484375 "/></g></g></g><g fill="#1985d6" fill-opacity="1"><g transform="translate(61.496332, 46.860137)"><g><path d="M 3.679688 -15.03125 L 3.679688 -17.234375 L 1.632812 -17.234375 L 1.632812 -15.03125 Z M 3.601562 0 L 3.601562 -12.777344 L 1.710938 -12.777344 L 1.710938 0 Z M 3.601562 0 "/></g></g></g><g fill="#1985d6" fill-opacity="1"><g transform="translate(66.78258, 46.860137)"><g><path d="M 10.210938 0 L 10.210938 -8.734375 C 10.210938 -11.039062 9.796875 -11.972656 8.757812 -12.621094 C 8.214844 -12.957031 7.566406 -13.140625 6.765625 -13.140625 C 5.3125 -13.140625 4.199219 -12.542969 3.472656 -10.808594 L 3.472656 -12.777344 L 1.710938 -12.777344 L 1.710938 0 L 3.601562 0 L 3.601562 -7.050781 C 3.601562 -9.820312 4.429688 -11.558594 6.375 -11.558594 C 7.90625 -11.558594 8.320312 -10.78125 8.320312 -8.265625 L 8.320312 0 Z M 10.210938 0 "/></g></g></g><g fill="#1985d6" fill-opacity="1"><g transform="translate(78.702548, 46.860137)"><g><path d="M 5.078125 -2.175781 C 3.886719 -2.253906 3.058594 -2.304688 3.058594 -3.394531 C 3.058594 -3.992188 3.316406 -4.355469 4.121094 -4.585938 C 4.613281 -4.457031 5.054688 -4.355469 5.703125 -4.355469 C 8.472656 -4.355469 10.003906 -6.480469 10.003906 -8.734375 C 10.003906 -9.769531 9.71875 -10.675781 9.019531 -11.609375 C 9.175781 -12.855469 9.640625 -13.21875 10.390625 -13.21875 C 10.625 -13.21875 10.78125 -13.191406 10.882812 -13.164062 L 10.882812 -14.773438 L 10.445312 -14.773438 C 8.683594 -14.773438 8.265625 -14.226562 7.878906 -12.59375 C 6.839844 -13.085938 6.296875 -13.140625 5.777344 -13.140625 C 3.445312 -13.140625 1.476562 -11.246094 1.476562 -8.734375 C 1.476562 -7.359375 1.917969 -6.273438 2.953125 -5.363281 C 1.890625 -4.871094 1.296875 -4.171875 1.296875 -3.007812 C 1.296875 -2.175781 1.632812 -1.554688 2.488281 -1.011719 C 1.347656 -0.621094 0.804688 0.207031 0.804688 1.527344 C 0.804688 3.679688 2.644531 4.871094 5.882812 4.871094 C 9.199219 4.871094 11.300781 3.601562 11.300781 1.140625 C 11.300781 -1.035156 10.183594 -1.890625 7.410156 -2.046875 Z M 5.726562 -5.832031 C 4.40625 -5.832031 3.445312 -6.867188 3.445312 -8.65625 C 3.445312 -10.523438 4.355469 -11.558594 5.804688 -11.558594 C 7.257812 -11.558594 8.058594 -10.238281 8.058594 -8.683594 C 8.058594 -6.996094 7.074219 -5.832031 5.726562 -5.832031 Z M 3.808594 -0.542969 C 4.976562 -0.519531 6.195312 -0.492188 7.464844 -0.414062 C 8.734375 -0.335938 9.355469 0.207031 9.355469 1.242188 C 9.355469 2.589844 8.1875 3.34375 5.988281 3.34375 C 3.679688 3.34375 2.722656 2.644531 2.722656 1.191406 C 2.722656 0.464844 3.007812 -0.0273438 3.808594 -0.542969 Z M 3.808594 -0.542969 "/></g></g></g><g fill="#1985d6" fill-opacity="1"><g transform="translate(0.134524, 73.030105)"><g><path d="M 3.964844 0 L 3.964844 -11.222656 L 6.296875 -11.222656 L 6.296875 -12.777344 L 3.964844 -12.777344 L 3.964844 -12.984375 C 3.964844 -14.875 4.148438 -15.445312 4.714844 -15.808594 C 5 -15.988281 5.417969 -16.066406 6.011719 -16.066406 C 6.347656 -16.066406 6.503906 -16.042969 6.917969 -15.9375 L 6.917969 -17.492188 C 6.558594 -17.570312 6.089844 -17.648438 5.46875 -17.648438 C 2.875 -17.648438 2.074219 -16.429688 2.074219 -12.777344 L 0.234375 -12.777344 L 0.234375 -11.222656 L 2.074219 -11.222656 L 2.074219 0 Z M 3.964844 0 "/></g></g></g><g fill="#1985d6" fill-opacity="1"><g transform="translate(6.327723, 73.030105)"><g><path d="M 5.933594 0.363281 C 9.175781 0.363281 10.859375 -1.996094 10.859375 -6.53125 C 10.859375 -10.597656 9.148438 -13.140625 6.011719 -13.140625 C 2.800781 -13.140625 1.0625 -10.808594 1.0625 -6.375 C 1.0625 -2.152344 2.722656 0.363281 5.933594 0.363281 Z M 5.960938 -1.21875 C 4.121094 -1.21875 3.160156 -2.929688 3.160156 -6.375 C 3.160156 -9.71875 4.09375 -11.558594 5.933594 -11.558594 C 7.800781 -11.558594 8.757812 -9.796875 8.757812 -6.375 C 8.757812 -2.929688 7.800781 -1.21875 5.960938 -1.21875 Z M 5.960938 -1.21875 "/></g></g></g><g fill="#1985d6" fill-opacity="1"><g transform="translate(18.247691, 73.030105)"><g><path d="M 3.601562 0 L 3.601562 -6.738281 C 3.601562 -9.328125 4.691406 -11.015625 6.632812 -11.015625 L 7.074219 -10.988281 L 7.074219 -13.113281 L 6.765625 -13.113281 C 5.390625 -13.113281 4.222656 -12.257812 3.394531 -10.105469 L 3.394531 -12.777344 L 1.710938 -12.777344 L 1.710938 0 Z M 3.601562 0 "/></g></g></g><g fill="#1985d6" fill-opacity="1"><g transform="translate(24.855501, 73.030105)"><g/></g></g><g fill="#1985d6" fill-opacity="1"><g transform="translate(31.333748, 73.030105)"><g><path d="M 0.648438 4.484375 C 1.0625 4.5625 1.375 4.613281 1.890625 4.613281 C 3.679688 4.613281 4.484375 3.785156 5.3125 1.089844 L 9.640625 -12.777344 L 7.828125 -12.777344 L 5 -3.238281 L 2.382812 -12.777344 L 0.492188 -12.777344 L 4.09375 -0.570312 C 3.265625 2.382812 3.007812 3.03125 1.527344 3.03125 C 1.21875 3.03125 1.0625 3.007812 0.648438 2.929688 Z M 0.648438 4.484375 "/></g></g></g><g fill="#1985d6" fill-opacity="1"><g transform="translate(40.014484, 73.030105)"><g><path d="M 5.933594 0.363281 C 9.175781 0.363281 10.859375 -1.996094 10.859375 -6.53125 C 10.859375 -10.597656 9.148438 -13.140625 6.011719 -13.140625 C 2.800781 -13.140625 1.0625 -10.808594 1.0625 -6.375 C 1.0625 -2.152344 2.722656 0.363281 5.933594 0.363281 Z M 5.960938 -1.21875 C 4.121094 -1.21875 3.160156 -2.929688 3.160156 -6.375 C 3.160156 -9.71875 4.09375 -11.558594 5.933594 -11.558594 C 7.800781 -11.558594 8.757812 -9.796875 8.757812 -6.375 C 8.757812 -2.929688 7.800781 -1.21875 5.960938 -1.21875 Z M 5.960938 -1.21875 "/></g></g></g><g fill="#1985d6" fill-opacity="1"><g transform="translate(51.934452, 73.030105)"><g><path d="M 10.210938 0 L 10.210938 -12.777344 L 8.320312 -12.777344 L 8.320312 -6.402344 C 8.320312 -2.722656 7.335938 -1.21875 5.546875 -1.21875 C 3.992188 -1.21875 3.601562 -1.917969 3.601562 -4.328125 L 3.601562 -12.777344 L 1.710938 -12.777344 L 1.710938 -4.121094 C 1.710938 -2.382812 1.996094 -1.320312 2.589844 -0.648438 C 3.238281 0.078125 4.121094 0.363281 5.105469 0.363281 C 6.6875 0.363281 7.75 -0.335938 8.449219 -1.890625 L 8.449219 0 Z M 10.210938 0 "/></g></g></g><g fill="#1985d6" fill-opacity="1"><g transform="translate(63.85442, 73.030105)"><g><path d="M 4.277344 0 L 4.277344 -2.800781 L 1.917969 -2.800781 L 1.917969 0 Z M 4.277344 0 "/></g></g></g></svg>