<svg xmlns="http://www.w3.org/2000/svg" xmlns:xlink="http://www.w3.org/1999/xlink" width="50" zoomAndPan="magnify" viewBox="0 0 37.5 37.499999" height="50" preserveAspectRatio="xMidYMid meet" version="1.0"><defs><filter x="0%" y="0%" width="100%" height="100%" id="6e89052828"><feColorMatrix values="0 0 0 0 1 0 0 0 0 1 0 0 0 0 1 0 0 0 1 0" color-interpolation-filters="sRGB"/></filter><clipPath id="06c9c95283"><path d="M 0 0 L 37.007812 0 L 37.007812 37.007812 L 0 37.007812 Z M 0 0 " clip-rule="nonzero"/></clipPath><mask id="4c9579a12f"><g filter="url(#6e89052828)"><rect x="-3.75" width="45" fill="#000000" y="-3.75" height="44.999999" fill-opacity="0.23"/></g></mask><clipPath id="08c0977ee4"><path d="M 0 0 L 37.007812 0 L 37.007812 37.007812 L 0 37.007812 Z M 0 0 " clip-rule="nonzero"/></clipPath><clipPath id="248fe36668"><path d="M 18.503906 0 C 8.285156 0 0 8.285156 0 18.503906 C 0 28.722656 8.285156 37.007812 18.503906 37.007812 C 28.722656 37.007812 37.007812 28.722656 37.007812 18.503906 C 37.007812 8.285156 28.722656 0 18.503906 0 Z M 18.503906 0 " clip-rule="nonzero"/></clipPath><clipPath id="add68602b8"><path d="M 0 0 L 37.007812 0 L 37.007812 37.007812 L 0 37.007812 Z M 0 0 " clip-rule="nonzero"/></clipPath><clipPath id="f0069b0fc6"><path d="M 18.503906 0 C 8.285156 0 0 8.285156 0 18.503906 C 0 28.722656 8.285156 37.007812 18.503906 37.007812 C 28.722656 37.007812 37.007812 28.722656 37.007812 18.503906 C 37.007812 8.285156 28.722656 0 18.503906 0 Z M 18.503906 0 " clip-rule="nonzero"/></clipPath><clipPath id="fa8e83ffea"><rect x="0" width="38" y="0" height="38"/></clipPath><clipPath id="83ffb4dce3"><rect x="0" width="38" y="0" height="38"/></clipPath><mask id="2b220646ed"><g filter="url(#6e89052828)"><rect x="-3.75" width="45" fill="#000000" y="-3.75" height="44.999999" fill-opacity="0.16"/></g></mask><clipPath id="ea77f1ac9b"><path d="M 0.0703125 0.0703125 L 28.9375 0.0703125 L 28.9375 28.9375 L 0.0703125 28.9375 Z M 0.0703125 0.0703125 " clip-rule="nonzero"/></clipPath><clipPath id="e83dfb6b35"><path d="M 14.503906 0.0703125 C 6.53125 0.0703125 0.0703125 6.53125 0.0703125 14.503906 C 0.0703125 22.472656 6.53125 28.9375 14.503906 28.9375 C 22.472656 28.9375 28.9375 22.472656 28.9375 14.503906 C 28.9375 6.53125 22.472656 0.0703125 14.503906 0.0703125 Z M 14.503906 0.0703125 " clip-rule="nonzero"/></clipPath><clipPath id="84b2a071e9"><path d="M 0.0703125 0.0703125 L 28.9375 0.0703125 L 28.9375 28.9375 L 0.0703125 28.9375 Z M 0.0703125 0.0703125 " clip-rule="nonzero"/></clipPath><clipPath id="a4c6f09243"><path d="M 14.503906 0.0703125 C 6.53125 0.0703125 0.0703125 6.53125 0.0703125 14.503906 C 0.0703125 22.472656 6.53125 28.9375 14.503906 28.9375 C 22.472656 28.9375 28.9375 22.472656 28.9375 14.503906 C 28.9375 6.53125 22.472656 0.0703125 14.503906 0.0703125 Z M 14.503906 0.0703125 " clip-rule="nonzero"/></clipPath><clipPath id="0bcb4704f0"><rect x="0" width="29" y="0" height="29"/></clipPath><clipPath id="f1e10500e3"><rect x="0" width="30" y="0" height="30"/></clipPath><clipPath id="9d40ed5040"><path d="M 8.664062 10.730469 L 28.300781 10.730469 L 28.300781 28.496094 L 8.664062 28.496094 Z M 8.664062 10.730469 " clip-rule="nonzero"/></clipPath><clipPath id="49ff2ae352"><path d="M 28.011719 14.484375 C 27.394531 12.386719 25.398438 10.730469 23.039062 10.730469 C 21.058594 10.730469 19.339844 11.847656 18.46875 13.492188 C 17.597656 11.851562 15.878906 10.730469 13.898438 10.730469 C 11.429688 10.730469 9.269531 12.386719 8.847656 14.789062 C 7.773438 20.878906 14.582031 25.644531 18.484375 28.496094 C 22.089844 25.859375 29.78125 20.484375 28.011719 14.484375 Z M 28.011719 14.484375 " clip-rule="nonzero"/></clipPath><clipPath id="abdceae0b0"><path d="M 0.664062 0.730469 L 20.300781 0.730469 L 20.300781 18.496094 L 0.664062 18.496094 Z M 0.664062 0.730469 " clip-rule="nonzero"/></clipPath><clipPath id="26ce80b042"><path d="M 20.011719 4.484375 C 19.394531 2.386719 17.398438 0.730469 15.039062 0.730469 C 13.058594 0.730469 11.339844 1.847656 10.46875 3.492188 C 9.597656 1.851562 7.878906 0.730469 5.898438 0.730469 C 3.429688 0.730469 1.269531 2.386719 0.847656 4.789062 C -0.226562 10.878906 6.582031 15.644531 10.484375 18.496094 C 14.089844 15.859375 21.78125 10.484375 20.011719 4.484375 Z M 20.011719 4.484375 " clip-rule="nonzero"/></clipPath><clipPath id="a1302bf712"><rect x="0" width="21" y="0" height="19"/></clipPath></defs><g clip-path="url(#06c9c95283)"><g mask="url(#4c9579a12f)"><g transform="matrix(1, 0, 0, 1, 0, 0)"><g clip-path="url(#83ffb4dce3)"><g clip-path="url(#08c0977ee4)"><g clip-path="url(#248fe36668)"><g transform="matrix(1, 0, 0, 1, 0, 0)"><g clip-path="url(#fa8e83ffea)"><g clip-path="url(#add68602b8)"><g clip-path="url(#f0069b0fc6)"><path fill="#38aadf" d="M 0 0 L 37.007812 0 L 37.007812 37.007812 L 0 37.007812 Z M 0 0 " fill-opacity="1" fill-rule="nonzero"/></g></g></g></g></g></g></g></g></g></g><g mask="url(#2b220646ed)"><g transform="matrix(1, 0, 0, 1, 4, 4)"><g clip-path="url(#f1e10500e3)"><g clip-path="url(#ea77f1ac9b)"><g clip-path="url(#e83dfb6b35)"><g><g clip-path="url(#0bcb4704f0)"><g clip-path="url(#84b2a071e9)"><g clip-path="url(#a4c6f09243)"><path fill="#23a0da" d="M 0.0703125 0.0703125 L 28.9375 0.0703125 L 28.9375 28.9375 L 0.0703125 28.9375 Z M 0.0703125 0.0703125 " fill-opacity="1" fill-rule="nonzero"/></g></g></g></g></g></g></g></g></g><g clip-path="url(#9d40ed5040)"><g clip-path="url(#49ff2ae352)"><g transform="matrix(1, 0, 0, 1, 8, 10)"><g clip-path="url(#a1302bf712)"><g clip-path="url(#abdceae0b0)"><g clip-path="url(#26ce80b042)"><path fill="#23a0da" d="M 0.734375 0.730469 L 20.300781 0.730469 L 20.300781 18.496094 L 0.734375 18.496094 Z M 0.734375 0.730469 " fill-opacity="1" fill-rule="nonzero"/></g></g></g></g></g></g></svg>