<svg xmlns="http://www.w3.org/2000/svg" xmlns:xlink="http://www.w3.org/1999/xlink" width="50" zoomAndPan="magnify" viewBox="0 0 37.5 37.499999" height="50" preserveAspectRatio="xMidYMid meet" version="1.0"><defs><filter x="0%" y="0%" width="100%" height="100%" id="cb60fa2aed"><feColorMatrix values="0 0 0 0 1 0 0 0 0 1 0 0 0 0 1 0 0 0 1 0" color-interpolation-filters="sRGB"/></filter><clipPath id="69abbab3e6"><path d="M 0 0 L 37.007812 0 L 37.007812 37.007812 L 0 37.007812 Z M 0 0 " clip-rule="nonzero"/></clipPath><mask id="f2c00e95f9"><g filter="url(#cb60fa2aed)"><rect x="-3.75" width="45" fill="#000000" y="-3.75" height="44.999999" fill-opacity="0.3"/></g></mask><clipPath id="c3f439238b"><path d="M 0 0 L 37.007812 0 L 37.007812 37.007812 L 0 37.007812 Z M 0 0 " clip-rule="nonzero"/></clipPath><clipPath id="bf3a9ef543"><path d="M 18.503906 0 C 8.285156 0 0 8.285156 0 18.503906 C 0 28.722656 8.285156 37.007812 18.503906 37.007812 C 28.722656 37.007812 37.007812 28.722656 37.007812 18.503906 C 37.007812 8.285156 28.722656 0 18.503906 0 Z M 18.503906 0 " clip-rule="nonzero"/></clipPath><clipPath id="1c730a8bd0"><path d="M 0 0 L 37.007812 0 L 37.007812 37.007812 L 0 37.007812 Z M 0 0 " clip-rule="nonzero"/></clipPath><clipPath id="8351dc8fca"><path d="M 18.503906 0 C 8.285156 0 0 8.285156 0 18.503906 C 0 28.722656 8.285156 37.007812 18.503906 37.007812 C 28.722656 37.007812 37.007812 28.722656 37.007812 18.503906 C 37.007812 8.285156 28.722656 0 18.503906 0 Z M 18.503906 0 " clip-rule="nonzero"/></clipPath><clipPath id="93e53d559a"><rect x="0" width="38" y="0" height="38"/></clipPath><clipPath id="4a65f65183"><rect x="0" width="38" y="0" height="38"/></clipPath><mask id="a561155687"><g filter="url(#cb60fa2aed)"><rect x="-3.75" width="45" fill="#000000" y="-3.75" height="44.999999" fill-opacity="0.3"/></g></mask><clipPath id="b072884817"><path d="M 0.960938 0.960938 L 32.046875 0.960938 L 32.046875 32.046875 L 0.960938 32.046875 Z M 0.960938 0.960938 " clip-rule="nonzero"/></clipPath><clipPath id="cac6663193"><path d="M 16.503906 0.960938 C 7.917969 0.960938 0.960938 7.917969 0.960938 16.503906 C 0.960938 25.085938 7.917969 32.046875 16.503906 32.046875 C 25.085938 32.046875 32.046875 25.085938 32.046875 16.503906 C 32.046875 7.917969 25.085938 0.960938 16.503906 0.960938 Z M 16.503906 0.960938 " clip-rule="nonzero"/></clipPath><clipPath id="6ec3e50e45"><path d="M 0.960938 0.960938 L 32.046875 0.960938 L 32.046875 32.046875 L 0.960938 32.046875 Z M 0.960938 0.960938 " clip-rule="nonzero"/></clipPath><clipPath id="947793c7e3"><path d="M 16.503906 0.960938 C 7.917969 0.960938 0.960938 7.917969 0.960938 16.503906 C 0.960938 25.085938 7.917969 32.046875 16.503906 32.046875 C 25.085938 32.046875 32.046875 25.085938 32.046875 16.503906 C 32.046875 7.917969 25.085938 0.960938 16.503906 0.960938 Z M 16.503906 0.960938 " clip-rule="nonzero"/></clipPath><clipPath id="24634fc355"><rect x="0" width="33" y="0" height="33"/></clipPath><clipPath id="fd377a4266"><rect x="0" width="33" y="0" height="33"/></clipPath><clipPath id="2e9cd6c530"><path d="M 6.71875 9.441406 L 30.238281 9.441406 L 30.238281 30.714844 L 6.71875 30.714844 Z M 6.71875 9.441406 " clip-rule="nonzero"/></clipPath><clipPath id="c93c0fb8bb"><path d="M 29.890625 13.9375 C 29.152344 11.425781 26.761719 9.441406 23.9375 9.441406 C 21.566406 9.441406 19.503906 10.78125 18.460938 12.746094 C 17.421875 10.78125 15.359375 9.441406 12.988281 9.441406 C 10.03125 9.441406 7.445312 11.425781 6.9375 14.300781 C 5.652344 21.59375 13.808594 27.300781 18.480469 30.714844 C 22.796875 27.558594 32.007812 21.125 29.890625 13.9375 Z M 29.890625 13.9375 " clip-rule="nonzero"/></clipPath><clipPath id="901606fc13"><path d="M 0.71875 0.441406 L 24.238281 0.441406 L 24.238281 21.714844 L 0.71875 21.714844 Z M 0.71875 0.441406 " clip-rule="nonzero"/></clipPath><clipPath id="db8218e47e"><path d="M 23.890625 4.9375 C 23.152344 2.425781 20.761719 0.441406 17.9375 0.441406 C 15.566406 0.441406 13.503906 1.78125 12.460938 3.746094 C 11.421875 1.78125 9.359375 0.441406 6.988281 0.441406 C 4.03125 0.441406 1.445312 2.425781 0.9375 5.300781 C -0.347656 12.59375 7.808594 18.300781 12.480469 21.714844 C 16.796875 18.558594 26.007812 12.125 23.890625 4.9375 Z M 23.890625 4.9375 " clip-rule="nonzero"/></clipPath><clipPath id="0f97facce9"><rect x="0" width="25" y="0" height="22"/></clipPath></defs><g clip-path="url(#69abbab3e6)"><g mask="url(#f2c00e95f9)"><g transform="matrix(1, 0, 0, 1, 0, 0)"><g clip-path="url(#4a65f65183)"><g clip-path="url(#c3f439238b)"><g clip-path="url(#bf3a9ef543)"><g transform="matrix(1, 0, 0, 1, 0, 0)"><g clip-path="url(#93e53d559a)"><g clip-path="url(#1c730a8bd0)"><g clip-path="url(#8351dc8fca)"><path fill="#38aadf" d="M 0 0 L 37.007812 0 L 37.007812 37.007812 L 0 37.007812 Z M 0 0 " fill-opacity="1" fill-rule="nonzero"/></g></g></g></g></g></g></g></g></g></g><g mask="url(#a561155687)"><g transform="matrix(1, 0, 0, 1, 2, 2)"><g clip-path="url(#fd377a4266)"><g clip-path="url(#b072884817)"><g clip-path="url(#cac6663193)"><g transform="matrix(1, 0, 0, 1, 0.000000000000000444, 0)"><g clip-path="url(#24634fc355)"><g clip-path="url(#6ec3e50e45)"><g clip-path="url(#947793c7e3)"><path fill="#38aadf" d="M 0.960938 0.960938 L 32.046875 0.960938 L 32.046875 32.046875 L 0.960938 32.046875 Z M 0.960938 0.960938 " fill-opacity="1" fill-rule="nonzero"/></g></g></g></g></g></g></g></g></g><g clip-path="url(#2e9cd6c530)"><g clip-path="url(#c93c0fb8bb)"><g transform="matrix(1, 0, 0, 1, 6, 9)"><g clip-path="url(#0f97facce9)"><g clip-path="url(#901606fc13)"><g clip-path="url(#db8218e47e)"><path fill="#38aadf" d="M 0.804688 0.441406 L 24.238281 0.441406 L 24.238281 21.714844 L 0.804688 21.714844 Z M 0.804688 0.441406 " fill-opacity="1" fill-rule="nonzero"/></g></g></g></g></g></g></svg>